<svg width="244" height="200" viewBox="0 0 244 200" fill="none" xmlns="http://www.w3.org/2000/svg">
<path fill-rule="evenodd" clip-rule="evenodd" d="M122 118.934C119.125 121.953 115.986 124.714 112.619 127.179C97.3917 140.969 82.6659 151.754 69.907 161.098L69.9069 161.098C52.2668 174.017 38.3867 184.183 32.1392 195.729C-2.69116 155.974 -3.08428 86.4706 2.93664 57.4356C8.93752 24.7538 37.3933 0 71.5915 0C91.4055 0 109.292 8.30955 122 21.6561C134.708 8.30955 152.594 0 172.408 0C206.605 0 235.06 24.752 241.063 57.4319C247.084 86.4647 246.693 155.972 211.861 195.729C205.613 184.183 191.733 174.017 174.093 161.098C161.334 151.754 146.609 140.97 131.381 127.18C128.014 124.714 124.875 121.953 122 118.934Z" fill="url(#paint0_linear_214_12119)"/>
<mask id="path-2-inside-1_214_12119" fill="white">
<path fill-rule="evenodd" clip-rule="evenodd" d="M183.139 143.06C183.138 174.507 151.114 200 111.611 200C72.1071 200 40.083 174.507 40.083 143.06C40.083 121.412 55.2601 102.585 77.6063 92.9543C79.3347 78.2841 91.8115 66.9038 106.946 66.9038H146.38C166.681 66.9038 183.139 83.3612 183.139 103.662V143.06Z"/>
</mask>
<path fill-rule="evenodd" clip-rule="evenodd" d="M183.139 143.06C183.138 174.507 151.114 200 111.611 200C72.1071 200 40.083 174.507 40.083 143.06C40.083 121.412 55.2601 102.585 77.6063 92.9543C79.3347 78.2841 91.8115 66.9038 106.946 66.9038H146.38C166.681 66.9038 183.139 83.3612 183.139 103.662V143.06Z" fill="url(#paint1_linear_214_12119)"/>
<path d="M183.139 143.06L184.513 143.06V143.06H183.139ZM77.6063 92.9543L78.1502 94.2162L78.8783 93.9025L78.9711 93.1151L77.6063 92.9543ZM181.764 143.06C181.764 173.472 150.664 198.626 111.611 198.626V201.374C151.564 201.374 184.513 175.542 184.513 143.06L181.764 143.06ZM111.611 198.626C72.5571 198.626 41.4572 173.472 41.4572 143.06H38.7089C38.7089 175.542 71.657 201.374 111.611 201.374V198.626ZM41.4572 143.06C41.4572 122.107 56.1577 103.694 78.1502 94.2162L77.0625 91.6923C54.3625 101.475 38.7089 120.716 38.7089 143.06H41.4572ZM78.9711 93.1151C80.6189 79.1287 92.5164 68.278 106.946 68.278V65.5297C91.1066 65.5297 78.0506 77.4395 76.2416 92.7935L78.9711 93.1151ZM106.946 68.278H146.38V65.5297H106.946V68.278ZM146.38 68.278C165.922 68.278 181.764 84.1201 181.764 103.662H184.513C184.513 82.6023 167.44 65.5297 146.38 65.5297V68.278ZM181.764 103.662V143.06H184.513V103.662H181.764Z" fill="#D3ACA9" mask="url(#path-2-inside-1_214_12119)"/>
<mask id="mask0_214_12119" style="mask-type:alpha" maskUnits="userSpaceOnUse" x="63" y="78" width="43" height="72">
<rect x="63.5801" y="78.2917" width="41.4654" height="71.1744" rx="20.7327" fill="#D9D9D9"/>
</mask>
<g mask="url(#mask0_214_12119)">
<rect x="63.5801" y="114.591" width="41.4654" height="34.8754" fill="#F8F8F8"/>
</g>
<mask id="mask1_214_12119" style="mask-type:alpha" maskUnits="userSpaceOnUse" x="63" y="114" width="43" height="36">
<mask id="mask2_214_12119" style="mask-type:alpha" maskUnits="userSpaceOnUse" x="63" y="78" width="43" height="72">
<rect x="63.5801" y="78.2917" width="41.4654" height="71.1744" rx="20.7327" fill="#D9D9D9"/>
</mask>
<g mask="url(#mask2_214_12119)">
<rect x="63.5801" y="114.591" width="41.4654" height="34.8754" fill="#D9D9D9"/>
</g>
</mask>
<g mask="url(#mask1_214_12119)">
<ellipse cx="81.8942" cy="124.555" rx="13.4762" ry="21.3523" fill="#191919"/>
</g>
<ellipse cx="87.7684" cy="134.52" rx="3.45545" ry="3.55872" fill="#F8F8F8"/>
<rect x="63.5801" y="113.879" width="41.4654" height="1.42349" fill="black"/>
<mask id="mask3_214_12119" style="mask-type:alpha" maskUnits="userSpaceOnUse" x="116" y="78" width="43" height="72">
<rect x="116.794" y="78.2917" width="41.4654" height="71.1744" rx="20.7327" fill="#D9D9D9"/>
</mask>
<g mask="url(#mask3_214_12119)">
<rect x="116.794" y="114.591" width="41.4654" height="34.8754" fill="#F8F8F8"/>
</g>
<mask id="mask4_214_12119" style="mask-type:alpha" maskUnits="userSpaceOnUse" x="116" y="114" width="43" height="36">
<mask id="mask5_214_12119" style="mask-type:alpha" maskUnits="userSpaceOnUse" x="116" y="78" width="43" height="72">
<rect x="116.794" y="78.2917" width="41.4654" height="71.1744" rx="20.7327" fill="#D9D9D9"/>
</mask>
<g mask="url(#mask5_214_12119)">
<rect x="116.794" y="114.591" width="41.4654" height="34.8754" fill="#D9D9D9"/>
</g>
</mask>
<g mask="url(#mask4_214_12119)">
<ellipse cx="134.417" cy="124.555" rx="13.4762" ry="21.3523" fill="#191919"/>
</g>
<ellipse cx="140.982" cy="134.52" rx="3.45545" ry="3.55872" fill="#F8F8F8"/>
<rect x="116.794" y="113.879" width="41.4654" height="1.42349" fill="black"/>
<path fill-rule="evenodd" clip-rule="evenodd" d="M194.206 62.0406C172.509 85.9802 156.202 93.127 141.228 94.7996L141.093 94.8147L140.959 94.8376C128.608 96.945 119.176 95.1721 111.89 91.6521C107.97 89.7584 104.579 87.3139 101.636 84.5672C102.442 83.3236 103.236 82.0285 104.015 80.6811C108.083 73.6507 107.527 65.739 104.639 59.8934C101.872 54.2912 96.061 49.175 88.8784 50.5579C82.5258 51.7809 79.7839 57.6721 79.7914 63.4656C79.7988 69.2416 82.2764 76.0417 87.1426 82.7989C87.7412 83.6301 88.3678 84.462 89.0237 85.2901C81.5996 94.2323 74.0239 97.7333 67.6614 98.0715C59.3513 98.5132 51.6526 93.6597 47.1266 85.3583C45.8185 82.9591 42.8695 82.1062 40.5399 83.4534C38.2103 84.8006 37.3822 87.8377 38.6903 90.2369C44.7037 101.266 55.58 108.691 68.1601 108.023C77.5893 107.521 87.1608 102.53 95.7434 92.5063C99.1748 95.6163 103.157 98.4398 107.781 100.673C116.965 105.11 128.359 107.063 142.406 104.691C160.236 102.666 178.516 93.9556 201.279 68.8398C203.102 66.8283 202.996 63.6756 201.043 61.7981C199.09 59.9205 196.029 60.0291 194.206 62.0406ZM94.9316 76.8878C94.9257 76.8796 94.9197 76.8713 94.9138 76.8631C90.85 71.2201 89.4705 66.4536 89.4666 63.4524C89.4629 60.5528 90.4947 60.3798 90.6455 60.3545C90.6498 60.3538 90.6535 60.3532 90.6563 60.3526C91.9652 60.1006 94.3072 60.9524 96.0162 64.4118C97.6049 67.6278 97.8497 71.8712 95.7036 75.5804C95.447 76.024 95.1896 76.4597 94.9316 76.8878Z" fill="url(#paint2_linear_214_12119)" stroke="#4C2D37" stroke-width="1.37415" stroke-linecap="round"/>
<defs>
<linearGradient id="paint0_linear_214_12119" x1="122" y1="0" x2="122" y2="195.729" gradientUnits="userSpaceOnUse">
<stop stop-color="#A0AAFF"/>
<stop offset="1" stop-color="#444D9D" stop-opacity="0.41"/>
</linearGradient>
<linearGradient id="paint1_linear_214_12119" x1="111.611" y1="66.9038" x2="111.611" y2="200" gradientUnits="userSpaceOnUse">
<stop stop-color="#F9DEDC"/>
<stop offset="1" stop-color="#99578A"/>
</linearGradient>
<linearGradient id="paint2_linear_214_12119" x1="126.032" y1="108.059" x2="114.029" y2="45.7157" gradientUnits="userSpaceOnUse">
<stop stop-color="#945E78"/>
<stop offset="1" stop-color="#431F2B"/>
</linearGradient>
</defs>
</svg>
