<svg width="288" height="229" viewBox="0 0 288 229" fill="none" xmlns="http://www.w3.org/2000/svg">
<mask id="path-1-inside-1_214_12105" fill="white">
<path fill-rule="evenodd" clip-rule="evenodd" d="M154.584 64.4921L147.499 3.93436C147.258 1.87349 145.616 0.861772 144 0.899204C142.384 0.861601 140.742 1.87332 140.501 3.93435L133.416 64.4921L110.844 7.85219C109.335 4.06477 103.656 5.58009 104.251 9.61162L113.194 70.2551L76.4698 21.0942C74.0289 17.8267 68.9324 20.7569 70.5535 24.4957L94.934 80.7246L46.7365 42.7449C43.532 40.2198 39.3651 44.3695 41.9007 47.5606L80.0646 95.59L23.6179 71.3182C19.8693 69.7063 16.9188 74.7955 20.1948 77.2225L69.5002 113.748L8.74027 104.863C4.70273 104.272 3.17388 109.954 6.96695 111.453L64.0735 134.022L3.07217 141.1C-0.98042 141.57 -0.980443 147.455 3.07214 147.925L64.0649 155.002L6.95471 177.572C3.16164 179.071 4.69046 184.753 8.728 184.162L69.5097 175.274L20.1997 211.803C16.9236 214.23 19.8741 219.319 23.6228 217.707L129.064 172.368C129.846 173.063 130.934 173.395 132.034 173.171C132.872 174.516 134.487 175.077 135.928 174.656C136.95 175.671 138.552 175.974 139.907 175.291C141.058 176.339 142.732 176.457 144 175.699C145.268 176.457 146.942 176.339 148.093 175.291C149.449 175.974 151.05 175.671 152.072 174.656C153.513 175.077 155.128 174.516 155.966 173.171C157.066 173.395 158.154 173.063 158.936 172.368L264.377 217.707C268.126 219.319 271.076 214.23 267.8 211.803L218.491 175.274L279.272 184.162C283.31 184.753 284.838 179.071 281.045 177.572L223.935 155.002L284.928 147.925C288.981 147.455 288.981 141.57 284.928 141.1L223.927 134.022L281.033 111.453C284.826 109.954 283.297 104.272 279.26 104.863L218.5 113.748L267.805 77.2225C271.081 74.7955 268.131 69.7063 264.382 71.3182L207.935 95.59L246.099 47.5606C248.635 44.3695 244.468 40.2198 241.264 42.7449L193.066 80.7246L217.447 24.4957C219.068 20.7569 213.971 17.8267 211.53 21.0942L174.806 70.2551L183.749 9.61161C184.344 5.58009 178.665 4.06476 177.156 7.85218L154.584 64.4921Z"/>
</mask>
<path fill-rule="evenodd" clip-rule="evenodd" d="M154.584 64.4921L147.499 3.93436C147.258 1.87349 145.616 0.861772 144 0.899204C142.384 0.861601 140.742 1.87332 140.501 3.93435L133.416 64.4921L110.844 7.85219C109.335 4.06477 103.656 5.58009 104.251 9.61162L113.194 70.2551L76.4698 21.0942C74.0289 17.8267 68.9324 20.7569 70.5535 24.4957L94.934 80.7246L46.7365 42.7449C43.532 40.2198 39.3651 44.3695 41.9007 47.5606L80.0646 95.59L23.6179 71.3182C19.8693 69.7063 16.9188 74.7955 20.1948 77.2225L69.5002 113.748L8.74027 104.863C4.70273 104.272 3.17388 109.954 6.96695 111.453L64.0735 134.022L3.07217 141.1C-0.98042 141.57 -0.980443 147.455 3.07214 147.925L64.0649 155.002L6.95471 177.572C3.16164 179.071 4.69046 184.753 8.728 184.162L69.5097 175.274L20.1997 211.803C16.9236 214.23 19.8741 219.319 23.6228 217.707L129.064 172.368C129.846 173.063 130.934 173.395 132.034 173.171C132.872 174.516 134.487 175.077 135.928 174.656C136.95 175.671 138.552 175.974 139.907 175.291C141.058 176.339 142.732 176.457 144 175.699C145.268 176.457 146.942 176.339 148.093 175.291C149.449 175.974 151.05 175.671 152.072 174.656C153.513 175.077 155.128 174.516 155.966 173.171C157.066 173.395 158.154 173.063 158.936 172.368L264.377 217.707C268.126 219.319 271.076 214.23 267.8 211.803L218.491 175.274L279.272 184.162C283.31 184.753 284.838 179.071 281.045 177.572L223.935 155.002L284.928 147.925C288.981 147.455 288.981 141.57 284.928 141.1L223.927 134.022L281.033 111.453C284.826 109.954 283.297 104.272 279.26 104.863L218.5 113.748L267.805 77.2225C271.081 74.7955 268.131 69.7063 264.382 71.3182L207.935 95.59L246.099 47.5606C248.635 44.3695 244.468 40.2198 241.264 42.7449L193.066 80.7246L217.447 24.4957C219.068 20.7569 213.971 17.8267 211.53 21.0942L174.806 70.2551L183.749 9.61161C184.344 5.58009 178.665 4.06476 177.156 7.85218L154.584 64.4921Z" fill="url(#paint0_linear_214_12105)"/>
<path d="M147.499 3.93436L146.134 4.09405L146.134 4.09405L147.499 3.93436ZM154.584 64.4921L153.219 64.6518L155.861 65.0008L154.584 64.4921ZM144 0.899204L143.968 2.27299L144 2.27373L144.032 2.27299L144 0.899204ZM140.501 3.93435L139.136 3.77466L139.136 3.77467L140.501 3.93435ZM133.416 64.4921L132.14 65.0008L134.781 64.6518L133.416 64.4921ZM110.844 7.85219L109.568 8.3609L109.568 8.3609L110.844 7.85219ZM104.251 9.61162L102.891 9.81209L102.891 9.81209L104.251 9.61162ZM113.194 70.2551L112.093 71.0775L114.553 70.0546L113.194 70.2551ZM76.4698 21.0942L75.3689 21.9165L75.3689 21.9165L76.4698 21.0942ZM70.5535 24.4957L71.8143 23.949L71.8143 23.949L70.5535 24.4957ZM94.934 80.7246L94.0835 81.8039L96.1948 80.1779L94.934 80.7246ZM46.7365 42.7449L45.8859 43.8243L45.886 43.8243L46.7365 42.7449ZM41.9007 47.5606L42.9766 46.7057L42.9766 46.7057L41.9007 47.5606ZM80.0646 95.59L79.5218 96.8524L81.1405 94.7351L80.0646 95.59ZM23.6179 71.3182L23.0751 72.5806L23.0751 72.5806L23.6179 71.3182ZM20.1948 77.2225L19.3769 78.3267L19.3769 78.3267L20.1948 77.2225ZM69.5002 113.748L69.3013 115.108L70.3181 112.644L69.5002 113.748ZM8.74027 104.863L8.93911 103.503L8.93911 103.503L8.74027 104.863ZM6.96695 111.453L6.46189 112.731L6.46189 112.731L6.96695 111.453ZM64.0735 134.022L64.2318 135.387L64.5785 132.744L64.0735 134.022ZM3.07217 141.1L2.91379 139.735L2.91378 139.735L3.07217 141.1ZM3.07214 147.925L2.91376 149.29L2.91376 149.29L3.07214 147.925ZM64.0649 155.002L64.57 156.28L64.2233 153.637L64.0649 155.002ZM6.95471 177.572L7.45977 178.85L7.45977 178.85L6.95471 177.572ZM8.728 184.162L8.52915 182.803L8.52915 182.803L8.728 184.162ZM69.5097 175.274L70.3277 176.378L69.3108 173.914L69.5097 175.274ZM20.1997 211.803L19.3817 210.699L19.3817 210.699L20.1997 211.803ZM23.6228 217.707L23.0799 216.445L23.0799 216.445L23.6228 217.707ZM129.064 172.368L129.976 171.341L129.323 170.761L128.521 171.106L129.064 172.368ZM132.034 173.171L133.2 172.444L132.696 171.635L131.76 171.825L132.034 173.171ZM135.928 174.656L136.896 173.681L136.321 173.11L135.542 173.337L135.928 174.656ZM139.907 175.291L140.832 174.275L140.133 173.639L139.289 174.064L139.907 175.291ZM144 175.699L144.705 174.52L144 174.098L143.295 174.52L144 175.699ZM148.093 175.291L148.711 174.064L147.867 173.639L147.168 174.275L148.093 175.291ZM152.072 174.656L152.458 173.337L151.68 173.11L151.104 173.681L152.072 174.656ZM155.966 173.171L156.24 171.825L155.305 171.635L154.8 172.444L155.966 173.171ZM158.936 172.368L159.479 171.106L158.677 170.761L158.024 171.341L158.936 172.368ZM264.377 217.707L263.834 218.97L263.834 218.97L264.377 217.707ZM267.8 211.803L266.982 212.907L266.982 212.907L267.8 211.803ZM218.491 175.274L218.689 173.914L217.673 176.378L218.491 175.274ZM279.272 184.162L279.471 182.803L279.471 182.803L279.272 184.162ZM281.045 177.572L280.54 178.85L280.54 178.85L281.045 177.572ZM223.935 155.002L223.777 153.637L223.43 156.28L223.935 155.002ZM284.928 147.925L284.77 146.56L284.77 146.56L284.928 147.925ZM284.928 141.1L284.77 142.465L284.77 142.465L284.928 141.1ZM223.927 134.022L223.422 132.744L223.768 135.387L223.927 134.022ZM281.033 111.453L280.528 110.175L280.528 110.175L281.033 111.453ZM279.26 104.863L279.061 103.503L279.061 103.503L279.26 104.863ZM218.5 113.748L217.682 112.644L218.699 115.108L218.5 113.748ZM267.805 77.2225L268.623 78.3266L268.623 78.3266L267.805 77.2225ZM264.382 71.3182L263.839 70.0558L263.839 70.0558L264.382 71.3182ZM207.935 95.59L206.86 94.7351L208.478 96.8524L207.935 95.59ZM246.099 47.5606L245.024 46.7057L245.024 46.7057L246.099 47.5606ZM241.264 42.7449L240.413 41.6656L240.413 41.6656L241.264 42.7449ZM193.066 80.7246L191.805 80.1779L193.917 81.8039L193.066 80.7246ZM217.447 24.4957L216.186 23.949L216.186 23.949L217.447 24.4957ZM211.53 21.0942L212.631 21.9165L212.631 21.9165L211.53 21.0942ZM174.806 70.2551L173.447 70.0546L175.907 71.0775L174.806 70.2551ZM183.749 9.61161L182.39 9.41114L182.39 9.41114L183.749 9.61161ZM177.156 7.85218L178.432 8.36089L178.432 8.36089L177.156 7.85218ZM146.134 4.09405L153.219 64.6518L155.949 64.3324L148.864 3.77467L146.134 4.09405ZM144.032 2.27299C145.063 2.24912 145.989 2.85408 146.134 4.09405L148.864 3.77468C148.526 0.892898 146.17 -0.525578 143.968 -0.474582L144.032 2.27299ZM144.032 -0.474579C141.831 -0.525805 139.474 0.892597 139.136 3.77466L141.866 4.09405C142.011 2.85404 142.938 2.24901 143.968 2.27299L144.032 -0.474579ZM139.136 3.77467L132.051 64.3324L134.781 64.6518L141.866 4.09404L139.136 3.77467ZM109.568 8.3609L132.14 65.0008L134.693 63.9834L112.121 7.34349L109.568 8.3609ZM105.61 9.41115C105.258 7.02462 108.65 6.05803 109.568 8.3609L112.121 7.34349C110.02 2.07152 102.054 4.13557 102.891 9.81209L105.61 9.41115ZM114.553 70.0546L105.61 9.41115L102.891 9.81209L111.834 70.4556L114.553 70.0546ZM75.3689 21.9165L112.093 71.0775L114.295 69.4327L77.5707 20.2718L75.3689 21.9165ZM71.8143 23.949C70.8643 21.758 73.8703 19.9104 75.3689 21.9165L77.5707 20.2718C74.1876 15.7429 67.0005 19.7557 69.2928 25.0423L71.8143 23.949ZM96.1948 80.1779L71.8143 23.949L69.2928 25.0423L93.6733 81.2712L96.1948 80.1779ZM45.886 43.8243L94.0835 81.8039L95.7845 79.6453L47.587 41.6656L45.886 43.8243ZM42.9766 46.7057C41.4961 44.8426 43.9116 42.2685 45.8859 43.8243L47.587 41.6656C43.1525 38.1712 37.234 43.8964 40.8248 48.4155L42.9766 46.7057ZM81.1405 94.7351L42.9766 46.7057L40.8248 48.4155L78.9888 96.4449L81.1405 94.7351ZM23.0751 72.5806L79.5218 96.8524L80.6075 94.3276L24.1607 70.0558L23.0751 72.5806ZM21.0128 76.1183C19.0931 74.6961 20.7734 71.5909 23.0751 72.5806L24.1607 70.0558C18.9651 67.8217 14.7445 74.8949 19.3769 78.3267L21.0128 76.1183ZM70.3181 112.644L21.0128 76.1183L19.3769 78.3267L68.6822 114.853L70.3181 112.644ZM8.54143 106.223L69.3013 115.108L69.699 112.389L8.93911 103.503L8.54143 106.223ZM7.47201 110.175C5.22695 109.288 6.08614 105.864 8.54143 106.223L8.93911 103.503C3.31932 102.681 1.12081 110.621 6.46189 112.731L7.47201 110.175ZM64.5785 132.744L7.47201 110.175L6.46189 112.731L63.5684 135.3L64.5785 132.744ZM3.23054 142.465L64.2318 135.387L63.9151 132.657L2.91379 139.735L3.23054 142.465ZM3.23053 146.56C0.799026 146.278 0.798935 142.747 3.23055 142.465L2.91378 139.735C-2.75978 140.393 -2.75991 148.632 2.91376 149.29L3.23053 146.56ZM64.2233 153.637L3.23052 146.56L2.91376 149.29L63.9065 156.367L64.2233 153.637ZM7.45977 178.85L64.57 156.28L63.5598 153.724L6.44965 176.294L7.45977 178.85ZM8.52915 182.803C6.07395 183.162 5.21463 179.737 7.45977 178.85L6.44965 176.294C1.10865 178.405 3.30696 186.344 8.92684 185.522L8.52915 182.803ZM69.3108 173.914L8.52915 182.803L8.92684 185.522L69.7085 176.633L69.3108 173.914ZM21.0177 212.907L70.3277 176.378L68.6917 174.169L19.3817 210.699L21.0177 212.907ZM23.0799 216.445C20.7782 217.435 19.098 214.329 21.0177 212.907L19.3817 210.699C14.7492 214.131 18.9701 221.204 24.1656 218.97L23.0799 216.445ZM128.521 171.106L23.0799 216.445L24.1656 218.97L129.607 173.631L128.521 171.106ZM131.76 171.825C131.104 171.958 130.451 171.762 129.976 171.341L128.152 173.396C129.242 174.364 130.765 174.832 132.308 174.518L131.76 171.825ZM130.868 173.898C132.043 175.784 134.301 176.563 136.313 175.975L135.542 173.337C134.673 173.591 133.702 173.249 133.2 172.444L130.868 173.898ZM139.289 174.064C138.479 174.472 137.513 174.294 136.896 173.681L134.959 175.631C136.387 177.049 138.624 177.476 140.525 176.519L139.289 174.064ZM138.982 176.308C140.596 177.777 142.935 177.937 144.705 176.879L143.295 174.52C142.529 174.978 141.521 174.902 140.832 174.275L138.982 176.308ZM147.168 174.275C146.48 174.902 145.471 174.978 144.705 174.52L143.295 176.879C145.066 177.937 147.404 177.777 149.018 176.308L147.168 174.275ZM147.475 176.519C149.376 177.476 151.613 177.049 153.041 175.631L151.104 173.681C150.487 174.294 149.521 174.472 148.711 174.064L147.475 176.519ZM154.8 172.444C154.299 173.249 153.327 173.591 152.458 173.337L151.687 175.975C153.699 176.563 155.957 175.784 157.132 173.898L154.8 172.444ZM155.692 174.518C157.236 174.832 158.758 174.363 159.849 173.396L158.024 171.341C157.549 171.762 156.896 171.958 156.24 171.825L155.692 174.518ZM158.394 173.631L263.834 218.97L264.92 216.445L159.479 171.106L158.394 173.631ZM263.834 218.97C269.03 221.204 273.251 214.131 268.618 210.699L266.982 212.907C268.902 214.329 267.222 217.435 264.92 216.445L263.834 218.97ZM268.618 210.699L219.309 174.169L217.673 176.378L266.982 212.907L268.618 210.699ZM218.292 176.633L279.073 185.522L279.471 182.803L218.689 173.914L218.292 176.633ZM279.073 185.522C284.693 186.344 286.891 178.405 281.55 176.294L280.54 178.85C282.785 179.737 281.926 183.162 279.471 182.803L279.073 185.522ZM281.55 176.294L224.44 153.724L223.43 156.28L280.54 178.85L281.55 176.294ZM224.094 156.367L285.086 149.29L284.77 146.56L223.777 153.637L224.094 156.367ZM285.086 149.29C290.76 148.632 290.76 140.393 285.086 139.735L284.77 142.465C287.201 142.747 287.201 146.278 284.77 146.56L285.086 149.29ZM285.086 139.735L224.085 132.657L223.768 135.387L284.77 142.465L285.086 139.735ZM224.432 135.3L281.538 112.731L280.528 110.175L223.422 132.744L224.432 135.3ZM281.538 112.731C286.879 110.621 284.681 102.681 279.061 103.503L279.459 106.223C281.914 105.863 282.773 109.288 280.528 110.175L281.538 112.731ZM279.061 103.503L218.301 112.389L218.699 115.108L279.459 106.223L279.061 103.503ZM219.318 114.853L268.623 78.3266L266.987 76.1183L217.682 112.644L219.318 114.853ZM268.623 78.3266C273.256 74.8949 269.035 67.8217 263.839 70.0558L264.925 72.5806C267.227 71.5909 268.907 74.6961 266.987 76.1183L268.623 78.3266ZM263.839 70.0558L207.393 94.3276L208.478 96.8524L264.925 72.5806L263.839 70.0558ZM209.011 96.4449L247.175 48.4155L245.024 46.7057L206.86 94.7351L209.011 96.4449ZM247.175 48.4155C250.766 43.8964 244.848 38.1712 240.413 41.6656L242.114 43.8243C244.089 42.2684 246.504 44.8426 245.024 46.7057L247.175 48.4155ZM240.413 41.6656L192.216 79.6452L193.917 81.8039L242.114 43.8243L240.413 41.6656ZM194.327 81.2712L218.707 25.0423L216.186 23.949L191.805 80.1779L194.327 81.2712ZM218.707 25.0423C221 19.7557 213.812 15.7429 210.429 20.2718L212.631 21.9165C214.13 19.9104 217.136 21.758 216.186 23.949L218.707 25.0423ZM210.429 20.2718L173.706 69.4327L175.907 71.0775L212.631 21.9165L210.429 20.2718ZM176.166 70.4556L185.109 9.81208L182.39 9.41114L173.447 70.0546L176.166 70.4556ZM185.109 9.81208C185.946 4.13555 177.98 2.07152 175.879 7.34348L178.432 8.36089C179.35 6.05801 182.742 7.02463 182.39 9.41114L185.109 9.81208ZM175.879 7.34348L153.308 63.9834L155.861 65.0008L178.432 8.36089L175.879 7.34348Z" fill="#E49E18" mask="url(#path-1-inside-1_214_12105)"/>
<mask id="path-3-inside-2_214_12105" fill="white">
<path fill-rule="evenodd" clip-rule="evenodd" d="M199.933 174.076C199.933 204.409 167.986 229 128.578 229C89.1695 229 57.2227 204.409 57.2227 174.076C57.2227 153.152 72.423 134.961 94.7877 125.688C96.9425 111.492 109.199 100.614 123.996 100.614H163.175C183.476 100.614 199.933 117.072 199.933 137.373V174.076H199.933Z"/>
</mask>
<path fill-rule="evenodd" clip-rule="evenodd" d="M199.933 174.076C199.933 204.409 167.986 229 128.578 229C89.1695 229 57.2227 204.409 57.2227 174.076C57.2227 153.152 72.423 134.961 94.7877 125.688C96.9425 111.492 109.199 100.614 123.996 100.614H163.175C183.476 100.614 199.933 117.072 199.933 137.373V174.076H199.933Z" fill="url(#paint1_linear_214_12105)"/>
<path d="M199.933 174.076V172.701H198.559V174.076H199.933ZM94.7877 125.688L95.314 126.957L96.03 126.66L96.1463 125.894L94.7877 125.688ZM199.933 174.076V175.45H201.308V174.076H199.933ZM198.559 174.076C198.559 203.338 167.583 227.626 128.578 227.626V230.374C168.389 230.374 201.307 205.481 201.307 174.076H198.559ZM128.578 227.626C89.5724 227.626 58.5968 203.338 58.5968 174.076H55.8485C55.8485 205.481 88.7666 230.374 128.578 230.374V227.626ZM58.5968 174.076C58.5968 153.875 73.2873 136.09 95.314 126.957L94.2614 124.418C71.5588 133.831 55.8485 152.428 55.8485 174.076H58.5968ZM96.1463 125.894C98.2006 112.36 109.888 101.988 123.996 101.988V99.24C108.509 99.24 95.6843 110.625 93.4291 125.482L96.1463 125.894ZM123.996 101.988H163.175V99.24H123.996V101.988ZM163.175 101.988C182.717 101.988 198.559 117.83 198.559 137.373H201.308C201.308 116.313 184.235 99.24 163.175 99.24V101.988ZM198.559 137.373V174.076H201.308V137.373H198.559ZM199.933 172.701H199.933V175.45H199.933V172.701Z" fill="#D3ACA9" mask="url(#path-3-inside-2_214_12105)"/>
<mask id="mask0_214_12105" style="mask-type:alpha" maskUnits="userSpaceOnUse" x="82" y="109" width="42" height="70">
<rect x="82.042" y="109.476" width="41.3654" height="68.6555" rx="20.6827" fill="#D9D9D9"/>
</mask>
<g mask="url(#mask0_214_12105)">
<rect x="82.042" y="144.49" width="41.3654" height="33.6412" fill="#F8F8F8"/>
</g>
<mask id="mask1_214_12105" style="mask-type:alpha" maskUnits="userSpaceOnUse" x="82" y="144" width="42" height="35">
<mask id="mask2_214_12105" style="mask-type:alpha" maskUnits="userSpaceOnUse" x="82" y="109" width="42" height="70">
<rect x="82.042" y="109.476" width="41.3654" height="68.6555" rx="20.6827" fill="#D9D9D9"/>
</mask>
<g mask="url(#mask2_214_12105)">
<rect x="82.042" y="144.49" width="41.3654" height="33.6412" fill="#D9D9D9"/>
</g>
</mask>
<g mask="url(#mask1_214_12105)">
<ellipse cx="100.312" cy="154.102" rx="13.4437" ry="20.5967" fill="#191919"/>
</g>
<ellipse cx="106.172" cy="163.714" rx="3.44711" ry="3.43278" fill="#F8F8F8"/>
<rect x="82.042" y="143.803" width="41.3654" height="1.37311" fill="black"/>
<mask id="mask3_214_12105" style="mask-type:alpha" maskUnits="userSpaceOnUse" x="135" y="109" width="42" height="70">
<rect x="135.127" y="109.476" width="41.3654" height="68.6555" rx="20.6827" fill="#D9D9D9"/>
</mask>
<g mask="url(#mask3_214_12105)">
<rect x="135.127" y="144.49" width="41.3654" height="33.6412" fill="#F8F8F8"/>
</g>
<mask id="mask4_214_12105" style="mask-type:alpha" maskUnits="userSpaceOnUse" x="135" y="144" width="42" height="35">
<mask id="mask5_214_12105" style="mask-type:alpha" maskUnits="userSpaceOnUse" x="135" y="109" width="42" height="70">
<rect x="135.127" y="109.476" width="41.3654" height="68.6555" rx="20.6827" fill="#D9D9D9"/>
</mask>
<g mask="url(#mask5_214_12105)">
<rect x="135.127" y="144.49" width="41.3654" height="33.6412" fill="#D9D9D9"/>
</g>
</mask>
<g mask="url(#mask4_214_12105)">
<ellipse cx="152.708" cy="154.102" rx="13.4437" ry="20.5967" fill="#191919"/>
</g>
<ellipse cx="159.257" cy="163.714" rx="3.44711" ry="3.43278" fill="#F8F8F8"/>
<rect x="135.127" y="143.803" width="41.3654" height="1.37311" fill="black"/>
<path fill-rule="evenodd" clip-rule="evenodd" d="M240.229 97.8124C167.262 97.2701 136.499 124.252 130.439 135.747C129.665 137.216 128.184 138.183 126.523 138.306C124.862 138.429 123.255 137.69 122.271 136.351C120.684 134.191 117.981 131.829 114.316 129.402C110.702 127.009 106.406 124.718 101.89 122.618C92.8514 118.414 83.2708 115.134 77.2643 113.417C74.7024 112.684 73.2218 110.023 73.9571 107.471C74.6925 104.92 77.3654 103.446 79.9272 104.178C86.3303 106.008 96.3983 109.456 105.974 113.909C110.765 116.137 115.518 118.656 119.66 121.398C121.735 122.772 123.725 124.247 125.515 125.819C138.261 109.731 173.441 87.704 240.301 88.2009C242.967 88.2207 245.111 90.3884 245.091 93.0425C245.071 95.6966 242.895 97.8322 240.229 97.8124Z" fill="url(#paint2_linear_214_12105)" stroke="#3E374B" stroke-width="1.37415" stroke-linecap="round" stroke-linejoin="round"/>
<defs>
<linearGradient id="paint0_linear_214_12105" x1="144" y1="0.898193" x2="144" y2="218.017" gradientUnits="userSpaceOnUse">
<stop stop-color="#FFBA33"/>
<stop offset="1" stop-color="#DDAB4C" stop-opacity="0.26"/>
</linearGradient>
<linearGradient id="paint1_linear_214_12105" x1="128.578" y1="100.614" x2="128.578" y2="229" gradientUnits="userSpaceOnUse">
<stop stop-color="#F9DEDC"/>
<stop offset="1" stop-color="#99578A"/>
</linearGradient>
<linearGradient id="paint2_linear_214_12105" x1="159.43" y1="88.1926" x2="159.43" y2="138.319" gradientUnits="userSpaceOnUse">
<stop stop-color="#76659A"/>
<stop offset="1" stop-color="#230F4F"/>
</linearGradient>
</defs>
</svg>
