<svg width="244" height="200" viewBox="0 0 244 200" fill="none" xmlns="http://www.w3.org/2000/svg">
<path fill-rule="evenodd" clip-rule="evenodd" d="M122 115.641C119.126 118.577 115.986 121.261 112.62 123.659C97.392 137.067 82.666 147.553 69.9071 156.639L69.9069 156.639C52.2668 169.2 38.3867 179.084 32.1392 190.311C-2.69092 151.657 -3.08427 84.0779 2.93652 55.8463C8.93714 24.0689 37.393 0 71.5915 0C91.4055 0 109.292 8.07952 122 21.0567C134.708 8.07952 152.594 0 172.408 0C206.606 0 235.061 24.0671 241.063 55.8428C247.084 84.0721 246.692 151.655 211.861 190.311C205.613 179.084 191.733 169.2 174.093 156.639C161.334 147.553 146.608 137.067 131.381 123.659C128.014 121.262 124.874 118.577 122 115.641Z" fill="url(#paint0_linear_214_12110)"/>
<mask id="path-2-inside-1_214_12110" fill="white">
<path fill-rule="evenodd" clip-rule="evenodd" d="M183.139 144.637C183.138 175.213 151.114 200 111.611 200C72.1071 200 40.083 175.213 40.083 144.637C40.083 123.556 55.3054 105.227 77.7063 95.8759C79.7698 81.5759 92.0749 70.5883 106.946 70.5883H146.38C166.681 70.5883 183.139 87.0457 183.139 107.347V144.637Z"/>
</mask>
<path fill-rule="evenodd" clip-rule="evenodd" d="M183.139 144.637C183.138 175.213 151.114 200 111.611 200C72.1071 200 40.083 175.213 40.083 144.637C40.083 123.556 55.3054 105.227 77.7063 95.8759C79.7698 81.5759 92.0749 70.5883 106.946 70.5883H146.38C166.681 70.5883 183.139 87.0457 183.139 107.347V144.637Z" fill="url(#paint1_linear_214_12110)"/>
<path d="M183.139 144.637L184.513 144.637V144.637H183.139ZM77.7063 95.8759L78.2357 97.144L78.955 96.8437L79.0664 96.0721L77.7063 95.8759ZM181.764 144.637C181.764 174.147 150.704 198.626 111.611 198.626V201.374C151.525 201.374 184.513 176.279 184.513 144.637L181.764 144.637ZM111.611 198.626C72.5178 198.626 41.4572 174.147 41.4572 144.637H38.7089C38.7089 176.279 71.6963 201.374 111.611 201.374V198.626ZM41.4572 144.637C41.4572 124.275 56.1754 106.353 78.2357 97.144L77.1769 94.6078C54.4354 104.101 38.7089 122.837 38.7089 144.637H41.4572ZM79.0664 96.0721C81.0337 82.4385 92.7678 71.9624 106.946 71.9624V69.2141C91.382 69.2141 78.5059 80.7132 76.3462 95.6796L79.0664 96.0721ZM106.946 71.9624H146.38V69.2141H106.946V71.9624ZM146.38 71.9624C165.922 71.9624 181.764 87.8046 181.764 107.347H184.513C184.513 86.2867 167.44 69.2141 146.38 69.2141V71.9624ZM181.764 107.347V144.637H184.513V107.347H181.764Z" fill="#D3ACA9" mask="url(#path-2-inside-1_214_12110)"/>
<rect x="69.106" y="101.725" width="40.0912" height="53.2971" rx="20.0456" fill="#F8F8F8" stroke="#C6C6C6" stroke-width="1.37415"/>
<rect x="122.32" y="101.725" width="40.0912" height="53.2971" rx="20.0456" fill="#F8F8F8" stroke="#C6C6C6" stroke-width="1.37415"/>
<rect x="78.7852" y="112.11" width="26.9525" height="37.3702" rx="13.4762" fill="#191919"/>
<rect x="131.999" y="112.11" width="26.9525" height="37.3702" rx="13.4762" fill="#191919"/>
<ellipse cx="87.0785" cy="122.491" rx="3.45545" ry="3.46021" fill="#F8F8F8"/>
<ellipse cx="140.292" cy="122.491" rx="3.45545" ry="3.46021" fill="#F8F8F8"/>
<path fill-rule="evenodd" clip-rule="evenodd" d="M215.629 54.7868C193.933 78.0637 177.626 85.0126 162.652 86.639L162.517 86.6536L162.382 86.6759C150.032 88.725 140.6 87.0011 133.313 83.5785C129.394 81.7373 126.003 79.3605 123.06 76.6897C123.866 75.4807 124.659 74.2213 125.439 72.9113C129.507 66.0755 128.951 58.3828 126.063 52.699C123.296 47.2519 117.485 42.2773 110.302 43.6219C103.95 44.8111 101.208 50.5392 101.215 56.1723C101.223 61.7884 103.7 68.4003 108.566 74.9705C109.165 75.7787 109.792 76.5875 110.448 77.3926C103.023 86.0873 95.4478 89.4914 89.0853 89.8202C80.7751 90.2497 73.0764 85.5306 68.5504 77.459C67.2423 75.1262 64.2934 74.2969 61.9637 75.6068C59.6341 76.9167 58.806 79.8697 60.1141 82.2026C66.1276 92.9268 77.0038 100.146 89.5839 99.4959C99.0131 99.0087 108.585 94.155 117.167 84.4091C120.599 87.4331 124.581 90.1784 129.205 92.35C138.389 96.6642 149.783 98.5629 163.83 96.2562C181.66 94.2873 199.94 85.8183 222.702 61.3977C224.525 59.4419 224.42 56.3765 222.467 54.551C220.514 52.7254 217.452 52.831 215.629 54.7868ZM116.355 69.223C116.349 69.215 116.344 69.2069 116.338 69.1989C112.274 63.7122 110.894 59.0776 110.89 56.1595C110.887 53.3401 111.919 53.1719 112.069 53.1473C112.074 53.1466 112.077 53.146 112.08 53.1455C113.389 52.9005 115.731 53.7287 117.44 57.0924C119.029 60.2193 119.273 64.3453 117.127 67.9518C116.871 68.383 116.613 68.8068 116.355 69.223Z" fill="url(#paint2_linear_214_12110)" stroke="#4C2D37" stroke-width="1.37415" stroke-linecap="round"/>
<defs>
<linearGradient id="paint0_linear_214_12110" x1="122" y1="0" x2="122" y2="190.311" gradientUnits="userSpaceOnUse">
<stop stop-color="#A0AAFF"/>
<stop offset="1" stop-color="#444D9D" stop-opacity="0.41"/>
</linearGradient>
<linearGradient id="paint1_linear_214_12110" x1="111.611" y1="70.5883" x2="111.611" y2="200" gradientUnits="userSpaceOnUse">
<stop stop-color="#F9DEDC"/>
<stop offset="1" stop-color="#99578A"/>
</linearGradient>
<linearGradient id="paint2_linear_214_12110" x1="147.455" y1="99.531" x2="136.086" y2="38.7953" gradientUnits="userSpaceOnUse">
<stop stop-color="#945E78"/>
<stop offset="1" stop-color="#431F2B"/>
</linearGradient>
</defs>
</svg>
