<svg width="120" height="26" viewBox="0 0 120 26" fill="none" xmlns="http://www.w3.org/2000/svg">
<g id="DDONA">
<path id="Vector" d="M98.2499 25.2006C95.9866 25.2006 94.3875 22.9844 95.101 20.8365L100.51 4.55467C101.345 2.04025 103.697 0.343384 106.346 0.343384C108.996 0.343384 111.347 2.04025 112.183 4.55468L117.592 20.8379C118.305 22.9851 116.706 25.2006 114.444 25.2006C112.983 25.2006 111.695 24.2456 111.27 22.8485L106.488 7.11977C106.47 7.06121 106.416 7.02118 106.355 7.02118C106.293 7.02118 106.239 7.06115 106.222 7.11965L101.424 22.8505C100.998 24.2467 99.7095 25.2006 98.2499 25.2006ZM110.655 15.3813C112.015 15.3813 113.118 16.4842 113.118 17.8447C113.118 19.2052 112.015 20.3081 110.655 20.3081H101.934C100.574 20.3081 99.4708 19.2052 99.4708 17.8447C99.4708 16.4842 100.574 15.3813 101.934 15.3813H110.655Z" fill="#F8F8F8"/>
<path id="Vector_2" d="M95.0963 21.612C95.0963 23.5939 93.4897 25.2006 91.5078 25.2006C90.3261 25.2006 89.2202 24.6189 88.5508 23.6452L80.4353 11.8422C80.4143 11.8117 80.3796 11.7935 80.3426 11.7935C80.2804 11.7935 80.2301 11.8439 80.2301 11.906V21.9389C80.2301 23.7403 78.7698 25.2006 76.9684 25.2006C75.1671 25.2006 73.7068 23.7403 73.7068 21.9389V3.99059C73.7068 1.97629 75.3397 0.343384 77.354 0.343384C78.5624 0.343384 79.6924 0.94193 80.3713 1.94164L88.327 13.6571C88.352 13.694 88.3938 13.7161 88.4384 13.7161C88.5127 13.7161 88.573 13.6559 88.573 13.5815V3.60503C88.573 1.80367 90.0333 0.343384 91.8347 0.343384C93.636 0.343384 95.0963 1.80367 95.0963 3.60503V21.612Z" fill="#F8F8F8"/>
<path id="Vector_3" d="M70.8465 12.7719C70.8465 15.4499 70.3201 17.7502 69.2672 19.6729C68.2257 21.5955 66.7895 23.0547 64.9584 24.0504C63.1387 25.046 61.0902 25.5439 58.8127 25.5439C56.5239 25.5439 54.4696 25.046 52.6499 24.0504C50.8417 23.0547 49.4112 21.5955 48.3583 19.6729C47.3169 17.7388 46.7961 15.4385 46.7961 12.7719C46.7961 10.0939 47.3169 7.79362 48.3583 5.87097C49.4112 3.93687 50.8417 2.47771 52.6499 1.49349C54.4696 0.497831 56.5239 0 58.8127 0C61.0902 0 63.1387 0.497831 64.9584 1.49349C66.7895 2.47771 68.2257 3.93687 69.2672 5.87097C70.3201 7.79362 70.8465 10.0939 70.8465 12.7719ZM64.1344 12.7719C64.1344 11.2498 63.9284 9.96233 63.5164 8.90945C63.1158 7.85657 62.515 7.06118 61.7139 6.5233C60.9128 5.97397 59.9457 5.6993 58.8127 5.6993C57.6797 5.6993 56.7184 5.97397 55.9288 6.5233C55.1505 7.06118 54.5497 7.85657 54.1263 8.90945C53.7143 9.96233 53.5083 11.2498 53.5083 12.7719C53.5083 14.294 53.7143 15.5758 54.1263 16.6172C54.5497 17.6587 55.1505 18.4598 55.9288 19.0206C56.7184 19.5699 57.6797 19.8446 58.8127 19.8446C59.9457 19.8446 60.9128 19.5699 61.7139 19.0206C62.515 18.4598 63.1158 17.6587 63.5164 16.6172C63.9284 15.5758 64.1344 14.294 64.1344 12.7719Z" fill="#F8F8F8"/>
<path id="Vector_4" d="M30.4536 25.2006C28.9177 25.2006 27.6726 23.9555 27.6726 22.4196C27.6726 20.8837 28.9177 19.6386 30.4536 19.6386H34.1959C35.5235 19.6386 36.6278 19.4212 37.5091 18.9863C38.3903 18.5514 39.0598 17.8361 39.5175 16.8405C39.9753 15.8448 40.2042 14.4886 40.2042 12.772C40.2042 11.0553 39.9696 9.69344 39.5004 8.68634C39.0312 7.67923 38.3502 6.96396 37.4576 6.54052C36.5649 6.10563 35.4262 5.89391 34.0414 5.90535H30.3506C28.8147 5.90535 27.5696 4.66026 27.5696 3.12437C27.5696 1.58847 28.8147 0.343384 30.3506 0.343384H34.3504C36.8911 0.343384 39.0998 0.835492 40.9767 1.81971C42.8536 2.80393 44.2899 4.23447 45.2855 6.11135C46.2926 7.98823 46.7962 10.2084 46.7962 12.772C46.7962 15.3355 46.2926 17.55 45.2855 19.4154C44.2899 21.2809 42.8593 22.7114 40.9939 23.7071C39.1399 24.7028 36.954 25.2006 34.4362 25.2006H30.4536ZM31.5179 21.9389C31.5179 23.7403 30.0576 25.2006 28.2563 25.2006C26.4549 25.2006 24.9946 23.7403 24.9946 21.9389V3.60504C24.9946 1.80368 26.4549 0.343384 28.2563 0.343384C30.0576 0.343384 31.5179 1.80367 31.5179 3.60503V21.9389Z" fill="#F8F8F8"/>
<path id="Vector_5" d="M5.45897 25.2006C3.92308 25.2006 2.67799 23.9555 2.67799 22.4196C2.67799 20.8837 3.92307 19.6386 5.45897 19.6386H9.20128C10.5288 19.6386 11.6332 19.4212 12.5144 18.9863C13.3956 18.5514 14.0651 17.8361 14.5229 16.8405C14.9807 15.8448 15.2096 14.4886 15.2096 12.772C15.2096 11.0553 14.975 9.69344 14.5058 8.68634C14.0365 7.67923 13.3556 6.96396 12.4629 6.54052C11.5703 6.10563 10.4316 5.89391 9.04678 5.90535H5.35597C3.82007 5.90535 2.57499 4.66026 2.57499 3.12437C2.57499 1.58847 3.82008 0.343384 5.35597 0.343384H9.35578C11.8964 0.343384 14.1052 0.835492 15.9821 1.81971C17.859 2.80393 19.2952 4.23447 20.2909 6.11135C21.298 7.98823 21.8015 10.2084 21.8015 12.772C21.8015 15.3355 21.298 17.55 20.2909 19.4154C19.2952 21.2809 17.8647 22.7114 15.9992 23.7071C14.1453 24.7028 11.9594 25.2006 9.44161 25.2006H5.45897ZM6.5233 21.9389C6.5233 23.7403 5.06301 25.2006 3.26165 25.2006C1.46029 25.2006 0 23.7403 0 21.9389V3.60504C0 1.80368 1.46029 0.343384 3.26165 0.343384C5.06301 0.343384 6.5233 1.80367 6.5233 3.60503V21.9389Z" fill="#F8F8F8"/>
</g>
</svg>
