<svg width="244" height="190" viewBox="0 0 244 190" fill="none" xmlns="http://www.w3.org/2000/svg">
<path fill-rule="evenodd" clip-rule="evenodd" d="M122 115.452C119.126 118.383 115.986 121.063 112.62 123.456C97.3922 136.843 82.6663 147.312 69.9073 156.382L69.9068 156.383C52.2667 168.923 38.3867 178.791 32.1392 190C-2.69086 151.409 -3.08427 83.9407 2.93648 55.7552C8.93703 24.0296 37.393 0 71.5915 0C91.4055 0 109.292 8.06631 122 21.0222C134.708 8.06631 152.594 0 172.408 0C206.606 0 235.061 24.0278 241.063 55.7516C247.084 83.9349 246.692 151.407 211.861 190C205.613 178.791 191.733 168.923 174.093 156.383C161.334 147.312 146.608 136.843 131.381 123.457C128.014 121.063 124.874 118.383 122 115.452Z" fill="url(#paint0_linear_214_12116)"/>
<mask id="path-2-inside-1_214_12116" fill="white">
<path fill-rule="evenodd" clip-rule="evenodd" d="M95.5018 72.5457C75.2006 72.5457 58.7432 89.0031 58.7432 109.304V109.855V146.473V147.023C58.7432 167.325 75.2006 183.782 95.5018 183.782H153.291C173.593 183.782 190.05 167.325 190.05 147.023V135.964C190.05 121.724 178.651 110.147 164.48 109.86V102.09C164.48 85.7731 151.252 72.5457 134.935 72.5457H95.5018Z"/>
</mask>
<path fill-rule="evenodd" clip-rule="evenodd" d="M95.5018 72.5457C75.2006 72.5457 58.7432 89.0031 58.7432 109.304V109.855V146.473V147.023C58.7432 167.325 75.2006 183.782 95.5018 183.782H153.291C173.593 183.782 190.05 167.325 190.05 147.023V135.964C190.05 121.724 178.651 110.147 164.48 109.86V102.09C164.48 85.7731 151.252 72.5457 134.935 72.5457H95.5018Z" fill="url(#paint1_linear_214_12116)"/>
<path d="M164.48 109.86H163.106V111.207L164.452 111.234L164.48 109.86ZM60.1173 109.304C60.1173 89.762 75.9595 73.9198 95.5018 73.9198V71.1715C74.4416 71.1715 57.369 88.2442 57.369 109.304H60.1173ZM60.1173 109.855V109.304H57.369V109.855H60.1173ZM60.1173 146.473V109.855H57.369V146.473H60.1173ZM60.1173 147.023V146.473H57.369V147.023H60.1173ZM95.5018 182.408C75.9595 182.408 60.1173 166.566 60.1173 147.023H57.369C57.369 168.084 74.4417 185.156 95.5018 185.156V182.408ZM153.291 182.408H95.5018V185.156H153.291V182.408ZM188.676 147.023C188.676 166.566 172.834 182.408 153.291 182.408V185.156C174.352 185.156 191.424 168.084 191.424 147.023H188.676ZM188.676 135.964V147.023H191.424V135.964H188.676ZM164.452 111.234C177.877 111.506 188.676 122.474 188.676 135.964H191.424C191.424 120.974 179.425 108.788 164.508 108.486L164.452 111.234ZM163.106 102.09V109.86H165.854V102.09H163.106ZM134.935 73.9198C150.493 73.9198 163.106 86.532 163.106 102.09H165.854C165.854 85.0142 152.011 71.1715 134.935 71.1715V73.9198ZM95.5018 73.9198H134.935V71.1715H95.5018V73.9198Z" fill="#A898C1" mask="url(#path-2-inside-1_214_12116)"/>
<rect x="71.1783" y="104.324" width="40.0912" height="53.2077" rx="20.0456" fill="#F8F8F8" stroke="#C6C6C6" stroke-width="1.37415"/>
<rect x="124.392" y="104.324" width="40.0912" height="53.2077" rx="20.0456" fill="#F8F8F8" stroke="#C6C6C6" stroke-width="1.37415"/>
<rect x="80.8574" y="114.691" width="26.9525" height="37.3091" rx="13.4762" fill="#191919"/>
<rect x="134.071" y="114.691" width="26.9525" height="37.3091" rx="13.4762" fill="#191919"/>
<ellipse cx="89.1508" cy="125.055" rx="3.45545" ry="3.45455" fill="#F8F8F8"/>
<ellipse cx="142.365" cy="125.055" rx="3.45545" ry="3.45455" fill="#F8F8F8"/>
<path fill-rule="evenodd" clip-rule="evenodd" d="M232.517 67.0262C159.372 66.4805 128.536 93.6333 122.461 105.202C121.684 106.68 120.201 107.653 118.536 107.777C116.87 107.9 115.259 107.157 114.273 105.81C112.682 103.635 109.973 101.259 106.299 98.8164C102.676 96.4081 98.37 94.1025 93.8429 91.9889C84.7822 87.759 75.1786 84.4574 69.1575 82.7296C66.5895 81.9926 65.1052 79.314 65.8423 76.7466C66.5795 74.1792 69.2588 72.6953 71.8269 73.4323C78.2454 75.2741 88.3378 78.7435 97.9366 83.2247C102.739 85.4668 107.504 88.0018 111.656 90.7617C113.736 92.1443 115.731 93.6281 117.525 95.2102C130.301 79.0205 165.567 56.8537 232.589 57.3538C235.26 57.3737 237.41 59.5551 237.39 62.2261C237.37 64.8971 235.188 67.0462 232.517 67.0262Z" fill="url(#paint2_linear_214_12116)" stroke="#3E374B" stroke-width="1.37415" stroke-linecap="round" stroke-linejoin="round"/>
<defs>
<linearGradient id="paint0_linear_214_12116" x1="122" y1="0" x2="122" y2="190" gradientUnits="userSpaceOnUse">
<stop stop-color="#A0AAFF"/>
<stop offset="1" stop-color="#444D9D" stop-opacity="0.41"/>
</linearGradient>
<linearGradient id="paint1_linear_214_12116" x1="124.397" y1="72.5457" x2="124.397" y2="183.782" gradientUnits="userSpaceOnUse">
<stop stop-color="#E8DEF8"/>
<stop offset="1" stop-color="#7EBCB9"/>
</linearGradient>
<linearGradient id="paint2_linear_214_12116" x1="151.522" y1="57.3455" x2="151.522" y2="107.79" gradientUnits="userSpaceOnUse">
<stop stop-color="#76659A"/>
<stop offset="1" stop-color="#230F4F"/>
</linearGradient>
</defs>
</svg>
