<svg width="244" height="190" viewBox="0 0 244 190" fill="none" xmlns="http://www.w3.org/2000/svg">
<path fill-rule="evenodd" clip-rule="evenodd" d="M122 115.452C119.126 118.383 115.986 121.063 112.62 123.456C97.3922 136.843 82.6663 147.312 69.9073 156.382L69.9068 156.383C52.2667 168.923 38.3867 178.791 32.1392 190C-2.69086 151.409 -3.08427 83.9407 2.93648 55.7552C8.93703 24.0296 37.393 0 71.5915 0C91.4055 0 109.292 8.06631 122 21.0222C134.708 8.06631 152.594 0 172.408 0C206.606 0 235.061 24.0278 241.063 55.7516C247.084 83.9349 246.692 151.407 211.861 190C205.613 178.791 191.733 168.923 174.093 156.383C161.334 147.312 146.608 136.843 131.381 123.457C128.014 121.063 124.874 118.383 122 115.452Z" fill="url(#paint0_linear_214_12118)"/>
<mask id="path-2-inside-1_214_12118" fill="white">
<path fill-rule="evenodd" clip-rule="evenodd" d="M95.5018 67.0182C75.2006 67.0182 58.7432 83.4756 58.7432 103.777V104.327V140.945V141.496C58.7432 161.797 75.2006 178.255 95.5018 178.255H153.291C173.593 178.255 190.05 161.797 190.05 141.496V130.436C190.05 116.197 178.651 104.62 164.48 104.333V96.5625C164.48 80.2456 151.252 67.0182 134.935 67.0182H95.5018Z"/>
</mask>
<path fill-rule="evenodd" clip-rule="evenodd" d="M95.5018 67.0182C75.2006 67.0182 58.7432 83.4756 58.7432 103.777V104.327V140.945V141.496C58.7432 161.797 75.2006 178.255 95.5018 178.255H153.291C173.593 178.255 190.05 161.797 190.05 141.496V130.436C190.05 116.197 178.651 104.62 164.48 104.333V96.5625C164.48 80.2456 151.252 67.0182 134.935 67.0182H95.5018Z" fill="url(#paint1_linear_214_12118)"/>
<path d="M164.48 104.333H163.106V105.679L164.452 105.707L164.48 104.333ZM60.1173 103.777C60.1173 84.2345 75.9595 68.3923 95.5018 68.3923V65.644C74.4416 65.644 57.369 82.7167 57.369 103.777H60.1173ZM60.1173 104.327V103.777H57.369V104.327H60.1173ZM60.1173 140.945V104.327H57.369V140.945H60.1173ZM60.1173 141.496V140.945H57.369V141.496H60.1173ZM95.5018 176.88C75.9595 176.88 60.1173 161.038 60.1173 141.496H57.369C57.369 162.556 74.4417 179.629 95.5018 179.629V176.88ZM153.291 176.88H95.5018V179.629H153.291V176.88ZM188.676 141.496C188.676 161.038 172.834 176.88 153.291 176.88V179.629C174.352 179.629 191.424 162.556 191.424 141.496H188.676ZM188.676 130.436V141.496H191.424V130.436H188.676ZM164.452 105.707C177.877 105.978 188.676 116.946 188.676 130.436H191.424C191.424 115.447 179.425 103.261 164.508 102.959L164.452 105.707ZM163.106 96.5625V104.333H165.854V96.5625H163.106ZM134.935 68.3923C150.493 68.3923 163.106 81.0046 163.106 96.5625H165.854C165.854 79.4867 152.011 65.644 134.935 65.644V68.3923ZM95.5018 68.3923H134.935V65.644H95.5018V68.3923Z" fill="#A898C1" mask="url(#path-2-inside-1_214_12118)"/>
<mask id="mask0_214_12118" style="mask-type:alpha" maskUnits="userSpaceOnUse" x="74" y="74" width="43" height="70">
<rect x="74.6377" y="74.618" width="41.4654" height="69.0909" rx="20.7327" fill="#D9D9D9"/>
</mask>
<g mask="url(#mask0_214_12118)">
<rect x="74.6377" y="109.854" width="41.4654" height="33.8545" fill="#F8F8F8"/>
</g>
<mask id="mask1_214_12118" style="mask-type:alpha" maskUnits="userSpaceOnUse" x="74" y="109" width="43" height="35">
<mask id="mask2_214_12118" style="mask-type:alpha" maskUnits="userSpaceOnUse" x="74" y="74" width="43" height="70">
<rect x="74.6377" y="74.618" width="41.4654" height="69.0909" rx="20.7327" fill="#D9D9D9"/>
</mask>
<g mask="url(#mask2_214_12118)">
<rect x="74.6377" y="109.854" width="41.4654" height="33.8545" fill="#D9D9D9"/>
</g>
</mask>
<g mask="url(#mask1_214_12118)">
<ellipse cx="92.9518" cy="119.527" rx="13.4762" ry="20.7273" fill="#191919"/>
</g>
<ellipse cx="98.826" cy="129.2" rx="3.45545" ry="3.45454" fill="#F8F8F8"/>
<rect x="74.6377" y="109.163" width="41.4654" height="1.38182" fill="black"/>
<mask id="mask3_214_12118" style="mask-type:alpha" maskUnits="userSpaceOnUse" x="127" y="74" width="43" height="70">
<rect x="127.852" y="74.618" width="41.4654" height="69.0909" rx="20.7327" fill="#D9D9D9"/>
</mask>
<g mask="url(#mask3_214_12118)">
<rect x="127.852" y="109.854" width="41.4654" height="33.8545" fill="#F8F8F8"/>
</g>
<mask id="mask4_214_12118" style="mask-type:alpha" maskUnits="userSpaceOnUse" x="127" y="109" width="43" height="35">
<mask id="mask5_214_12118" style="mask-type:alpha" maskUnits="userSpaceOnUse" x="127" y="74" width="43" height="70">
<rect x="127.852" y="74.618" width="41.4654" height="69.0909" rx="20.7327" fill="#D9D9D9"/>
</mask>
<g mask="url(#mask5_214_12118)">
<rect x="127.852" y="109.854" width="41.4654" height="33.8545" fill="#D9D9D9"/>
</g>
</mask>
<g mask="url(#mask4_214_12118)">
<ellipse cx="145.474" cy="119.527" rx="13.4762" ry="20.7273" fill="#191919"/>
</g>
<ellipse cx="152.04" cy="129.2" rx="3.45545" ry="3.45454" fill="#F8F8F8"/>
<rect x="127.852" y="109.163" width="41.4654" height="1.38182" fill="black"/>
<path fill-rule="evenodd" clip-rule="evenodd" d="M236.663 64.2626C163.519 63.7168 132.682 90.8696 126.607 102.438C125.831 103.916 124.347 104.889 122.682 105.013C121.017 105.137 119.406 104.393 118.42 103.046C116.828 100.871 114.119 98.495 110.445 96.0527C106.822 93.6445 102.517 91.3388 97.9893 89.2253C88.9287 84.9953 79.3251 81.6937 73.304 79.9659C70.7359 79.229 69.2517 76.5503 69.9888 73.9829C70.7259 71.4155 73.4053 69.9317 75.9734 70.6686C82.3919 72.5105 92.4843 75.9798 102.083 80.461C106.886 82.7031 111.65 85.2381 115.802 87.998C117.882 89.3806 119.877 90.8644 121.671 92.4465C134.448 76.2568 169.713 54.0901 236.735 54.5901C239.407 54.61 241.557 56.7914 241.537 59.4624C241.517 62.1334 239.335 64.2825 236.663 64.2626Z" fill="url(#paint2_linear_214_12118)" stroke="#3E374B" stroke-width="1.37415" stroke-linecap="round" stroke-linejoin="round"/>
<defs>
<linearGradient id="paint0_linear_214_12118" x1="122" y1="0" x2="122" y2="190" gradientUnits="userSpaceOnUse">
<stop stop-color="#A0AAFF"/>
<stop offset="1" stop-color="#444D9D" stop-opacity="0.41"/>
</linearGradient>
<linearGradient id="paint1_linear_214_12118" x1="124.397" y1="67.0182" x2="124.397" y2="178.255" gradientUnits="userSpaceOnUse">
<stop stop-color="#E8DEF8"/>
<stop offset="1" stop-color="#7EBCB9"/>
</linearGradient>
<linearGradient id="paint2_linear_214_12118" x1="155.668" y1="54.5818" x2="155.668" y2="105.026" gradientUnits="userSpaceOnUse">
<stop stop-color="#76659A"/>
<stop offset="1" stop-color="#230F4F"/>
</linearGradient>
</defs>
</svg>
