<svg width="290" height="220" viewBox="0 0 290 220" fill="none" xmlns="http://www.w3.org/2000/svg">
<mask id="path-1-inside-1_214_12108" fill="white">
<path fill-rule="evenodd" clip-rule="evenodd" d="M155.584 64.7802L148.499 3.94945C148.259 1.88741 146.617 0.875104 145 0.912512C143.384 0.87485 141.741 1.88716 141.501 3.94943L134.416 64.7802L111.842 7.87642C110.338 4.08592 104.658 5.60855 105.25 9.64335L114.194 70.5695L77.4505 21.1594C75.0172 17.8872 69.9246 20.8285 71.5407 24.5726L95.9341 81.0864L47.6842 42.893C44.487 40.3621 40.3294 44.5212 42.8593 47.7195L81.0647 96.0193L24.5252 71.5972C20.7819 69.9804 17.8424 75.0736 21.1138 77.5081L70.5003 114.26L9.61536 105.316C5.58108 104.723 4.05958 110.404 7.84959 111.908L65.0734 134.626L3.93756 141.751C-0.112659 142.224 -0.112647 148.104 3.93757 148.576L65.0651 155.701L7.83737 178.42C4.04736 179.925 5.5688 185.605 9.60308 185.012L70.5097 176.065L21.1186 212.82C17.8472 215.255 20.7867 220.348 24.53 218.731L130.058 173.148C130.841 173.846 131.931 174.179 133.034 173.953C133.867 175.306 135.483 175.87 136.925 175.446C137.945 176.469 139.55 176.772 140.907 176.083C142.057 177.139 143.732 177.259 145 176.495C146.268 177.259 147.943 177.139 149.093 176.083C150.451 176.772 152.055 176.469 153.076 175.447C154.517 175.87 156.133 175.306 156.966 173.953C158.069 174.179 159.16 173.846 159.942 173.148L265.47 218.731C269.213 220.348 272.153 215.255 268.882 212.82L219.491 176.065L280.397 185.012C284.431 185.605 285.953 179.924 282.163 178.42L224.935 155.701L286.063 148.576C290.113 148.104 290.113 142.224 286.063 141.751L224.927 134.626L282.151 111.908C285.941 110.404 284.419 104.723 280.385 105.316L219.5 114.26L268.886 77.5081C272.158 75.0736 269.218 69.9803 265.475 71.5972L208.935 96.0193L247.141 47.7195C249.671 44.5212 245.513 40.3621 242.316 42.8929L194.066 81.0864L218.459 24.5726C220.076 20.8285 214.983 17.8872 212.55 21.1594L175.806 70.5695L184.75 9.64334C185.343 5.60854 179.662 4.08591 178.158 7.87641L155.584 64.7802Z"/>
</mask>
<path fill-rule="evenodd" clip-rule="evenodd" d="M155.584 64.7802L148.499 3.94945C148.259 1.88741 146.617 0.875104 145 0.912512C143.384 0.87485 141.741 1.88716 141.501 3.94943L134.416 64.7802L111.842 7.87642C110.338 4.08592 104.658 5.60855 105.25 9.64335L114.194 70.5695L77.4505 21.1594C75.0172 17.8872 69.9246 20.8285 71.5407 24.5726L95.9341 81.0864L47.6842 42.893C44.487 40.3621 40.3294 44.5212 42.8593 47.7195L81.0647 96.0193L24.5252 71.5972C20.7819 69.9804 17.8424 75.0736 21.1138 77.5081L70.5003 114.26L9.61536 105.316C5.58108 104.723 4.05958 110.404 7.84959 111.908L65.0734 134.626L3.93756 141.751C-0.112659 142.224 -0.112647 148.104 3.93757 148.576L65.0651 155.701L7.83737 178.42C4.04736 179.925 5.5688 185.605 9.60308 185.012L70.5097 176.065L21.1186 212.82C17.8472 215.255 20.7867 220.348 24.53 218.731L130.058 173.148C130.841 173.846 131.931 174.179 133.034 173.953C133.867 175.306 135.483 175.87 136.925 175.446C137.945 176.469 139.55 176.772 140.907 176.083C142.057 177.139 143.732 177.259 145 176.495C146.268 177.259 147.943 177.139 149.093 176.083C150.451 176.772 152.055 176.469 153.076 175.447C154.517 175.87 156.133 175.306 156.966 173.953C158.069 174.179 159.16 173.846 159.942 173.148L265.47 218.731C269.213 220.348 272.153 215.255 268.882 212.82L219.491 176.065L280.397 185.012C284.431 185.605 285.953 179.924 282.163 178.42L224.935 155.701L286.063 148.576C290.113 148.104 290.113 142.224 286.063 141.751L224.927 134.626L282.151 111.908C285.941 110.404 284.419 104.723 280.385 105.316L219.5 114.26L268.886 77.5081C272.158 75.0736 269.218 69.9803 265.475 71.5972L208.935 96.0193L247.141 47.7195C249.671 44.5212 245.513 40.3621 242.316 42.8929L194.066 81.0864L218.459 24.5726C220.076 20.8285 214.983 17.8872 212.55 21.1594L175.806 70.5695L184.75 9.64334C185.343 5.60854 179.662 4.08591 178.158 7.87641L155.584 64.7802Z" fill="url(#paint0_linear_214_12108)"/>
<path d="M148.499 3.94945L147.134 4.10842L147.134 4.10842L148.499 3.94945ZM155.584 64.7802L154.219 64.9392L156.861 65.287L155.584 64.7802ZM145 0.912512L144.968 2.28629L145 2.28704L145.032 2.2863L145 0.912512ZM141.501 3.94943L140.136 3.79045L140.136 3.79046L141.501 3.94943ZM134.416 64.7802L133.139 65.287L135.781 64.9392L134.416 64.7802ZM111.842 7.87642L110.564 8.38314L110.564 8.38314L111.842 7.87642ZM105.25 9.64335L103.89 9.84293L103.89 9.84293L105.25 9.64335ZM114.194 70.5695L113.091 71.3895L115.553 70.3699L114.194 70.5695ZM77.4505 21.1594L76.3478 21.9794L76.3478 21.9794L77.4505 21.1594ZM71.5407 24.5726L72.8024 24.028L72.8024 24.028L71.5407 24.5726ZM95.9341 81.0864L95.0812 82.1638L97.1957 80.5418L95.9341 81.0864ZM47.6842 42.893L46.8313 43.9704L46.8313 43.9704L47.6842 42.893ZM42.8593 47.7195L41.7816 48.572L41.7816 48.572L42.8593 47.7195ZM81.0647 96.0193L80.5198 97.2808L82.1425 95.1668L81.0647 96.0193ZM24.5252 71.5972L25.0701 70.3357L25.0701 70.3357L24.5252 71.5972ZM21.1138 77.5081L21.9342 76.4057L21.9342 76.4057L21.1138 77.5081ZM70.5003 114.26L70.3005 115.62L71.3206 113.158L70.5003 114.26ZM9.61536 105.316L9.81508 103.956L9.81508 103.956L9.61536 105.316ZM7.84959 111.908L7.34255 113.185L7.84959 111.908ZM65.0734 134.626L65.2325 135.991L65.5805 133.349L65.0734 134.626ZM3.93756 141.751L3.77847 140.387L3.93756 141.751ZM3.93757 148.576L3.77849 149.941L3.77849 149.941L3.93757 148.576ZM65.0651 155.701L65.5721 156.978L65.2242 154.336L65.0651 155.701ZM7.83737 178.42L8.3444 179.697L8.34441 179.697L7.83737 178.42ZM9.60308 185.012L9.8028 186.372L9.8028 186.372L9.60308 185.012ZM70.5097 176.065L71.3301 177.167L70.3099 174.705L70.5097 176.065ZM21.1186 212.82L20.2983 211.718L20.2983 211.718L21.1186 212.82ZM24.53 218.731L23.9851 217.469L23.9851 217.469L24.53 218.731ZM130.058 173.148L130.973 172.123L130.319 171.539L129.514 171.887L130.058 173.148ZM133.034 173.953L134.204 173.232L133.7 172.414L132.758 172.607L133.034 173.953ZM136.925 175.446L137.897 174.475L137.32 173.898L136.537 174.128L136.925 175.446ZM140.907 176.083L141.837 175.071L141.135 174.426L140.285 174.858L140.907 176.083ZM145 176.495L145.709 175.318L145 174.891L144.291 175.318L145 176.495ZM149.093 176.083L149.715 174.858L148.865 174.426L148.163 175.071L149.093 176.083ZM153.076 175.447L153.463 174.128L152.68 173.898L152.103 174.475L153.076 175.447ZM156.966 173.953L157.243 172.607L156.301 172.414L155.796 173.232L156.966 173.953ZM159.942 173.148L160.487 171.887L159.682 171.539L159.027 172.123L159.942 173.148ZM265.47 218.731L266.015 217.469L266.015 217.469L265.47 218.731ZM268.882 212.82L269.702 211.718L269.702 211.718L268.882 212.82ZM219.491 176.065L219.69 174.705L218.67 177.167L219.491 176.065ZM280.397 185.012L280.597 183.653L280.597 183.653L280.397 185.012ZM282.163 178.42L281.656 179.697L281.656 179.697L282.163 178.42ZM224.935 155.701L224.776 154.336L224.428 156.978L224.935 155.701ZM286.063 148.576L286.222 149.941L286.222 149.941L286.063 148.576ZM286.063 141.751L285.904 143.116L285.904 143.116L286.063 141.751ZM224.927 134.626L224.42 133.349L224.768 135.991L224.927 134.626ZM282.151 111.908L281.644 110.631L281.644 110.631L282.151 111.908ZM280.385 105.316L280.585 106.675L280.585 106.675L280.385 105.316ZM219.5 114.26L218.68 113.158L219.7 115.62L219.5 114.26ZM268.886 77.5081L269.707 78.6105L269.707 78.6105L268.886 77.5081ZM265.475 71.5972L264.93 70.3357L264.93 70.3357L265.475 71.5972ZM208.935 96.0193L207.858 95.1668L209.48 97.2808L208.935 96.0193ZM247.141 47.7195L246.063 46.867L246.063 46.867L247.141 47.7195ZM242.316 42.8929L243.169 43.9704L243.169 43.9704L242.316 42.8929ZM194.066 81.0864L192.804 80.5418L194.919 82.1638L194.066 81.0864ZM218.459 24.5726L217.198 24.028L217.198 24.028L218.459 24.5726ZM212.55 21.1594L211.447 20.3394L211.447 20.3394L212.55 21.1594ZM175.806 70.5695L174.447 70.3699L176.909 71.3895L175.806 70.5695ZM184.75 9.64334L183.391 9.44376L183.391 9.44376L184.75 9.64334ZM178.158 7.87641L179.436 8.38313L179.436 8.38313L178.158 7.87641ZM147.134 4.10842L154.219 64.9392L156.949 64.6213L149.864 3.79047L147.134 4.10842ZM145.032 2.2863C146.063 2.26244 146.99 2.86776 147.134 4.10842L149.864 3.79048C149.528 0.907071 147.171 -0.512235 144.969 -0.461275L145.032 2.2863ZM145.032 -0.46127C142.83 -0.512574 140.472 0.90665 140.136 3.79045L142.866 4.10841C143.011 2.86766 143.937 2.26227 144.968 2.28629L145.032 -0.46127ZM140.136 3.79046L133.051 64.6213L135.781 64.9392L142.866 4.10841L140.136 3.79046ZM110.564 8.38314L133.139 65.287L135.693 64.2735L113.119 7.3697L110.564 8.38314ZM106.609 9.44377C106.254 7.02008 109.663 6.11148 110.564 8.38314L113.119 7.3697C111.013 2.06037 103.061 4.19702 103.89 9.84293L106.609 9.44377ZM115.553 70.3699L106.609 9.44377L103.89 9.84293L112.834 70.7691L115.553 70.3699ZM76.3478 21.9794L113.091 71.3895L115.296 69.7495L78.5532 20.3394L76.3478 21.9794ZM72.8024 24.028C71.8308 21.777 74.8908 20.02 76.3478 21.9794L78.5532 20.3394C75.1436 15.7544 68.0185 19.8799 70.2791 25.1172L72.8024 24.028ZM97.1957 80.5418L72.8024 24.028L70.2791 25.1172L94.6724 81.6309L97.1957 80.5418ZM46.8313 43.9704L95.0812 82.1638L96.7869 80.0089L48.5371 41.8155L46.8313 43.9704ZM43.9371 46.867C42.4156 44.9436 44.9175 42.4554 46.8313 43.9704L48.5371 41.8155C44.0566 38.2688 38.2432 44.0988 41.7816 48.572L43.9371 46.867ZM82.1425 95.1668L43.9371 46.867L41.7816 48.572L79.987 96.8718L82.1425 95.1668ZM23.9803 72.8587L80.5198 97.2808L81.6096 94.7578L25.0701 70.3357L23.9803 72.8587ZM21.9342 76.4057C19.9673 74.942 21.7389 71.8906 23.9803 72.8588L25.0701 70.3357C19.8248 68.0701 15.7175 75.2052 20.2934 78.6105L21.9342 76.4057ZM71.3206 113.158L21.9342 76.4057L20.2934 78.6105L69.6799 115.363L71.3206 113.158ZM9.41563 106.676L70.3005 115.62L70.7 112.901L9.81508 103.956L9.41563 106.676ZM8.35663 110.631C6.08005 109.727 6.9978 106.32 9.41563 106.676L9.81508 103.956C4.16436 103.126 2.03911 111.08 7.34255 113.185L8.35663 110.631ZM65.5805 133.349L8.35663 110.631L7.34255 113.185L64.5664 135.903L65.5805 133.349ZM4.09665 143.116L65.2325 135.991L64.9143 133.261L3.77847 140.387L4.09665 143.116ZM4.09666 147.211C1.6665 146.928 1.66655 143.4 4.09665 143.116L3.77847 140.387C-1.89187 141.047 -1.89179 149.28 3.77849 149.941L4.09666 147.211ZM65.2242 154.336L4.09666 147.211L3.77849 149.941L64.906 157.066L65.2242 154.336ZM8.34441 179.697L65.5721 156.978L64.558 154.424L7.33033 177.143L8.34441 179.697ZM9.40335 183.653C6.98566 184.008 6.0677 180.601 8.3444 179.697L7.33033 177.143C2.02702 179.248 4.15194 187.202 9.8028 186.372L9.40335 183.653ZM70.3099 174.705L9.40335 183.653L9.8028 186.372L70.7094 177.424L70.3099 174.705ZM21.939 213.923L71.3301 177.167L69.6893 174.962L20.2983 211.718L21.939 213.923ZM23.9851 217.469C21.7436 218.438 19.9723 215.386 21.939 213.923L20.2983 211.718C15.7222 215.123 19.8299 222.258 25.075 219.992L23.9851 217.469ZM129.514 171.887L23.9851 217.469L25.0749 219.992L130.603 174.41L129.514 171.887ZM132.758 172.607C132.1 172.742 131.447 172.545 130.973 172.123L129.144 174.174C130.235 175.147 131.763 175.617 133.31 175.299L132.758 172.607ZM131.864 174.674C133.033 176.572 135.296 177.357 137.312 176.765L136.537 174.128C135.67 174.383 134.702 174.041 134.204 173.232L131.864 174.674ZM140.285 174.858C139.475 175.269 138.511 175.091 137.897 174.475L135.952 176.418C137.38 177.847 139.624 178.276 141.529 177.308L140.285 174.858ZM139.978 177.095C141.591 178.577 143.936 178.74 145.709 177.672L144.291 175.318C143.529 175.777 142.523 175.701 141.837 175.071L139.978 177.095ZM148.163 175.071C147.477 175.701 146.471 175.777 145.709 175.318L144.291 177.672C146.064 178.74 148.409 178.577 150.023 177.095L148.163 175.071ZM148.471 177.308C150.376 178.276 152.621 177.847 154.048 176.418L152.103 174.475C151.489 175.091 150.525 175.269 149.715 174.858L148.471 177.308ZM155.796 173.232C155.299 174.041 154.33 174.383 153.463 174.128L152.688 176.765C154.704 177.357 156.967 176.572 158.136 174.674L155.796 173.232ZM156.69 175.299C158.238 175.617 159.765 175.147 160.856 174.174L159.027 172.123C158.554 172.545 157.9 172.742 157.243 172.607L156.69 175.299ZM159.397 174.41L264.925 219.992L266.015 217.469L160.487 171.887L159.397 174.41ZM264.925 219.992C270.17 222.258 274.278 215.123 269.702 211.718L268.061 213.923C270.028 215.386 268.257 218.438 266.015 217.469L264.925 219.992ZM269.702 211.718L220.311 174.962L218.67 177.167L268.061 213.923L269.702 211.718ZM219.291 177.424L280.197 186.372L280.597 183.653L219.69 174.705L219.291 177.424ZM280.197 186.372C285.848 187.202 287.973 179.248 282.67 177.143L281.656 179.697C283.933 180.601 283.015 184.008 280.597 183.653L280.197 186.372ZM282.67 177.143L225.442 154.424L224.428 156.978L281.656 179.697L282.67 177.143ZM225.094 157.066L286.222 149.941L285.904 147.211L224.776 154.336L225.094 157.066ZM286.222 149.941C291.892 149.28 291.892 141.047 286.222 140.387L285.904 143.116C288.334 143.4 288.334 146.928 285.904 147.211L286.222 149.941ZM286.222 140.387L225.086 133.261L224.768 135.991L285.904 143.116L286.222 140.387ZM225.434 135.903L282.658 113.185L281.644 110.631L224.42 133.349L225.434 135.903ZM282.658 113.185C287.961 111.08 285.836 103.126 280.185 103.956L280.585 106.675C283.002 106.32 283.92 109.727 281.644 110.631L282.658 113.185ZM280.185 103.956L219.3 112.901L219.7 115.62L280.585 106.675L280.185 103.956ZM220.32 115.363L269.707 78.6105L268.066 76.4057L218.68 113.158L220.32 115.363ZM269.707 78.6105C274.283 75.2051 270.175 68.0701 264.93 70.3357L266.02 72.8587C268.261 71.8906 270.033 74.942 268.066 76.4057L269.707 78.6105ZM264.93 70.3357L208.391 94.7578L209.48 97.2808L266.02 72.8587L264.93 70.3357ZM210.013 96.8718L248.219 48.572L246.063 46.867L207.858 95.1668L210.013 96.8718ZM248.219 48.572C251.757 44.0988 245.944 38.2688 241.463 41.8155L243.169 43.9704C245.083 42.4554 247.585 44.9436 246.063 46.867L248.219 48.572ZM241.463 41.8155L193.213 80.0089L194.919 82.1638L243.169 43.9704L241.463 41.8155ZM195.328 81.6309L219.721 25.1172L217.198 24.028L192.804 80.5418L195.328 81.6309ZM219.721 25.1172C221.982 19.8799 214.857 15.7544 211.447 20.3394L213.652 21.9794C215.109 20.02 218.169 21.777 217.198 24.028L219.721 25.1172ZM211.447 20.3394L174.704 69.7495L176.909 71.3895L213.652 21.9794L211.447 20.3394ZM177.166 70.7691L186.11 9.84293L183.391 9.44376L174.447 70.3699L177.166 70.7691ZM186.11 9.84293C186.939 4.19702 178.987 2.06035 176.881 7.36969L179.436 8.38313C180.337 6.11147 183.747 7.02007 183.391 9.44376L186.11 9.84293ZM176.881 7.36969L154.307 64.2735L156.861 65.287L179.436 8.38313L176.881 7.36969Z" fill="#E49E18" mask="url(#path-1-inside-1_214_12108)"/>
<mask id="path-3-inside-2_214_12108" fill="white">
<path fill-rule="evenodd" clip-rule="evenodd" d="M123.248 102.446C102.947 102.446 86.4893 118.903 86.4893 139.204V139.688V176.241V176.724C86.4893 197.025 102.947 213.483 123.248 213.483H180.721C201.022 213.483 217.48 197.025 217.48 176.724V165.797C217.48 151.578 206.113 140.014 191.971 139.695V131.99C191.971 115.673 178.744 102.446 162.427 102.446H123.248Z"/>
</mask>
<path fill-rule="evenodd" clip-rule="evenodd" d="M123.248 102.446C102.947 102.446 86.4893 118.903 86.4893 139.204V139.688V176.241V176.724C86.4893 197.025 102.947 213.483 123.248 213.483H180.721C201.022 213.483 217.48 197.025 217.48 176.724V165.797C217.48 151.578 206.113 140.014 191.971 139.695V131.99C191.971 115.673 178.744 102.446 162.427 102.446H123.248Z" fill="url(#paint1_linear_214_12108)"/>
<path d="M191.971 139.695H190.597V141.038L191.94 141.068L191.971 139.695ZM87.8634 139.204C87.8634 119.662 103.706 103.82 123.248 103.82V101.072C102.188 101.072 85.1151 118.144 85.1151 139.204H87.8634ZM87.8634 139.688V139.204H85.1151V139.688H87.8634ZM87.8634 176.241V139.688H85.1151V176.241H87.8634ZM87.8634 176.724V176.241H85.1151V176.724H87.8634ZM123.248 212.109C103.706 212.109 87.8634 196.266 87.8634 176.724H85.1151C85.1151 197.784 102.188 214.857 123.248 214.857V212.109ZM180.721 212.109H123.248V214.857H180.721V212.109ZM216.105 176.724C216.105 196.266 200.263 212.109 180.721 212.109V214.857C201.781 214.857 218.854 197.784 218.854 176.724H216.105ZM216.105 165.797V176.724H218.854V165.797H216.105ZM191.94 141.068C205.337 141.371 216.105 152.326 216.105 165.797H218.854C218.854 150.829 206.889 138.657 192.002 138.321L191.94 141.068ZM190.597 131.99V139.695H193.345V131.99H190.597ZM162.427 103.82C177.985 103.82 190.597 116.432 190.597 131.99H193.345C193.345 114.914 179.502 101.072 162.427 101.072V103.82ZM123.248 103.82H162.427V101.072H123.248V103.82Z" fill="#A898C1" mask="url(#path-3-inside-2_214_12108)"/>
<mask id="mask0_214_12108" style="mask-type:alpha" maskUnits="userSpaceOnUse" x="104" y="109" width="42" height="70">
<rect x="104.413" y="109.968" width="41.3654" height="68.9671" rx="20.6827" fill="#D9D9D9"/>
</mask>
<g mask="url(#mask0_214_12108)">
<rect x="104.413" y="145.141" width="41.3654" height="33.7939" fill="#F8F8F8"/>
</g>
<mask id="mask1_214_12108" style="mask-type:alpha" maskUnits="userSpaceOnUse" x="104" y="145" width="42" height="34">
<mask id="mask2_214_12108" style="mask-type:alpha" maskUnits="userSpaceOnUse" x="104" y="109" width="42" height="70">
<rect x="104.413" y="109.968" width="41.3654" height="68.9671" rx="20.6827" fill="#D9D9D9"/>
</mask>
<g mask="url(#mask2_214_12108)">
<rect x="104.413" y="145.141" width="41.3654" height="33.7939" fill="#D9D9D9"/>
</g>
</mask>
<g mask="url(#mask1_214_12108)">
<ellipse cx="122.683" cy="154.797" rx="13.4437" ry="20.6901" fill="#191919"/>
</g>
<ellipse cx="128.543" cy="164.452" rx="3.44711" ry="3.44836" fill="#F8F8F8"/>
<rect x="104.413" y="144.452" width="41.3654" height="1.37934" fill="black"/>
<mask id="mask3_214_12108" style="mask-type:alpha" maskUnits="userSpaceOnUse" x="157" y="109" width="42" height="70">
<rect x="157.499" y="109.968" width="41.3654" height="68.9671" rx="20.6827" fill="#D9D9D9"/>
</mask>
<g mask="url(#mask3_214_12108)">
<rect x="157.499" y="145.141" width="41.3654" height="33.7939" fill="#F8F8F8"/>
</g>
<mask id="mask4_214_12108" style="mask-type:alpha" maskUnits="userSpaceOnUse" x="157" y="145" width="42" height="34">
<mask id="mask5_214_12108" style="mask-type:alpha" maskUnits="userSpaceOnUse" x="157" y="109" width="42" height="70">
<rect x="157.499" y="109.968" width="41.3654" height="68.9671" rx="20.6827" fill="#D9D9D9"/>
</mask>
<g mask="url(#mask5_214_12108)">
<rect x="157.499" y="145.141" width="41.3654" height="33.7939" fill="#D9D9D9"/>
</g>
</mask>
<g mask="url(#mask4_214_12108)">
<ellipse cx="175.079" cy="154.797" rx="13.4437" ry="20.6901" fill="#191919"/>
</g>
<ellipse cx="181.628" cy="164.452" rx="3.44711" ry="3.44836" fill="#F8F8F8"/>
<rect x="157.499" y="144.452" width="41.3654" height="1.37934" fill="black"/>
<path fill-rule="evenodd" clip-rule="evenodd" d="M261.224 98.2518C188.256 97.7071 157.493 124.811 151.433 136.359C150.659 137.834 149.179 138.806 147.517 138.929C145.856 139.053 144.249 138.31 143.265 136.966C141.678 134.795 138.975 132.423 135.31 129.985C131.696 127.581 127.401 125.28 122.884 123.17C113.846 118.947 104.265 115.652 98.2584 113.927C95.6966 113.191 94.2159 110.518 94.9512 107.955C95.6866 105.392 98.3595 103.911 100.921 104.646C107.324 106.485 117.392 109.948 126.968 114.421C131.759 116.659 136.512 119.19 140.654 121.945C142.729 123.325 144.719 124.806 146.509 126.385C159.255 110.225 194.435 88.0975 261.296 88.5967C263.961 88.6166 266.105 90.7941 266.085 93.4603C266.066 96.1265 263.889 98.2717 261.224 98.2518Z" fill="url(#paint2_linear_214_12108)" stroke="#3E374B" stroke-width="1.37415" stroke-linecap="round" stroke-linejoin="round"/>
<defs>
<linearGradient id="paint0_linear_214_12108" x1="145" y1="0.911499" x2="145" y2="219.042" gradientUnits="userSpaceOnUse">
<stop stop-color="#FFBA33"/>
<stop offset="1" stop-color="#DDAB4C" stop-opacity="0.26"/>
</linearGradient>
<linearGradient id="paint1_linear_214_12108" x1="151.984" y1="102.446" x2="151.984" y2="213.483" gradientUnits="userSpaceOnUse">
<stop stop-color="#E8DEF8"/>
<stop offset="1" stop-color="#7EBCB9"/>
</linearGradient>
<linearGradient id="paint2_linear_214_12108" x1="180.424" y1="88.5884" x2="180.424" y2="138.943" gradientUnits="userSpaceOnUse">
<stop stop-color="#76659A"/>
<stop offset="1" stop-color="#230F4F"/>
</linearGradient>
</defs>
</svg>
