<svg width="244" height="190" viewBox="0 0 244 190" fill="none" xmlns="http://www.w3.org/2000/svg">
<path fill-rule="evenodd" clip-rule="evenodd" d="M121.911 115.452C119.039 118.382 115.902 121.063 112.538 123.456C97.3212 136.843 82.6057 147.312 69.8559 156.383C52.2287 168.923 38.3587 178.791 32.1158 190C-2.68801 151.41 -3.082 83.9441 2.93389 55.7573C8.92918 24.0307 37.3649 0 71.5394 0C91.339 0 109.212 8.06637 121.911 21.0224C134.61 8.06637 152.483 0 172.283 0C206.461 0 234.899 24.0354 240.89 55.7667C246.904 83.959 246.506 151.414 211.706 190C205.463 178.791 191.594 168.923 173.966 156.383C161.216 147.312 146.5 136.842 131.283 123.455C127.92 121.062 124.783 118.382 121.911 115.452Z" fill="url(#paint0_linear_214_12107)"/>
<mask id="path-2-inside-1_214_12107" fill="white">
<path fill-rule="evenodd" clip-rule="evenodd" d="M95.4588 64.2546C75.1576 64.2546 58.7002 80.7121 58.7002 101.013V101.564V138.182V138.732C58.7002 159.034 75.1576 175.491 95.4588 175.491H153.153C173.454 175.491 189.912 159.034 189.912 138.732V127.673C189.912 113.439 178.522 101.866 164.36 101.57V93.799C164.36 77.4821 151.132 64.2546 134.816 64.2546H95.4588Z"/>
</mask>
<path fill-rule="evenodd" clip-rule="evenodd" d="M95.4588 64.2546C75.1576 64.2546 58.7002 80.7121 58.7002 101.013V101.564V138.182V138.732C58.7002 159.034 75.1576 175.491 95.4588 175.491H153.153C173.454 175.491 189.912 159.034 189.912 138.732V127.673C189.912 113.439 178.522 101.866 164.36 101.57V93.799C164.36 77.4821 151.132 64.2546 134.816 64.2546H95.4588Z" fill="url(#paint1_linear_214_12107)"/>
<path d="M164.36 101.57H162.986V102.915L164.331 102.943L164.36 101.57ZM60.0744 101.013C60.0744 81.471 75.9165 65.6288 95.4588 65.6288V62.8805C74.3987 62.8805 57.326 79.9531 57.326 101.013H60.0744ZM60.0744 101.564V101.013H57.326V101.564H60.0744ZM60.0744 138.182V101.564H57.326V138.182H60.0744ZM60.0744 138.732V138.182H57.326V138.732H60.0744ZM95.4588 174.117C75.9165 174.117 60.0744 158.275 60.0744 138.732H57.326C57.326 159.793 74.3986 176.865 95.4588 176.865V174.117ZM153.153 174.117H95.4588V176.865H153.153V174.117ZM188.537 138.732C188.537 158.275 172.695 174.117 153.153 174.117V176.865C174.213 176.865 191.286 159.793 191.286 138.732H188.537ZM188.537 127.673V138.732H191.286V127.673H188.537ZM164.331 102.943C177.747 103.224 188.537 114.189 188.537 127.673H191.286C191.286 112.69 179.297 100.508 164.389 100.196L164.331 102.943ZM162.986 93.799V101.57H165.734V93.799H162.986ZM134.816 65.6288C150.373 65.6288 162.986 78.241 162.986 93.799H165.734C165.734 76.7232 151.891 62.8805 134.816 62.8805V65.6288ZM95.4588 65.6288H134.816V62.8805H95.4588V65.6288Z" fill="#A898C1" mask="url(#path-2-inside-1_214_12107)"/>
<mask id="mask0_214_12107" style="mask-type:alpha" maskUnits="userSpaceOnUse" x="74" y="71" width="43" height="70">
<rect x="74.583" y="71.8545" width="41.4352" height="69.0909" rx="20.7176" fill="#D9D9D9"/>
</mask>
<g mask="url(#mask0_214_12107)">
<rect x="74.583" y="107.091" width="41.4352" height="33.8545" fill="#F8F8F8"/>
</g>
<mask id="mask1_214_12107" style="mask-type:alpha" maskUnits="userSpaceOnUse" x="74" y="107" width="43" height="34">
<mask id="mask2_214_12107" style="mask-type:alpha" maskUnits="userSpaceOnUse" x="74" y="71" width="43" height="70">
<rect x="74.583" y="71.8545" width="41.4352" height="69.0909" rx="20.7176" fill="#D9D9D9"/>
</mask>
<g mask="url(#mask2_214_12107)">
<rect x="74.583" y="107.091" width="41.4352" height="33.8545" fill="#D9D9D9"/>
</g>
</mask>
<g mask="url(#mask1_214_12107)">
<ellipse cx="92.8834" cy="116.764" rx="13.4664" ry="20.7273" fill="#191919"/>
</g>
<ellipse cx="98.7537" cy="126.436" rx="3.45293" ry="3.45454" fill="#F8F8F8"/>
<rect x="74.583" y="106.4" width="41.4352" height="1.38182" fill="black"/>
<mask id="mask3_214_12107" style="mask-type:alpha" maskUnits="userSpaceOnUse" x="127" y="71" width="43" height="70">
<rect x="127.758" y="71.8545" width="41.4352" height="69.0909" rx="20.7176" fill="#D9D9D9"/>
</mask>
<g mask="url(#mask3_214_12107)">
<rect x="127.758" y="107.091" width="41.4352" height="33.8545" fill="#F8F8F8"/>
</g>
<mask id="mask4_214_12107" style="mask-type:alpha" maskUnits="userSpaceOnUse" x="127" y="107" width="43" height="34">
<mask id="mask5_214_12107" style="mask-type:alpha" maskUnits="userSpaceOnUse" x="127" y="71" width="43" height="70">
<rect x="127.758" y="71.8545" width="41.4352" height="69.0909" rx="20.7176" fill="#D9D9D9"/>
</mask>
<g mask="url(#mask5_214_12107)">
<rect x="127.758" y="107.091" width="41.4352" height="33.8545" fill="#D9D9D9"/>
</g>
</mask>
<g mask="url(#mask4_214_12107)">
<ellipse cx="145.368" cy="116.764" rx="13.4664" ry="20.7273" fill="#191919"/>
</g>
<ellipse cx="151.929" cy="126.436" rx="3.45293" ry="3.45454" fill="#F8F8F8"/>
<rect x="127.758" y="106.4" width="41.4352" height="1.38182" fill="black"/>
<path fill-rule="evenodd" clip-rule="evenodd" d="M230.664 60.2247C208.984 83.4635 192.689 90.4011 177.725 92.0247L177.59 92.0394L177.456 92.0616C165.115 94.1073 155.689 92.3863 148.408 88.9693C144.491 87.1311 141.103 84.7582 138.163 82.0918C138.968 80.8847 139.761 79.6274 140.54 78.3195C144.604 71.4949 144.049 63.8148 141.164 58.1403C138.398 52.7021 132.591 47.7357 125.414 49.078C119.066 50.2653 116.326 55.984 116.334 61.6079C116.341 67.2148 118.817 73.8159 123.679 80.3753C124.278 81.1822 124.904 81.9897 125.559 82.7935C118.141 91.474 110.57 94.8725 104.212 95.2008C95.9083 95.6296 88.2153 90.9182 83.6925 82.8598C82.3854 80.5308 79.4386 79.7029 77.1107 81.0106C74.7828 82.3184 73.9553 85.2666 75.2624 87.5956C81.2715 98.3023 92.1398 105.51 104.711 104.861C114.133 104.374 123.698 99.5285 132.274 89.7985C135.703 92.8175 139.683 95.5584 144.303 97.7265C153.48 102.034 164.866 103.929 178.903 101.626C196.719 99.6605 214.986 91.2054 237.732 66.8248C239.554 64.8722 239.449 61.8118 237.497 59.9892C235.545 58.1666 232.486 58.2721 230.664 60.2247ZM131.463 74.6373C131.457 74.6292 131.451 74.6212 131.445 74.6132C127.384 69.1354 126.006 64.5085 126.002 61.5951C125.998 58.7804 127.029 58.6124 127.18 58.5879C127.184 58.5872 127.188 58.5866 127.191 58.5861C128.499 58.3414 130.839 59.1683 132.547 62.5265C134.134 65.6482 134.379 69.7675 132.234 73.3681C131.978 73.7987 131.721 74.2217 131.463 74.6373Z" fill="url(#paint2_linear_214_12107)" stroke="#4C2D37" stroke-width="1.37415" stroke-linecap="round"/>
<defs>
<linearGradient id="paint0_linear_214_12107" x1="121.911" y1="0" x2="121.911" y2="190" gradientUnits="userSpaceOnUse">
<stop stop-color="#A0AAFF"/>
<stop offset="1" stop-color="#444D9D" stop-opacity="0.41"/>
</linearGradient>
<linearGradient id="paint1_linear_214_12107" x1="124.306" y1="64.2546" x2="124.306" y2="175.491" gradientUnits="userSpaceOnUse">
<stop stop-color="#E8DEF8"/>
<stop offset="1" stop-color="#7EBCB9"/>
</linearGradient>
<linearGradient id="paint2_linear_214_12107" x1="162.54" y1="104.896" x2="151.199" y2="44.2556" gradientUnits="userSpaceOnUse">
<stop stop-color="#945E78"/>
<stop offset="1" stop-color="#431F2B"/>
</linearGradient>
</defs>
</svg>
