<svg width="244" height="200" viewBox="0 0 244 200" fill="none" xmlns="http://www.w3.org/2000/svg">
<path fill-rule="evenodd" clip-rule="evenodd" d="M122 114.063C119.126 116.958 115.986 119.606 112.62 121.97C97.3921 135.196 82.6661 145.539 69.9071 154.5L69.9069 154.5C52.2668 166.89 38.3867 176.639 32.1392 187.713C-2.69088 149.586 -3.08427 82.9302 2.93649 55.084C8.93706 23.7404 37.393 0 71.5915 0C91.4055 0 109.292 7.96922 122 20.7692C134.708 7.96922 152.594 0 172.408 0C206.606 0 235.061 23.7386 241.063 55.0805C247.084 82.9245 246.692 149.585 211.861 187.713C205.613 176.639 191.733 166.89 174.093 154.5C161.334 145.539 146.608 135.196 131.381 121.971C128.014 119.606 124.874 116.958 122 114.063Z" fill="url(#paint0_linear_214_12111)"/>
<mask id="path-2-inside-1_214_12111" fill="white">
<path fill-rule="evenodd" clip-rule="evenodd" d="M183.139 145.393C183.138 175.552 151.114 200 111.611 200C72.1071 200 40.083 175.552 40.083 145.393C40.083 124.582 55.3305 106.491 77.7618 97.2747C79.9815 83.1547 92.2027 72.3551 106.946 72.3551H146.38C166.681 72.3551 183.139 88.8125 183.139 109.114V145.393Z"/>
</mask>
<path fill-rule="evenodd" clip-rule="evenodd" d="M183.139 145.393C183.138 175.552 151.114 200 111.611 200C72.1071 200 40.083 175.552 40.083 145.393C40.083 124.582 55.3305 106.491 77.7618 97.2747C79.9815 83.1547 92.2027 72.3551 106.946 72.3551H146.38C166.681 72.3551 183.139 88.8125 183.139 109.114V145.393Z" fill="url(#paint1_linear_214_12111)"/>
<path d="M183.139 145.393L184.513 145.393V145.393H183.139ZM77.7618 97.2747L78.284 98.5457L78.9992 98.2519L79.1193 97.4881L77.7618 97.2747ZM181.764 145.393C181.764 159.953 174.037 173.231 161.355 182.914C148.671 192.597 131.088 198.626 111.611 198.626V201.374C131.637 201.374 149.818 195.179 163.022 185.098C176.228 175.017 184.513 160.991 184.513 145.393L181.764 145.393ZM111.611 198.626C92.1332 198.626 74.5507 192.597 61.8669 182.914C49.1842 173.231 41.4572 159.953 41.4572 145.393H38.7089C38.7089 160.991 46.9938 175.017 60.1991 185.098C73.4032 195.179 91.5846 201.374 111.611 201.374V198.626ZM41.4572 145.393C41.4572 125.313 56.1865 107.625 78.284 98.5457L77.2395 96.0036C54.4745 105.357 38.7089 123.852 38.7089 145.393H41.4572ZM79.1193 97.4881C81.2356 84.026 92.8897 73.7293 106.946 73.7293V70.9809C91.5157 70.9809 78.7275 82.2833 76.4043 97.0613L79.1193 97.4881ZM106.946 73.7293H146.38V70.9809H106.946V73.7293ZM146.38 73.7293C165.922 73.7293 181.764 89.5714 181.764 109.114H184.513C184.513 88.0536 167.44 70.9809 146.38 70.9809V73.7293ZM181.764 109.114V145.393H184.513V109.114H181.764Z" fill="#D3ACA9" mask="url(#path-2-inside-1_214_12111)"/>
<rect x="69.106" y="103.076" width="40.0912" height="52.5507" rx="20.0456" fill="#F8F8F8" stroke="#C6C6C6" stroke-width="1.37415"/>
<rect x="122.32" y="103.076" width="40.0912" height="52.5507" rx="20.0456" fill="#F8F8F8" stroke="#C6C6C6" stroke-width="1.37415"/>
<rect x="78.7852" y="113.311" width="26.9525" height="36.86" rx="13.4762" fill="#191919"/>
<rect x="131.999" y="113.311" width="26.9525" height="36.86" rx="13.4762" fill="#191919"/>
<ellipse cx="87.0785" cy="123.55" rx="3.45545" ry="3.41297" fill="#F8F8F8"/>
<ellipse cx="140.292" cy="123.55" rx="3.45545" ry="3.41297" fill="#F8F8F8"/>
<path fill-rule="evenodd" clip-rule="evenodd" d="M224.915 62.1243C151.771 61.5852 120.934 88.4111 114.859 99.8403C114.083 101.301 112.599 102.262 110.934 102.384C109.269 102.506 107.658 101.772 106.672 100.441C105.08 98.2925 102.371 95.9447 98.6971 93.5319C95.0743 91.1526 90.7685 88.8747 86.2413 86.7866C77.1807 82.6075 67.577 79.3457 61.5559 77.6386C58.9879 76.9106 57.5036 74.2641 58.2408 71.7277C58.9779 69.1912 61.6573 67.7252 64.2253 68.4532C70.6439 70.2729 80.7362 73.7005 90.335 78.1278C95.1376 80.3429 99.9023 82.8474 104.054 85.5741C106.134 86.94 108.129 88.406 109.923 89.9691C122.7 73.9742 157.965 52.0743 224.987 52.5683C227.659 52.588 229.808 54.7431 229.789 57.3819C229.769 60.0208 227.587 62.144 224.915 62.1243Z" fill="url(#paint2_linear_214_12111)" stroke="#3E374B" stroke-width="1.37415" stroke-linecap="round" stroke-linejoin="round"/>
<defs>
<linearGradient id="paint0_linear_214_12111" x1="122" y1="0" x2="122" y2="187.713" gradientUnits="userSpaceOnUse">
<stop stop-color="#A0AAFF"/>
<stop offset="1" stop-color="#444D9D" stop-opacity="0.41"/>
</linearGradient>
<linearGradient id="paint1_linear_214_12111" x1="111.611" y1="72.3551" x2="111.611" y2="200" gradientUnits="userSpaceOnUse">
<stop stop-color="#F9DEDC"/>
<stop offset="1" stop-color="#99578A"/>
</linearGradient>
<linearGradient id="paint2_linear_214_12111" x1="143.92" y1="52.5601" x2="143.92" y2="102.397" gradientUnits="userSpaceOnUse">
<stop stop-color="#76659A"/>
<stop offset="1" stop-color="#230F4F"/>
</linearGradient>
</defs>
</svg>
