<svg width="288" height="229" viewBox="0 0 288 229" fill="none" xmlns="http://www.w3.org/2000/svg">
<mask id="path-1-inside-1_214_12104" fill="white">
<path fill-rule="evenodd" clip-rule="evenodd" d="M154.584 63.7364L147.498 3.8947C147.255 1.83704 145.615 0.826901 144 0.864291C142.386 0.826729 140.746 1.83686 140.502 3.89469L133.416 63.7364L110.852 7.78802C109.328 4.0088 103.654 5.50483 104.254 9.52762L113.194 69.4309L76.5206 20.9219C74.0598 17.6669 68.953 20.5681 70.5874 24.2926L94.9343 79.7758L46.8744 42.3553C43.6509 39.8455 39.4592 43.9701 42.0099 47.142L80.0648 94.4642L23.864 70.5857C20.1014 68.9871 17.1217 74.0656 20.4099 76.4726L69.5005 112.407L9.07308 103.675C5.027 103.09 3.47852 108.777 7.27962 110.261L64.0736 132.439L3.43131 139.391C-0.627475 139.857 -0.627504 145.752 3.43128 146.217L64.0653 153.169L7.26738 175.349C3.46629 176.833 5.01472 182.519 9.0608 181.935L69.5098 173.2L20.4148 209.137C17.1265 211.544 20.1063 216.622 23.8689 215.024L129.078 170.323C129.861 171.009 130.943 171.338 132.035 171.121C132.885 172.445 134.499 172.997 135.936 172.583C136.963 173.581 138.557 173.882 139.908 173.216C141.063 174.242 142.732 174.357 144 173.612C145.269 174.357 146.938 174.242 148.093 173.216C149.443 173.882 151.037 173.581 152.065 172.583C153.502 172.997 155.115 172.445 155.965 171.121C157.058 171.338 158.139 171.009 158.922 170.323L264.132 215.024C267.894 216.622 270.874 211.544 267.586 209.137L218.491 173.2L278.94 181.934C282.986 182.519 284.534 176.833 280.733 175.348L223.935 153.169L284.569 146.217C288.628 145.752 288.628 139.857 284.569 139.391L223.927 132.439L280.721 110.261C284.522 108.777 282.974 103.09 278.927 103.675L218.5 112.407L267.591 76.4726C270.879 74.0656 267.899 68.9871 264.137 70.5857L207.936 94.4642L245.991 47.142C248.541 43.9701 244.35 39.8455 241.126 42.3553L193.066 79.7758L217.413 24.2926C219.048 20.568 213.941 17.6668 211.48 20.9219L174.807 69.4309L183.747 9.52762C184.347 5.50483 178.673 4.0088 177.149 7.78801L154.584 63.7364Z"/>
</mask>
<path fill-rule="evenodd" clip-rule="evenodd" d="M154.584 63.7364L147.498 3.8947C147.255 1.83704 145.615 0.826901 144 0.864291C142.386 0.826729 140.746 1.83686 140.502 3.89469L133.416 63.7364L110.852 7.78802C109.328 4.0088 103.654 5.50483 104.254 9.52762L113.194 69.4309L76.5206 20.9219C74.0598 17.6669 68.953 20.5681 70.5874 24.2926L94.9343 79.7758L46.8744 42.3553C43.6509 39.8455 39.4592 43.9701 42.0099 47.142L80.0648 94.4642L23.864 70.5857C20.1014 68.9871 17.1217 74.0656 20.4099 76.4726L69.5005 112.407L9.07308 103.675C5.027 103.09 3.47852 108.777 7.27962 110.261L64.0736 132.439L3.43131 139.391C-0.627475 139.857 -0.627504 145.752 3.43128 146.217L64.0653 153.169L7.26738 175.349C3.46629 176.833 5.01472 182.519 9.0608 181.935L69.5098 173.2L20.4148 209.137C17.1265 211.544 20.1063 216.622 23.8689 215.024L129.078 170.323C129.861 171.009 130.943 171.338 132.035 171.121C132.885 172.445 134.499 172.997 135.936 172.583C136.963 173.581 138.557 173.882 139.908 173.216C141.063 174.242 142.732 174.357 144 173.612C145.269 174.357 146.938 174.242 148.093 173.216C149.443 173.882 151.037 173.581 152.065 172.583C153.502 172.997 155.115 172.445 155.965 171.121C157.058 171.338 158.139 171.009 158.922 170.323L264.132 215.024C267.894 216.622 270.874 211.544 267.586 209.137L218.491 173.2L278.94 181.934C282.986 182.519 284.534 176.833 280.733 175.348L223.935 153.169L284.569 146.217C288.628 145.752 288.628 139.857 284.569 139.391L223.927 132.439L280.721 110.261C284.522 108.777 282.974 103.09 278.927 103.675L218.5 112.407L267.591 76.4726C270.879 74.0656 267.899 68.9871 264.137 70.5857L207.936 94.4642L245.991 47.142C248.541 43.9701 244.35 39.8455 241.126 42.3553L193.066 79.7758L217.413 24.2926C219.048 20.568 213.941 17.6668 211.48 20.9219L174.807 69.4309L183.747 9.52762C184.347 5.50483 178.673 4.0088 177.149 7.78801L154.584 63.7364Z" fill="url(#paint0_linear_214_12104)"/>
<path d="M147.498 3.8947L148.863 3.73312L148.863 3.73312L147.498 3.8947ZM154.584 63.7364L153.22 63.898L155.859 64.2504L154.584 63.7364ZM144 0.864291L143.969 2.23807L144 2.23882L144.032 2.23808L144 0.864291ZM140.502 3.89469L139.137 3.73311L139.137 3.73311L140.502 3.89469ZM133.416 63.7364L132.142 64.2504L134.781 63.898L133.416 63.7364ZM110.852 7.78802L109.577 8.302L109.577 8.302L110.852 7.78802ZM104.254 9.52762L105.613 9.32479L105.613 9.32479L104.254 9.52762ZM113.194 69.4309L112.098 70.2596L114.553 69.2281L113.194 69.4309ZM76.5206 20.9219L77.6168 20.0932L77.6168 20.0932L76.5206 20.9219ZM70.5874 24.2926L71.8457 23.7404L71.8457 23.7404L70.5874 24.2926ZM94.9343 79.7758L94.0901 80.86L96.1926 79.2236L94.9343 79.7758ZM46.8744 42.3553L46.0302 43.4396L46.0302 43.4396L46.8744 42.3553ZM42.0099 47.142L40.939 48.0031L40.939 48.0031L42.0099 47.142ZM80.0648 94.4642L79.5275 95.7289L81.1357 93.6031L80.0648 94.4642ZM23.864 70.5857L24.4013 69.321L24.4013 69.321L23.864 70.5857ZM20.4099 76.4726L19.5983 77.5814L19.5983 77.5814L20.4099 76.4726ZM69.5005 112.407L69.304 113.767L70.3121 111.298L69.5005 112.407ZM9.07308 103.675L8.87655 105.035L8.87656 105.035L9.07308 103.675ZM7.27962 110.261L7.77946 108.981L7.27962 110.261ZM64.0736 132.439L64.2301 133.804L64.5734 131.159L64.0736 132.439ZM3.43131 139.391L3.27479 138.026L3.27479 138.026L3.43131 139.391ZM3.43128 146.217L3.27476 147.583L3.27476 147.583L3.43128 146.217ZM64.0653 153.169L64.5652 154.449L64.2219 151.804L64.0653 153.169ZM7.26738 175.349L7.76723 176.629L7.76723 176.629L7.26738 175.349ZM9.0608 181.935L9.25732 183.295L9.25733 183.295L9.0608 181.935ZM69.5098 173.2L70.3215 174.309L69.3133 171.84L69.5098 173.2ZM20.4148 209.137L19.6031 208.028L19.6031 208.028L20.4148 209.137ZM23.8689 215.024L24.4062 216.289L24.4062 216.289L23.8689 215.024ZM129.078 170.323L129.984 169.289L129.335 168.721L128.541 169.058L129.078 170.323ZM132.035 171.121L133.191 170.379L132.685 169.592L131.768 169.774L132.035 171.121ZM135.936 172.583L136.893 171.597L136.322 171.042L135.556 171.263L135.936 172.583ZM139.908 173.216L140.821 172.189L140.13 171.575L139.301 171.983L139.908 173.216ZM144 173.612L144.696 172.427L144 172.019L143.305 172.427L144 173.612ZM148.093 173.216L148.7 171.983L147.871 171.575L147.18 172.189L148.093 173.216ZM152.065 172.583L152.445 171.263L151.679 171.042L151.107 171.597L152.065 172.583ZM155.965 171.121L156.233 169.774L155.315 169.592L154.809 170.379L155.965 171.121ZM158.922 170.323L159.46 169.058L158.666 168.721L158.017 169.289L158.922 170.323ZM264.132 215.024L264.669 213.759L264.669 213.759L264.132 215.024ZM267.586 209.137L268.397 208.028L268.397 208.028L267.586 209.137ZM218.491 173.2L218.687 171.84L217.679 174.308L218.491 173.2ZM278.94 181.934L278.743 183.294L278.743 183.294L278.94 181.934ZM280.733 175.348L280.233 176.628L280.233 176.628L280.733 175.348ZM223.935 153.169L223.779 151.804L223.436 154.449L223.935 153.169ZM284.569 146.217L284.726 147.583L284.726 147.583L284.569 146.217ZM284.569 139.391L284.726 138.026L284.726 138.026L284.569 139.391ZM223.927 132.439L223.427 131.159L223.77 133.804L223.927 132.439ZM280.721 110.261L280.221 108.981L280.221 108.981L280.721 110.261ZM278.927 103.675L279.124 105.035L279.124 105.035L278.927 103.675ZM218.5 112.407L217.688 111.298L218.697 113.767L218.5 112.407ZM267.591 76.4726L268.402 77.5814L268.402 77.5814L267.591 76.4726ZM264.137 70.5857L264.674 71.8505L264.674 71.8505L264.137 70.5857ZM207.936 94.4642L206.865 93.603L208.473 95.7289L207.936 94.4642ZM245.991 47.142L247.062 48.0031L247.062 48.0031L245.991 47.142ZM241.126 42.3553L240.282 41.2711L240.282 41.2711L241.126 42.3553ZM193.066 79.7758L191.808 79.2236L193.91 80.86L193.066 79.7758ZM217.413 24.2926L216.155 23.7404L216.155 23.7404L217.413 24.2926ZM211.48 20.9219L210.384 20.0932L210.384 20.0932L211.48 20.9219ZM174.807 69.4309L173.448 69.2281L175.903 70.2596L174.807 69.4309ZM183.747 9.52762L185.106 9.73045L185.106 9.73045L183.747 9.52762ZM177.149 7.78801L175.874 7.27403L175.874 7.27403L177.149 7.78801ZM146.134 4.05629L153.22 63.898L155.949 63.5748L148.863 3.73312L146.134 4.05629ZM144.032 2.23808C145.062 2.21424 145.987 2.8183 146.134 4.05629L148.863 3.73312C148.522 0.855767 146.168 -0.560438 143.969 -0.509495L144.032 2.23808ZM144.032 -0.509492C141.833 -0.560669 139.478 0.855515 139.137 3.73311L141.867 4.05628C142.013 2.81821 142.939 2.21413 143.969 2.23807L144.032 -0.509492ZM139.137 3.73311L132.052 63.5748L134.781 63.898L141.867 4.05628L139.137 3.73311ZM109.577 8.302L132.142 64.2504L134.691 63.2224L112.126 7.27404L109.577 8.302ZM105.613 9.32479C105.433 8.11829 106.135 7.31701 107.106 7.06081C108.082 6.80373 109.115 7.15523 109.577 8.302L112.126 7.27404C111.064 4.64159 108.499 3.8515 106.406 4.40332C104.309 4.95604 102.474 6.91417 102.895 9.73046L105.613 9.32479ZM114.553 69.2281L105.613 9.32479L102.895 9.73046L111.835 69.6338L114.553 69.2281ZM75.4245 21.7506L112.098 70.2596L114.29 68.6022L77.6168 20.0932L75.4245 21.7506ZM71.8457 23.7404C71.3576 22.6282 71.8239 21.6808 72.697 21.1847C73.5755 20.6857 74.6746 20.7588 75.4245 21.7506L77.6168 20.0932C75.9058 17.83 73.2211 17.7262 71.3395 18.7951C69.4526 19.867 68.1827 22.2324 69.329 24.8448L71.8457 23.7404ZM96.1926 79.2236L71.8457 23.7404L69.329 24.8448L93.6759 80.3279L96.1926 79.2236ZM46.0302 43.4396L94.0901 80.86L95.7785 78.6915L47.7186 41.2711L46.0302 43.4396ZM43.0808 46.2808C42.3203 45.3352 42.5246 44.3021 43.2406 43.5975C43.9617 42.888 45.0465 42.6736 46.0302 43.4396L47.7186 41.2711C45.4789 39.5272 42.856 40.1202 41.313 41.6385C39.765 43.1618 39.1488 45.7769 40.939 48.0031L43.0808 46.2808ZM81.1357 93.6031L43.0808 46.2808L40.939 48.0031L78.994 95.3253L81.1357 93.6031ZM23.3266 71.8505L79.5275 95.7289L80.6022 93.1995L24.4013 69.321L23.3266 71.8505ZM21.2216 75.3638C20.2396 74.6449 20.1691 73.59 20.6781 72.7225C21.1902 71.8497 22.1801 71.3634 23.3266 71.8505L24.4013 69.321C21.7853 68.2095 19.404 69.4631 18.3077 71.3316C17.2082 73.2055 17.292 75.8932 19.5983 77.5814L21.2216 75.3638ZM70.3121 111.298L21.2216 75.3638L19.5983 77.5814L68.6888 113.515L70.3121 111.298ZM8.87656 105.035L69.304 113.767L69.697 111.047L9.2696 102.315L8.87656 105.035ZM7.77946 108.981C6.63937 108.536 6.29478 107.525 6.55953 106.553C6.82522 105.577 7.6488 104.857 8.87655 105.035L9.26961 102.315C6.45128 101.908 4.47759 103.739 3.90778 105.831C3.33705 107.927 4.11877 110.502 6.77977 111.541L7.77946 108.981ZM64.5734 131.159L7.77946 108.981L6.77977 111.541L63.5737 133.719L64.5734 131.159ZM3.58783 140.757L64.2301 133.804L63.9171 131.074L3.27479 138.026L3.58783 140.757ZM3.5878 144.852C1.1526 144.573 1.15249 141.036 3.58783 140.757L3.27479 138.026C-2.40744 138.678 -2.40761 146.931 3.27476 147.583L3.5878 144.852ZM64.2219 151.804L3.5878 144.852L3.27476 147.583L63.9088 154.534L64.2219 151.804ZM7.76723 176.629L64.5652 154.449L63.5655 151.889L6.76754 174.068L7.76723 176.629ZM8.86428 180.575C7.63653 180.752 6.81295 180.032 6.54728 179.056C6.28253 178.084 6.62713 177.074 7.76723 176.629L6.76754 174.068C4.10654 175.108 3.32481 177.683 3.89553 179.778C4.46531 181.871 6.43899 183.702 9.25732 183.295L8.86428 180.575ZM69.3133 171.84L8.86428 180.575L9.25733 183.295L69.7063 174.56L69.3133 171.84ZM21.2264 210.246L70.3215 174.309L68.6981 172.091L19.6031 208.028L21.2264 210.246ZM23.3315 213.759C22.185 214.246 21.1951 213.76 20.6829 212.887C20.1739 212.02 20.2444 210.965 21.2264 210.246L19.6031 208.028C17.2968 209.716 17.2131 212.404 18.3125 214.278C19.4089 216.146 21.7901 217.4 24.4062 216.289L23.3315 213.759ZM128.541 169.058L23.3315 213.759L24.4062 216.289L129.616 171.587L128.541 169.058ZM131.768 169.774C131.115 169.903 130.462 169.708 129.984 169.289L128.173 171.356C129.26 172.309 130.771 172.773 132.302 172.469L131.768 169.774ZM130.879 171.864C132.069 173.716 134.316 174.479 136.316 173.904L135.556 171.263C134.681 171.514 133.702 171.173 133.191 170.379L130.879 171.864ZM139.301 171.983C138.49 172.383 137.52 172.206 136.893 171.597L134.978 173.569C136.407 174.957 138.624 175.381 140.515 174.449L139.301 171.983ZM138.995 174.243C140.611 175.679 142.932 175.833 144.696 174.798L143.305 172.427C142.531 172.881 141.514 172.805 140.821 172.189L138.995 174.243ZM147.18 172.189C146.486 172.805 145.469 172.881 144.696 172.427L143.305 174.798C145.069 175.833 147.39 175.679 149.005 174.243L147.18 172.189ZM147.485 174.449C149.377 175.381 151.593 174.957 153.022 173.569L151.107 171.597C150.481 172.206 149.51 172.383 148.7 171.983L147.485 174.449ZM154.809 170.379C154.299 171.173 153.319 171.514 152.445 171.263L151.684 173.904C153.684 174.479 155.931 173.716 157.121 171.864L154.809 170.379ZM155.698 172.469C157.23 172.773 158.74 172.309 159.828 171.356L158.017 169.289C157.538 169.708 156.886 169.903 156.233 169.774L155.698 172.469ZM158.385 171.587L263.594 216.289L264.669 213.759L159.46 169.058L158.385 171.587ZM263.594 216.289C266.21 217.4 268.592 216.146 269.688 214.278C270.787 212.404 270.704 209.716 268.397 208.028L266.774 210.246C267.756 210.965 267.827 212.02 267.318 212.887C266.805 213.76 265.816 214.246 264.669 213.759L263.594 216.289ZM268.397 208.028L219.302 172.091L217.679 174.308L266.774 210.246L268.397 208.028ZM218.294 174.56L278.743 183.294L279.136 180.574L218.687 171.84L218.294 174.56ZM278.743 183.294C281.562 183.702 283.535 181.871 284.105 179.778C284.676 177.682 283.894 175.108 281.233 174.068L280.233 176.628C281.373 177.074 281.718 178.084 281.453 179.056C281.188 180.032 280.364 180.752 279.136 180.574L278.743 183.294ZM281.233 174.068L224.435 151.889L223.436 154.449L280.233 176.628L281.233 174.068ZM224.092 154.534L284.726 147.583L284.413 144.852L223.779 151.804L224.092 154.534ZM284.726 147.583C290.408 146.931 290.408 138.678 284.726 138.026L284.413 140.757C286.848 141.036 286.848 144.573 284.413 144.852L284.726 147.583ZM284.726 138.026L224.083 131.074L223.77 133.804L284.413 140.757L284.726 138.026ZM224.427 133.719L281.221 111.541L280.221 108.981L223.427 131.159L224.427 133.719ZM281.221 111.541C283.882 110.502 284.664 107.927 284.093 105.831C283.523 103.738 281.549 101.908 278.731 102.315L279.124 105.035C280.352 104.857 281.175 105.577 281.441 106.553C281.706 107.525 281.361 108.536 280.221 108.981L281.221 111.541ZM278.731 102.315L218.304 111.047L218.697 113.767L279.124 105.035L278.731 102.315ZM219.312 113.515L268.402 77.5814L266.779 75.3637L217.688 111.298L219.312 113.515ZM268.402 77.5814C270.709 75.8932 270.792 73.2055 269.693 71.3316C268.597 69.4631 266.215 68.2095 263.599 69.321L264.674 71.8505C265.82 71.3634 266.81 71.8497 267.322 72.7225C267.831 73.59 267.761 74.6449 266.779 75.3637L268.402 77.5814ZM263.599 69.321L207.398 93.1995L208.473 95.7289L264.674 71.8505L263.599 69.321ZM209.007 95.3253L247.062 48.0031L244.92 46.2808L206.865 93.603L209.007 95.3253ZM247.062 48.0031C248.852 45.7769 248.236 43.1618 246.688 41.6385C245.145 40.1202 242.522 39.5272 240.282 41.2711L241.97 43.4396C242.954 42.6736 244.039 42.888 244.76 43.5975C245.476 44.3021 245.68 45.3351 244.92 46.2808L247.062 48.0031ZM240.282 41.2711L192.222 78.6915L193.91 80.86L241.97 43.4396L240.282 41.2711ZM194.325 80.328L218.672 24.8448L216.155 23.7404L191.808 79.2236L194.325 80.328ZM218.672 24.8448C219.818 22.2324 218.548 19.867 216.661 18.7951C214.779 17.7262 212.095 17.83 210.384 20.0932L212.576 21.7506C213.326 20.7587 214.425 20.6857 215.304 21.1847C216.177 21.6807 216.643 22.6282 216.155 23.7404L218.672 24.8448ZM210.384 20.0932L173.711 68.6022L175.903 70.2596L212.576 21.7506L210.384 20.0932ZM176.166 69.6337L185.106 9.73045L182.388 9.32478L173.448 69.2281L176.166 69.6337ZM185.106 9.73045C185.526 6.91416 183.691 4.95603 181.595 4.40332C179.502 3.85149 176.936 4.64158 175.874 7.27403L178.423 8.30199C178.886 7.15522 179.919 6.80372 180.894 7.06081C181.866 7.317 182.568 8.11828 182.388 9.32478L185.106 9.73045ZM175.874 7.27403L153.31 63.2224L155.859 64.2504L178.423 8.30199L175.874 7.27403Z" fill="#E49E18" mask="url(#path-1-inside-1_214_12104)"/>
<mask id="path-3-inside-2_214_12104" fill="white">
<path fill-rule="evenodd" clip-rule="evenodd" d="M199.933 174.729C199.933 204.702 167.986 229 128.578 229C89.1695 229 57.2227 204.702 57.2227 174.729C57.2227 154.039 72.4458 136.053 94.8379 126.897C97.1265 112.858 109.31 102.142 123.996 102.142H163.175C183.476 102.142 199.933 118.599 199.933 138.901V174.729L199.933 174.729Z"/>
</mask>
<path fill-rule="evenodd" clip-rule="evenodd" d="M199.933 174.729C199.933 204.702 167.986 229 128.578 229C89.1695 229 57.2227 204.702 57.2227 174.729C57.2227 154.039 72.4458 136.053 94.8379 126.897C97.1265 112.858 109.31 102.142 123.996 102.142H163.175C183.476 102.142 199.933 118.599 199.933 138.901V174.729L199.933 174.729Z" fill="url(#paint1_linear_214_12104)"/>
<path d="M199.933 174.729L199.687 173.377L198.559 173.582V174.729H199.933ZM94.8379 126.897L95.358 128.169L96.0703 127.877L96.1942 127.118L94.8379 126.897ZM199.933 174.729L200.179 176.081L201.308 175.876V174.729H199.933ZM198.559 174.729C198.559 189.194 190.853 202.388 178.202 212.011C165.549 221.634 148.009 227.626 128.578 227.626V230.374C148.555 230.374 166.693 224.217 179.866 214.198C193.04 204.179 201.307 190.237 201.307 174.729H198.559ZM128.578 227.626C109.147 227.626 91.6067 221.634 78.954 212.011C66.3024 202.388 58.5968 189.194 58.5968 174.729H55.8485C55.8485 190.237 64.1164 204.179 77.2903 214.198C90.4631 224.217 108.601 230.374 128.578 230.374V227.626ZM58.5968 174.729C58.5968 154.773 73.2977 137.189 95.358 128.169L94.3178 125.625C71.5938 134.917 55.8485 153.305 55.8485 174.729H58.5968ZM96.1942 127.118C98.3761 113.733 109.994 103.516 123.996 103.516V100.768C108.625 100.768 95.8769 111.983 93.4816 126.676L96.1942 127.118ZM123.996 103.516H163.175V100.768H123.996V103.516ZM163.175 103.516C182.717 103.516 198.559 119.358 198.559 138.901H201.308C201.308 117.841 184.235 100.768 163.175 100.768V103.516ZM198.559 138.901V174.729H201.308V138.901H198.559ZM199.688 173.377L199.687 173.377L200.179 176.081L200.179 176.081L199.688 173.377Z" fill="#D3ACA9" mask="url(#path-3-inside-2_214_12104)"/>
<rect x="88.2427" y="131.937" width="39.9912" height="52.2182" rx="19.9956" fill="#F8F8F8" stroke="#C6C6C6" stroke-width="1.37415"/>
<rect x="141.328" y="131.937" width="39.9912" height="52.2182" rx="19.9956" fill="#F8F8F8" stroke="#C6C6C6" stroke-width="1.37415"/>
<rect x="97.897" y="142.104" width="26.8875" height="36.6328" rx="13.4437" fill="#191919"/>
<rect x="150.982" y="142.104" width="26.8875" height="36.6328" rx="13.4437" fill="#191919"/>
<ellipse cx="106.17" cy="152.279" rx="3.44711" ry="3.39192" fill="#F8F8F8"/>
<ellipse cx="159.256" cy="152.279" rx="3.44711" ry="3.39192" fill="#F8F8F8"/>
<path fill-rule="evenodd" clip-rule="evenodd" d="M239.239 84.5546C217.595 107.372 201.327 114.184 186.389 115.778L186.254 115.793L186.121 115.814C173.8 117.823 164.39 116.133 157.122 112.778C153.211 110.973 149.828 108.643 146.893 106.025C147.697 104.84 148.488 103.606 149.266 102.321C153.324 95.6205 152.77 88.0796 149.889 82.5079C147.128 77.1683 141.331 72.2919 134.166 73.61C127.829 74.7757 125.093 80.3907 125.101 85.9127C125.108 91.418 127.58 97.8994 132.434 104.34C133.031 105.132 133.657 105.925 134.311 106.714C126.905 115.237 119.347 118.574 113 118.897C104.71 119.318 97.0299 114.692 92.5148 106.779C91.2099 104.493 88.268 103.68 85.944 104.964C83.62 106.248 82.7939 109.142 84.0989 111.429C90.0978 121.942 100.948 129.019 113.498 128.381C122.904 127.904 132.452 123.146 141.014 113.592C144.438 116.557 148.411 119.248 153.023 121.377C162.185 125.606 173.552 127.467 187.565 125.206C205.351 123.276 223.587 114.974 246.295 91.035C248.114 89.1178 248.008 86.1129 246.06 84.3233C244.112 82.5338 241.058 82.6373 239.239 84.5546ZM140.205 98.7059C140.199 98.698 140.193 98.6901 140.187 98.6823C136.133 93.3038 134.757 88.7607 134.753 85.9001C134.749 83.1364 135.778 82.9715 135.929 82.9474C135.933 82.9467 135.937 82.9462 135.94 82.9456C137.245 82.7055 139.582 83.5173 141.287 86.8146C142.871 89.8798 143.116 93.9244 140.975 97.4597C140.719 97.8825 140.462 98.2978 140.205 98.7059Z" fill="url(#paint2_linear_214_12104)" stroke="#4C2D37" stroke-width="1.37415" stroke-linecap="round"/>
<defs>
<linearGradient id="paint0_linear_214_12104" x1="144" y1="0.863281" x2="144" y2="215.329" gradientUnits="userSpaceOnUse">
<stop stop-color="#FFBA33"/>
<stop offset="1" stop-color="#DDAB4C" stop-opacity="0.26"/>
</linearGradient>
<linearGradient id="paint1_linear_214_12104" x1="128.578" y1="102.142" x2="128.578" y2="229" gradientUnits="userSpaceOnUse">
<stop stop-color="#F9DEDC"/>
<stop offset="1" stop-color="#99578A"/>
</linearGradient>
<linearGradient id="paint2_linear_214_12104" x1="171.23" y1="128.416" x2="160.265" y2="68.8091" gradientUnits="userSpaceOnUse">
<stop stop-color="#945E78"/>
<stop offset="1" stop-color="#431F2B"/>
</linearGradient>
</defs>
</svg>
