<svg width="30" height="30" viewBox="0 0 30 30" fill="none" xmlns="http://www.w3.org/2000/svg">
<g id="icon-send">
<circle id="Ellipse 182" cx="15" cy="15" r="15" fill="#6100FF"/>
<g id="arrow_forward">
<mask id="mask0_147_5764" style="mask-type:alpha" maskUnits="userSpaceOnUse" x="2" y="2" width="26" height="26">
<rect id="Bounding box" x="2.14307" y="27.8572" width="25.7143" height="25.7143" transform="rotate(-90 2.14307 27.8572)" fill="#D9D9D9"/>
</mask>
<g mask="url(#mask0_147_5764)">
<path id="arrow_forward_2" d="M15.8036 10.0425L15.8036 22.2321C15.8036 22.4601 15.7267 22.651 15.5728 22.8049C15.419 22.9587 15.2281 23.0356 15.0001 23.0356C14.772 23.0356 14.5811 22.9587 14.4273 22.8049C14.2734 22.651 14.1965 22.4601 14.1965 22.2321L14.1965 10.0425L8.65803 15.581C8.49869 15.7403 8.31223 15.819 8.09864 15.8169C7.88503 15.8148 7.69513 15.7307 7.52893 15.5645C7.37372 15.3983 7.29336 15.2101 7.28786 15C7.28236 14.7898 7.36272 14.6016 7.52893 14.4354L14.3222 7.64216C14.4225 7.54189 14.5282 7.47115 14.6395 7.42994C14.7507 7.38872 14.8709 7.36812 15.0001 7.36812C15.1292 7.36812 15.2494 7.38872 15.3606 7.42994C15.4719 7.47115 15.5777 7.54189 15.6779 7.64216L22.4712 14.4354C22.6195 14.5838 22.6954 14.7675 22.6989 14.9866C22.7023 15.2057 22.6264 15.3983 22.4712 15.5645C22.305 15.7307 22.1141 15.8138 21.8984 15.8138C21.6827 15.8138 21.4918 15.7307 21.3256 15.5645L15.8036 10.0425Z" fill="#F8F8F8"/>
</g>
</g>
</g>
</svg>
