<svg width="244" height="200" viewBox="0 0 244 200" fill="none" xmlns="http://www.w3.org/2000/svg">
<path fill-rule="evenodd" clip-rule="evenodd" d="M122 117.265C119.126 120.241 115.986 122.963 112.62 125.394C97.392 138.991 82.6661 149.624 69.9072 158.837L69.9068 158.837C52.2668 171.575 38.3867 181.598 32.1392 192.982C-2.69099 153.785 -3.08427 85.2577 2.93655 56.63C8.93724 24.4067 37.3931 0 71.5915 0C91.4055 0 109.292 8.19293 122 21.3522C134.708 8.19293 152.594 0 172.408 0C206.606 0 235.061 24.4048 241.063 56.6264C247.084 85.2519 246.693 153.783 211.861 192.982C205.613 181.598 191.733 171.575 174.093 158.837C161.334 149.624 146.608 138.991 131.381 125.395C128.014 122.964 124.875 120.241 122 117.265Z" fill="url(#paint0_linear_214_12112)"/>
<mask id="path-2-inside-1_214_12112" fill="white">
<path fill-rule="evenodd" clip-rule="evenodd" d="M183.139 143.86C183.138 174.865 151.114 200 111.611 200C72.1071 200 40.083 174.865 40.083 143.86C40.083 122.499 55.2819 103.925 77.6544 94.4364C79.5542 79.953 91.9445 68.7719 106.946 68.7719H146.38C166.681 68.7719 183.139 85.2293 183.139 105.53V143.86Z"/>
</mask>
<path fill-rule="evenodd" clip-rule="evenodd" d="M183.139 143.86C183.138 174.865 151.114 200 111.611 200C72.1071 200 40.083 174.865 40.083 143.86C40.083 122.499 55.2819 103.925 77.6544 94.4364C79.5542 79.953 91.9445 68.7719 106.946 68.7719H146.38C166.681 68.7719 183.139 85.2293 183.139 105.53V143.86Z" fill="url(#paint1_linear_214_12112)"/>
<path d="M183.139 143.86L184.513 143.86V143.86H183.139ZM77.6544 94.4364L78.1909 95.7015L78.9146 95.3945L79.0169 94.6151L77.6544 94.4364ZM181.764 143.86C181.764 173.815 150.684 198.626 111.611 198.626V201.374C151.545 201.374 184.513 175.915 184.513 143.86L181.764 143.86ZM111.611 198.626C72.5373 198.626 41.4572 173.815 41.4572 143.86H38.7089C38.7089 175.915 71.6768 201.374 111.611 201.374V198.626ZM41.4572 143.86C41.4572 123.207 56.1657 105.043 78.1909 95.7015L77.1178 93.1713C54.398 102.808 38.7089 121.792 38.7089 143.86H41.4572ZM79.0169 94.6151C80.8281 80.8068 92.6433 70.146 106.946 70.146V67.3977C91.2456 67.3977 78.2802 79.0993 76.2919 94.2577L79.0169 94.6151ZM106.946 70.146H146.38V67.3977H106.946V70.146ZM146.38 70.146C165.922 70.146 181.764 85.9882 181.764 105.53H184.513C184.513 84.4703 167.44 67.3977 146.38 67.3977V70.146ZM181.764 105.53V143.86H184.513V105.53H181.764Z" fill="#D3ACA9" mask="url(#path-2-inside-1_214_12112)"/>
<mask id="mask0_214_12112" style="mask-type:alpha" maskUnits="userSpaceOnUse" x="64" y="77" width="42" height="71">
<rect x="64.2715" y="77.193" width="41.4654" height="70.1755" rx="20.7327" fill="#D9D9D9"/>
</mask>
<g mask="url(#mask0_214_12112)">
<rect x="64.2715" y="112.983" width="41.4654" height="34.386" fill="#F8F8F8"/>
</g>
<mask id="mask1_214_12112" style="mask-type:alpha" maskUnits="userSpaceOnUse" x="64" y="112" width="42" height="36">
<mask id="mask2_214_12112" style="mask-type:alpha" maskUnits="userSpaceOnUse" x="64" y="77" width="42" height="71">
<rect x="64.2715" y="77.193" width="41.4654" height="70.1755" rx="20.7327" fill="#D9D9D9"/>
</mask>
<g mask="url(#mask2_214_12112)">
<rect x="64.2715" y="112.983" width="41.4654" height="34.386" fill="#D9D9D9"/>
</g>
</mask>
<g mask="url(#mask1_214_12112)">
<ellipse cx="82.5856" cy="122.807" rx="13.4762" ry="21.0526" fill="#191919"/>
</g>
<ellipse cx="88.4598" cy="132.632" rx="3.45545" ry="3.50877" fill="#F8F8F8"/>
<rect x="64.2715" y="112.281" width="41.4654" height="1.40351" fill="black"/>
<mask id="mask3_214_12112" style="mask-type:alpha" maskUnits="userSpaceOnUse" x="117" y="77" width="42" height="71">
<rect x="117.485" y="77.193" width="41.4654" height="70.1755" rx="20.7327" fill="#D9D9D9"/>
</mask>
<g mask="url(#mask3_214_12112)">
<rect x="117.485" y="112.983" width="41.4654" height="34.386" fill="#F8F8F8"/>
</g>
<mask id="mask4_214_12112" style="mask-type:alpha" maskUnits="userSpaceOnUse" x="117" y="112" width="42" height="36">
<mask id="mask5_214_12112" style="mask-type:alpha" maskUnits="userSpaceOnUse" x="117" y="77" width="42" height="71">
<rect x="117.485" y="77.193" width="41.4654" height="70.1755" rx="20.7327" fill="#D9D9D9"/>
</mask>
<g mask="url(#mask5_214_12112)">
<rect x="117.485" y="112.983" width="41.4654" height="34.386" fill="#D9D9D9"/>
</g>
</mask>
<g mask="url(#mask4_214_12112)">
<ellipse cx="135.108" cy="122.807" rx="13.4762" ry="21.0526" fill="#191919"/>
</g>
<ellipse cx="141.674" cy="132.632" rx="3.45545" ry="3.50877" fill="#F8F8F8"/>
<rect x="117.485" y="112.281" width="41.4654" height="1.40351" fill="black"/>
<path fill-rule="evenodd" clip-rule="evenodd" d="M216.621 65.2713C143.477 64.7171 112.64 92.2961 106.565 104.046C105.789 105.547 104.305 106.536 102.64 106.662C100.975 106.787 99.3637 106.032 98.3777 104.663C96.7862 102.455 94.0772 100.041 90.4032 97.5605C86.7803 95.1145 82.4745 92.7726 77.9473 90.6259C68.8867 86.3295 59.2831 82.9761 53.262 81.2212C50.694 80.4727 49.2097 77.7519 49.9468 75.1443C50.6839 72.5366 53.3633 71.0294 55.9314 71.7779C62.3499 73.6487 72.4423 77.1725 82.0411 81.7241C86.8436 84.0014 91.6084 86.5762 95.7602 89.3794C97.8402 90.7837 99.835 92.2907 101.629 93.8977C114.406 77.4538 149.671 54.9392 216.693 55.447C219.365 55.4673 221.515 57.6829 221.495 60.3958C221.475 63.1087 219.293 65.2916 216.621 65.2713Z" fill="url(#paint2_linear_214_12112)" stroke="#3E374B" stroke-width="1.37415" stroke-linecap="round" stroke-linejoin="round"/>
<defs>
<linearGradient id="paint0_linear_214_12112" x1="122" y1="0" x2="122" y2="192.982" gradientUnits="userSpaceOnUse">
<stop stop-color="#A0AAFF"/>
<stop offset="1" stop-color="#444D9D" stop-opacity="0.41"/>
</linearGradient>
<linearGradient id="paint1_linear_214_12112" x1="111.611" y1="68.7719" x2="111.611" y2="200" gradientUnits="userSpaceOnUse">
<stop stop-color="#F9DEDC"/>
<stop offset="1" stop-color="#99578A"/>
</linearGradient>
<linearGradient id="paint2_linear_214_12112" x1="135.626" y1="55.4386" x2="135.626" y2="106.675" gradientUnits="userSpaceOnUse">
<stop stop-color="#76659A"/>
<stop offset="1" stop-color="#230F4F"/>
</linearGradient>
</defs>
</svg>
