<svg width="290" height="220" viewBox="0 0 290 220" fill="none" xmlns="http://www.w3.org/2000/svg">
<mask id="path-1-inside-1_214_12113" fill="white">
<path fill-rule="evenodd" clip-rule="evenodd" d="M155.584 64.7802L148.499 3.94946C148.259 1.88739 146.617 0.875072 145 0.912509C143.384 0.874901 141.741 1.88722 141.501 3.94945L134.416 64.7802L111.842 7.87644C110.338 4.08594 104.658 5.60856 105.25 9.64336L114.194 70.5695L77.4505 21.1594C75.0172 17.8872 69.9246 20.8285 71.5407 24.5726L95.934 81.0864L47.6842 42.893C44.487 40.3622 40.3294 44.5213 42.8594 47.7196L81.0646 96.0192L24.5251 71.5972C20.7818 69.9803 17.8424 75.0735 21.1138 77.508L70.5002 114.26L9.61536 105.316C5.58108 104.723 4.05957 110.403 7.84958 111.908L65.0735 134.626L3.93756 141.751C-0.112659 142.223 -0.112647 148.104 3.93757 148.576L65.0651 155.701L7.83735 178.42C4.04734 179.924 5.56877 185.605 9.60305 185.012L70.5096 176.065L21.1186 212.82C17.8472 215.255 20.7867 220.348 24.53 218.731L130.058 173.148C130.841 173.846 131.931 174.179 133.034 173.953C133.867 175.306 135.483 175.87 136.925 175.446C137.945 176.469 139.55 176.772 140.907 176.083C142.057 177.139 143.732 177.258 145 176.495C146.268 177.259 147.943 177.139 149.093 176.083C150.451 176.772 152.055 176.468 153.076 175.446C154.517 175.87 156.133 175.306 156.966 173.953C158.069 174.179 159.159 173.846 159.942 173.148L265.47 218.731C269.213 220.348 272.153 215.255 268.882 212.82L219.49 176.065L280.397 185.012C284.431 185.605 285.953 179.924 282.163 178.42L224.935 155.701L286.063 148.576C290.113 148.104 290.113 142.223 286.063 141.751L224.927 134.626L282.151 111.908C285.941 110.403 284.419 104.723 280.385 105.316L219.5 114.26L268.886 77.508C272.158 75.0735 269.218 69.9803 265.475 71.5972L208.935 96.0192L247.141 47.7196C249.671 44.5213 245.513 40.3622 242.316 42.893L194.066 81.0864L218.459 24.5726C220.076 20.8285 214.983 17.8872 212.55 21.1594L175.806 70.5695L184.75 9.64335C185.343 5.60855 179.662 4.08594 178.158 7.87643L155.584 64.7802Z"/>
</mask>
<path fill-rule="evenodd" clip-rule="evenodd" d="M155.584 64.7802L148.499 3.94946C148.259 1.88739 146.617 0.875072 145 0.912509C143.384 0.874901 141.741 1.88722 141.501 3.94945L134.416 64.7802L111.842 7.87644C110.338 4.08594 104.658 5.60856 105.25 9.64336L114.194 70.5695L77.4505 21.1594C75.0172 17.8872 69.9246 20.8285 71.5407 24.5726L95.934 81.0864L47.6842 42.893C44.487 40.3622 40.3294 44.5213 42.8594 47.7196L81.0646 96.0192L24.5251 71.5972C20.7818 69.9803 17.8424 75.0735 21.1138 77.508L70.5002 114.26L9.61536 105.316C5.58108 104.723 4.05957 110.403 7.84958 111.908L65.0735 134.626L3.93756 141.751C-0.112659 142.223 -0.112647 148.104 3.93757 148.576L65.0651 155.701L7.83735 178.42C4.04734 179.924 5.56877 185.605 9.60305 185.012L70.5096 176.065L21.1186 212.82C17.8472 215.255 20.7867 220.348 24.53 218.731L130.058 173.148C130.841 173.846 131.931 174.179 133.034 173.953C133.867 175.306 135.483 175.87 136.925 175.446C137.945 176.469 139.55 176.772 140.907 176.083C142.057 177.139 143.732 177.258 145 176.495C146.268 177.259 147.943 177.139 149.093 176.083C150.451 176.772 152.055 176.468 153.076 175.446C154.517 175.87 156.133 175.306 156.966 173.953C158.069 174.179 159.159 173.846 159.942 173.148L265.47 218.731C269.213 220.348 272.153 215.255 268.882 212.82L219.49 176.065L280.397 185.012C284.431 185.605 285.953 179.924 282.163 178.42L224.935 155.701L286.063 148.576C290.113 148.104 290.113 142.223 286.063 141.751L224.927 134.626L282.151 111.908C285.941 110.403 284.419 104.723 280.385 105.316L219.5 114.26L268.886 77.508C272.158 75.0735 269.218 69.9803 265.475 71.5972L208.935 96.0192L247.141 47.7196C249.671 44.5213 245.513 40.3622 242.316 42.893L194.066 81.0864L218.459 24.5726C220.076 20.8285 214.983 17.8872 212.55 21.1594L175.806 70.5695L184.75 9.64335C185.343 5.60855 179.662 4.08594 178.158 7.87643L155.584 64.7802Z" fill="url(#paint0_linear_214_12113)"/>
<path d="M148.499 3.94946L149.864 3.79048L149.864 3.79048L148.499 3.94946ZM155.584 64.7802L154.219 64.9392L156.861 65.2869L155.584 64.7802ZM145 0.912509L144.968 2.28629L145 2.28703L145.032 2.2863L145 0.912509ZM141.501 3.94945L142.866 4.10843L142.866 4.10842L141.501 3.94945ZM134.416 64.7802L133.139 65.2869L135.781 64.9392L134.416 64.7802ZM111.842 7.87644L110.564 8.38316L110.564 8.38316L111.842 7.87644ZM105.25 9.64336L103.89 9.84294L103.89 9.84294L105.25 9.64336ZM114.194 70.5695L113.091 71.3895L115.553 70.3699L114.194 70.5695ZM77.4505 21.1594L76.3478 21.9794L76.3478 21.9794L77.4505 21.1594ZM71.5407 24.5726L70.2791 25.1172L70.2791 25.1172L71.5407 24.5726ZM95.934 81.0864L95.0812 82.1638L97.1957 80.5418L95.934 81.0864ZM47.6842 42.893L46.8313 43.9705L46.8313 43.9705L47.6842 42.893ZM42.8594 47.7196L41.7816 48.5721L41.7816 48.5721L42.8594 47.7196ZM81.0646 96.0192L80.5197 97.2807L82.1424 95.1667L81.0646 96.0192ZM24.5251 71.5972L23.9802 72.8587L23.9802 72.8587L24.5251 71.5972ZM21.1138 77.508L21.9342 76.4056L21.9342 76.4056L21.1138 77.508ZM70.5002 114.26L70.3004 115.62L71.3205 113.158L70.5002 114.26ZM9.61536 105.316L9.81508 103.956L9.81508 103.956L9.61536 105.316ZM7.84958 111.908L7.34254 113.185L7.34254 113.185L7.84958 111.908ZM65.0735 134.626L65.2326 135.991L65.5805 133.348L65.0735 134.626ZM3.93756 141.751L3.77847 140.386L3.77847 140.386L3.93756 141.751ZM3.93757 148.576L3.77849 149.941L3.77849 149.941L3.93757 148.576ZM65.0651 155.701L65.5721 156.978L65.2242 154.336L65.0651 155.701ZM7.83735 178.42L7.33031 177.143L7.33031 177.143L7.83735 178.42ZM9.60305 185.012L9.40333 183.652L9.40333 183.652L9.60305 185.012ZM70.5096 176.065L71.33 177.167L70.3099 174.705L70.5096 176.065ZM21.1186 212.82L20.2982 211.718L20.2982 211.718L21.1186 212.82ZM24.53 218.731L25.0749 219.992L25.0749 219.992L24.53 218.731ZM130.058 173.148L130.973 172.123L130.319 171.539L129.514 171.887L130.058 173.148ZM133.034 173.953L134.204 173.232L133.7 172.413L132.758 172.607L133.034 173.953ZM136.925 175.446L137.897 174.475L137.32 173.898L136.537 174.128L136.925 175.446ZM140.907 176.083L141.837 175.071L141.135 174.426L140.285 174.858L140.907 176.083ZM145 176.495L145.709 175.318L145 174.891L144.291 175.318L145 176.495ZM149.093 176.083L149.715 174.858L148.865 174.426L148.163 175.071L149.093 176.083ZM153.076 175.446L153.463 174.128L152.68 173.898L152.103 174.475L153.076 175.446ZM156.966 173.953L157.242 172.607L156.301 172.413L155.796 173.232L156.966 173.953ZM159.942 173.148L160.487 171.887L159.681 171.539L159.027 172.123L159.942 173.148ZM265.47 218.731L266.015 217.469L266.015 217.469L265.47 218.731ZM268.882 212.82L269.702 211.718L269.702 211.718L268.882 212.82ZM219.49 176.065L219.69 174.705L218.67 177.167L219.49 176.065ZM280.397 185.012L280.597 183.652L280.597 183.652L280.397 185.012ZM282.163 178.42L282.67 177.143L282.67 177.143L282.163 178.42ZM224.935 155.701L224.776 154.336L224.428 156.978L224.935 155.701ZM286.063 148.576L286.222 149.941L286.222 149.941L286.063 148.576ZM286.063 141.751L285.903 143.116L285.903 143.116L286.063 141.751ZM224.927 134.626L224.42 133.348L224.768 135.991L224.927 134.626ZM282.151 111.908L282.658 113.185L282.658 113.185L282.151 111.908ZM280.385 105.316L280.185 103.956L280.185 103.956L280.385 105.316ZM219.5 114.26L218.68 113.158L219.7 115.62L219.5 114.26ZM268.886 77.508L269.707 78.6104L269.707 78.6104L268.886 77.508ZM265.475 71.5972L264.93 70.3357L264.93 70.3357L265.475 71.5972ZM208.935 96.0192L207.858 95.1667L209.48 97.2807L208.935 96.0192ZM247.141 47.7196L248.219 48.5721L248.219 48.5721L247.141 47.7196ZM242.316 42.893L241.463 41.8155L241.463 41.8155L242.316 42.893ZM194.066 81.0864L192.804 80.5418L194.919 82.1638L194.066 81.0864ZM218.459 24.5726L219.721 25.1172L219.721 25.1172L218.459 24.5726ZM212.55 21.1594L213.652 21.9794L213.652 21.9794L212.55 21.1594ZM175.806 70.5695L174.447 70.3699L176.909 71.3895L175.806 70.5695ZM184.75 9.64335L186.11 9.84293L186.11 9.84293L184.75 9.64335ZM178.158 7.87643L179.436 8.38315L179.436 8.38315L178.158 7.87643ZM147.134 4.10844L154.219 64.9392L156.949 64.6212L149.864 3.79048L147.134 4.10844ZM145.032 2.2863C146.063 2.26242 146.99 2.86775 147.134 4.10844L149.864 3.79048C149.528 0.907033 147.171 -0.512277 144.968 -0.461277L145.032 2.2863ZM145.032 -0.461274C142.83 -0.512505 140.472 0.906731 140.136 3.79048L142.866 4.10842C143.011 2.8677 143.937 2.26231 144.968 2.28629L145.032 -0.461274ZM140.136 3.79048L133.051 64.6212L135.781 64.9392L142.866 4.10843L140.136 3.79048ZM110.564 8.38316L133.139 65.2869L135.693 64.2735L113.119 7.36972L110.564 8.38316ZM106.609 9.44377C106.254 7.02013 109.663 6.11147 110.564 8.38316L113.119 7.36972C111.013 2.06042 103.061 4.19699 103.89 9.84294L106.609 9.44377ZM115.553 70.3699L106.609 9.44377L103.89 9.84294L112.834 70.7691L115.553 70.3699ZM76.3478 21.9794L113.091 71.3895L115.296 69.7495L78.5532 20.3394L76.3478 21.9794ZM72.8024 24.0281C71.8308 21.7771 74.8907 20.02 76.3478 21.9794L78.5532 20.3394C75.1436 15.7545 68.0184 19.8799 70.2791 25.1172L72.8024 24.0281ZM97.1957 80.5418L72.8024 24.0281L70.2791 25.1172L94.6724 81.631L97.1957 80.5418ZM46.8313 43.9705L95.0812 82.1638L96.7869 80.0089L48.5371 41.8156L46.8313 43.9705ZM43.9371 46.8671C42.4156 44.9436 44.9175 42.4555 46.8313 43.9705L48.5371 41.8156C44.0564 38.2688 38.2433 44.099 41.7816 48.5721L43.9371 46.8671ZM82.1424 95.1667L43.9371 46.8671L41.7816 48.5721L79.9869 96.8717L82.1424 95.1667ZM23.9802 72.8587L80.5197 97.2807L81.6095 94.7577L25.07 70.3357L23.9802 72.8587ZM21.9342 76.4056C19.9673 74.942 21.7388 71.8906 23.9802 72.8587L25.07 70.3357C19.8248 68.0701 15.7174 75.2051 20.2934 78.6104L21.9342 76.4056ZM71.3205 113.158L21.9342 76.4056L20.2934 78.6104L69.6798 115.362L71.3205 113.158ZM9.41563 106.675L70.3004 115.62L70.6999 112.9L9.81508 103.956L9.41563 106.675ZM8.35661 110.631C6.08007 109.727 6.99776 106.32 9.41563 106.675L9.81508 103.956C4.16439 103.126 2.03906 111.08 7.34254 113.185L8.35661 110.631ZM65.5805 133.348L8.35661 110.631L7.34254 113.185L64.5664 135.903L65.5805 133.348ZM4.09665 143.116L65.2326 135.991L64.9144 133.261L3.77847 140.386L4.09665 143.116ZM4.09666 147.211C1.6665 146.928 1.66655 143.4 4.09665 143.116L3.77847 140.386C-1.89187 141.047 -1.89179 149.28 3.77849 149.941L4.09666 147.211ZM65.2242 154.336L4.09666 147.211L3.77849 149.941L64.906 157.066L65.2242 154.336ZM8.34439 179.697L65.5721 156.978L64.558 154.423L7.33031 177.143L8.34439 179.697ZM9.40333 183.652C6.98567 184.008 6.06764 180.601 8.34439 179.697L7.33031 177.143C2.02704 179.248 4.15187 187.202 9.80278 186.372L9.40333 183.652ZM70.3099 174.705L9.40333 183.652L9.80278 186.372L70.7093 177.424L70.3099 174.705ZM21.939 213.922L71.33 177.167L69.6892 174.962L20.2982 211.718L21.939 213.922ZM23.9851 217.469C21.7436 218.438 19.9722 215.386 21.939 213.922L20.2982 211.718C15.7222 215.123 19.8298 222.258 25.0749 219.992L23.9851 217.469ZM129.514 171.887L23.9851 217.469L25.0749 219.992L130.603 174.41L129.514 171.887ZM132.758 172.607C132.1 172.742 131.447 172.545 130.973 172.123L129.144 174.174C130.235 175.147 131.763 175.616 133.31 175.299L132.758 172.607ZM131.864 174.673C133.033 176.572 135.296 177.357 137.312 176.765L136.537 174.128C135.67 174.383 134.702 174.04 134.204 173.232L131.864 174.673ZM140.285 174.858C139.475 175.269 138.511 175.09 137.897 174.475L135.952 176.417C137.38 177.847 139.624 178.276 141.529 177.308L140.285 174.858ZM139.978 177.095C141.591 178.577 143.936 178.74 145.709 177.672L144.291 175.318C143.529 175.777 142.523 175.701 141.837 175.071L139.978 177.095ZM148.163 175.071C147.477 175.701 146.471 175.777 145.709 175.318L144.291 177.672C146.064 178.74 148.409 178.577 150.023 177.095L148.163 175.071ZM148.471 177.308C150.376 178.276 152.621 177.847 154.048 176.417L152.103 174.475C151.489 175.09 150.525 175.269 149.715 174.858L148.471 177.308ZM155.796 173.232C155.299 174.04 154.33 174.383 153.463 174.128L152.688 176.765C154.704 177.357 156.967 176.572 158.136 174.673L155.796 173.232ZM156.69 175.299C158.238 175.616 159.765 175.147 160.856 174.174L159.027 172.123C158.554 172.545 157.9 172.742 157.242 172.607L156.69 175.299ZM159.397 174.41L264.925 219.992L266.015 217.469L160.487 171.887L159.397 174.41ZM264.925 219.992C270.17 222.258 274.278 215.123 269.702 211.718L268.061 213.922C270.028 215.386 268.256 218.437 266.015 217.469L264.925 219.992ZM269.702 211.718L220.311 174.962L218.67 177.167L268.061 213.922L269.702 211.718ZM219.291 177.424L280.197 186.371L280.597 183.652L219.69 174.705L219.291 177.424ZM280.197 186.371C285.848 187.202 287.973 179.248 282.67 177.143L281.656 179.697C283.932 180.601 283.014 184.008 280.597 183.652L280.197 186.371ZM282.67 177.143L225.442 154.423L224.428 156.978L281.656 179.697L282.67 177.143ZM225.094 157.066L286.222 149.941L285.903 147.211L224.776 154.336L225.094 157.066ZM286.222 149.941C291.892 149.28 291.892 141.047 286.222 140.386L285.903 143.116C288.334 143.399 288.334 146.928 285.903 147.211L286.222 149.941ZM286.222 140.386L225.086 133.261L224.768 135.991L285.903 143.116L286.222 140.386ZM225.434 135.903L282.658 113.185L281.644 110.631L224.42 133.348L225.434 135.903ZM282.658 113.185C287.961 111.08 285.836 103.126 280.185 103.956L280.584 106.675C283.002 106.32 283.92 109.727 281.644 110.631L282.658 113.185ZM280.185 103.956L219.3 112.9L219.7 115.62L280.584 106.675L280.185 103.956ZM220.32 115.362L269.707 78.6104L268.066 76.4056L218.68 113.158L220.32 115.362ZM269.707 78.6104C274.283 75.2051 270.175 68.0701 264.93 70.3357L266.02 72.8587C268.261 71.8905 270.033 74.942 268.066 76.4056L269.707 78.6104ZM264.93 70.3357L208.391 94.7577L209.48 97.2807L266.02 72.8587L264.93 70.3357ZM210.013 96.8717L248.219 48.5721L246.063 46.8671L207.858 95.1667L210.013 96.8717ZM248.219 48.5721C251.757 44.099 245.944 38.2688 241.463 41.8155L243.169 43.9704C245.083 42.4555 247.585 44.9436 246.063 46.8671L248.219 48.5721ZM241.463 41.8155L193.213 80.0089L194.919 82.1638L243.169 43.9704L241.463 41.8155ZM195.328 81.6309L219.721 25.1172L217.198 24.028L192.804 80.5418L195.328 81.6309ZM219.721 25.1172C221.982 19.8799 214.856 15.7545 211.447 20.3394L213.652 21.9794C215.109 20.02 218.169 21.7771 217.198 24.028L219.721 25.1172ZM211.447 20.3394L174.704 69.7495L176.909 71.3895L213.652 21.9794L211.447 20.3394ZM177.166 70.7691L186.11 9.84293L183.391 9.44376L174.447 70.3699L177.166 70.7691ZM186.11 9.84293C186.939 4.19698 178.987 2.06041 176.881 7.36971L179.436 8.38315C180.337 6.11146 183.746 7.02012 183.391 9.44376L186.11 9.84293ZM176.881 7.36971L154.307 64.2735L156.861 65.2869L179.436 8.38315L176.881 7.36971Z" fill="#E49E18" mask="url(#path-1-inside-1_214_12113)"/>
<mask id="path-3-inside-2_214_12113" fill="white">
<path fill-rule="evenodd" clip-rule="evenodd" d="M123.248 107.963C102.947 107.963 86.4893 124.42 86.4893 144.722V145.205V181.758V182.241C86.4893 202.543 102.947 219 123.248 219H180.721C201.022 219 217.48 202.543 217.48 182.241V171.314C217.48 157.095 206.113 145.531 191.971 145.212V137.507C191.971 121.19 178.744 107.963 162.427 107.963H123.248Z"/>
</mask>
<path fill-rule="evenodd" clip-rule="evenodd" d="M123.248 107.963C102.947 107.963 86.4893 124.42 86.4893 144.722V145.205V181.758V182.241C86.4893 202.543 102.947 219 123.248 219H180.721C201.022 219 217.48 202.543 217.48 182.241V171.314C217.48 157.095 206.113 145.531 191.971 145.212V137.507C191.971 121.19 178.744 107.963 162.427 107.963H123.248Z" fill="url(#paint1_linear_214_12113)"/>
<path d="M191.971 145.212H190.597V146.556L191.94 146.586L191.971 145.212ZM87.8634 144.722C87.8634 125.179 103.706 109.337 123.248 109.337V106.589C102.188 106.589 85.1151 123.661 85.1151 144.722H87.8634ZM87.8634 145.205V144.722H85.1151V145.205H87.8634ZM87.8634 181.758V145.205H85.1151V181.758H87.8634ZM87.8634 182.241V181.758H85.1151V182.241H87.8634ZM123.248 217.626C103.706 217.626 87.8634 201.784 87.8634 182.241H85.1151C85.1151 203.302 102.188 220.374 123.248 220.374V217.626ZM180.721 217.626H123.248V220.374H180.721V217.626ZM216.105 182.241C216.105 201.784 200.263 217.626 180.721 217.626V220.374C201.781 220.374 218.854 203.302 218.854 182.241H216.105ZM216.105 171.314V182.241H218.854V171.314H216.105ZM191.94 146.586C205.337 146.888 216.105 157.844 216.105 171.314H218.854C218.854 156.347 206.889 144.174 192.002 143.838L191.94 146.586ZM190.597 137.507V145.212H193.345V137.507H190.597ZM162.427 109.337C177.985 109.337 190.597 121.949 190.597 137.507H193.345C193.345 120.432 179.502 106.589 162.427 106.589V109.337ZM123.248 109.337H162.427V106.589H123.248V109.337Z" fill="#A898C1" mask="url(#path-3-inside-2_214_12113)"/>
<rect x="96.1392" y="136.863" width="39.9912" height="53.1098" rx="19.9956" fill="#F8F8F8" stroke="#C6C6C6" stroke-width="1.37415"/>
<rect x="149.225" y="136.863" width="39.9912" height="53.1098" rx="19.9956" fill="#F8F8F8" stroke="#C6C6C6" stroke-width="1.37415"/>
<rect x="105.793" y="147.21" width="26.8875" height="37.2422" rx="13.4437" fill="#191919"/>
<rect x="158.879" y="147.21" width="26.8875" height="37.2422" rx="13.4437" fill="#191919"/>
<ellipse cx="114.067" cy="157.555" rx="3.44711" ry="3.44835" fill="#F8F8F8"/>
<ellipse cx="167.152" cy="157.555" rx="3.44711" ry="3.44835" fill="#F8F8F8"/>
<path fill-rule="evenodd" clip-rule="evenodd" d="M253.638 100.321C180.67 99.7759 149.907 126.88 143.847 138.428C143.073 139.903 141.593 140.875 139.932 140.998C138.27 141.121 136.663 140.379 135.679 139.034C134.092 136.864 131.389 134.492 127.724 132.054C124.11 129.65 119.815 127.348 115.298 125.239C106.26 121.016 96.679 117.721 90.6725 115.996C88.1106 115.26 86.63 112.586 87.3653 110.024C88.1007 107.461 90.7736 105.98 93.3354 106.715C99.7385 108.554 109.807 112.017 119.382 116.49C124.173 118.728 128.926 121.259 133.068 124.014C135.143 125.394 137.133 126.875 138.923 128.454C151.669 112.293 186.849 90.1664 253.71 90.6655C256.375 90.6854 258.519 92.8629 258.499 95.5291C258.48 98.1953 256.303 100.341 253.638 100.321Z" fill="url(#paint2_linear_214_12113)" stroke="#3E374B" stroke-width="1.37415" stroke-linecap="round" stroke-linejoin="round"/>
<defs>
<linearGradient id="paint0_linear_214_12113" x1="145" y1="0.911499" x2="145" y2="219.042" gradientUnits="userSpaceOnUse">
<stop stop-color="#FFBA33"/>
<stop offset="1" stop-color="#DDAB4C" stop-opacity="0.26"/>
</linearGradient>
<linearGradient id="paint1_linear_214_12113" x1="151.984" y1="107.963" x2="151.984" y2="219" gradientUnits="userSpaceOnUse">
<stop stop-color="#E8DEF8"/>
<stop offset="1" stop-color="#7EBCB9"/>
</linearGradient>
<linearGradient id="paint2_linear_214_12113" x1="172.838" y1="90.6572" x2="172.838" y2="141.011" gradientUnits="userSpaceOnUse">
<stop stop-color="#76659A"/>
<stop offset="1" stop-color="#230F4F"/>
</linearGradient>
</defs>
</svg>
