<svg width="290" height="220" viewBox="0 0 290 220" fill="none" xmlns="http://www.w3.org/2000/svg">
<mask id="path-1-inside-1_214_12109" fill="white">
<path fill-rule="evenodd" clip-rule="evenodd" d="M155.584 64.7801L148.499 3.94933C148.259 1.88729 146.617 0.874982 145 0.91239C143.384 0.874728 141.741 1.88703 141.501 3.94931L134.416 64.7801L111.842 7.87629C110.338 4.0858 104.658 5.60843 105.25 9.64323L114.194 70.5694L77.4505 21.1593C75.0172 17.8871 69.9246 20.8283 71.5407 24.5725L95.9342 81.0865L47.6842 42.893C44.487 40.3622 40.3294 44.5212 42.8593 47.7196L81.0645 96.0191L24.5252 71.5971C20.7819 69.9802 17.8424 75.0735 21.1138 77.508L70.5004 114.26L9.61536 105.316C5.58108 104.723 4.05958 110.403 7.84959 111.908L65.0734 134.626L3.93756 141.751C-0.112659 142.223 -0.112647 148.104 3.93757 148.576L65.0651 155.701L7.83737 178.42C4.04736 179.924 5.5688 185.605 9.60308 185.012L70.5097 176.065L21.1186 212.82C17.8472 215.255 20.7867 220.348 24.53 218.731L130.059 173.148C130.841 173.846 131.931 174.179 133.034 173.953C133.867 175.306 135.483 175.87 136.925 175.446C137.945 176.468 139.549 176.772 140.907 176.083C142.057 177.139 143.732 177.259 145 176.495C146.268 177.259 147.943 177.139 149.093 176.083C150.451 176.772 152.055 176.468 153.076 175.446C154.517 175.87 156.133 175.306 156.966 173.953C158.069 174.179 159.159 173.846 159.942 173.148L265.47 218.731C269.213 220.348 272.153 215.255 268.882 212.82L219.491 176.065L280.397 185.012C284.431 185.605 285.953 179.924 282.163 178.42L224.935 155.701L286.063 148.576C290.113 148.104 290.113 142.223 286.063 141.751L224.927 134.626L282.151 111.908C285.941 110.403 284.419 104.723 280.385 105.316L219.5 114.26L268.886 77.5079C272.158 75.0734 269.218 69.9802 265.475 71.5971L208.936 96.0191L247.141 47.7196C249.671 44.5212 245.513 40.3622 242.316 42.893L194.066 81.0865L218.459 24.5725C220.076 20.8283 214.983 17.8871 212.55 21.1592L175.806 70.5694L184.75 9.64322C185.343 5.60842 179.662 4.08579 178.158 7.87629L155.584 64.7801Z"/>
</mask>
<path fill-rule="evenodd" clip-rule="evenodd" d="M155.584 64.7801L148.499 3.94933C148.259 1.88729 146.617 0.874982 145 0.91239C143.384 0.874728 141.741 1.88703 141.501 3.94931L134.416 64.7801L111.842 7.87629C110.338 4.0858 104.658 5.60843 105.25 9.64323L114.194 70.5694L77.4505 21.1593C75.0172 17.8871 69.9246 20.8283 71.5407 24.5725L95.9342 81.0865L47.6842 42.893C44.487 40.3622 40.3294 44.5212 42.8593 47.7196L81.0645 96.0191L24.5252 71.5971C20.7819 69.9802 17.8424 75.0735 21.1138 77.508L70.5004 114.26L9.61536 105.316C5.58108 104.723 4.05958 110.403 7.84959 111.908L65.0734 134.626L3.93756 141.751C-0.112659 142.223 -0.112647 148.104 3.93757 148.576L65.0651 155.701L7.83737 178.42C4.04736 179.924 5.5688 185.605 9.60308 185.012L70.5097 176.065L21.1186 212.82C17.8472 215.255 20.7867 220.348 24.53 218.731L130.059 173.148C130.841 173.846 131.931 174.179 133.034 173.953C133.867 175.306 135.483 175.87 136.925 175.446C137.945 176.468 139.549 176.772 140.907 176.083C142.057 177.139 143.732 177.259 145 176.495C146.268 177.259 147.943 177.139 149.093 176.083C150.451 176.772 152.055 176.468 153.076 175.446C154.517 175.87 156.133 175.306 156.966 173.953C158.069 174.179 159.159 173.846 159.942 173.148L265.47 218.731C269.213 220.348 272.153 215.255 268.882 212.82L219.491 176.065L280.397 185.012C284.431 185.605 285.953 179.924 282.163 178.42L224.935 155.701L286.063 148.576C290.113 148.104 290.113 142.223 286.063 141.751L224.927 134.626L282.151 111.908C285.941 110.403 284.419 104.723 280.385 105.316L219.5 114.26L268.886 77.5079C272.158 75.0734 269.218 69.9802 265.475 71.5971L208.936 96.0191L247.141 47.7196C249.671 44.5212 245.513 40.3622 242.316 42.893L194.066 81.0865L218.459 24.5725C220.076 20.8283 214.983 17.8871 212.55 21.1592L175.806 70.5694L184.75 9.64322C185.343 5.60842 179.662 4.08579 178.158 7.87629L155.584 64.7801Z" fill="url(#paint0_linear_214_12109)"/>
<path d="M148.499 3.94933L147.134 4.10829L147.134 4.1083L148.499 3.94933ZM155.584 64.7801L154.219 64.9391L156.861 65.2869L155.584 64.7801ZM145 0.91239L144.968 2.28617L145 2.28692L145.032 2.28618L145 0.91239ZM141.501 3.94931L140.136 3.79033L140.136 3.79034L141.501 3.94931ZM134.416 64.7801L133.139 65.2869L135.781 64.9391L134.416 64.7801ZM111.842 7.87629L110.564 8.38302L110.564 8.38302L111.842 7.87629ZM105.25 9.64323L103.89 9.84281L103.89 9.84281L105.25 9.64323ZM114.194 70.5694L113.091 71.3893L115.553 70.3698L114.194 70.5694ZM77.4505 21.1593L76.3478 21.9792L76.3478 21.9792L77.4505 21.1593ZM71.5407 24.5725L72.8024 24.0279L72.8024 24.0279L71.5407 24.5725ZM95.9342 81.0865L95.0813 82.164L97.1958 80.5419L95.9342 81.0865ZM47.6842 42.893L46.8313 43.9704L46.8313 43.9704L47.6842 42.893ZM42.8593 47.7196L41.7816 48.5721L41.7816 48.5721L42.8593 47.7196ZM81.0645 96.0191L80.5196 97.2806L82.1423 95.1666L81.0645 96.0191ZM24.5252 71.5971L25.0701 70.3356L25.0701 70.3356L24.5252 71.5971ZM21.1138 77.508L21.9342 76.4056L21.9342 76.4056L21.1138 77.508ZM70.5004 114.26L70.3007 115.62L71.3208 113.158L70.5004 114.26ZM9.61536 105.316L9.81508 103.956L9.81508 103.956L9.61536 105.316ZM7.84959 111.908L8.35663 110.631L7.84959 111.908ZM65.0734 134.626L65.2325 135.991L65.5804 133.348L65.0734 134.626ZM3.93756 141.751L4.09665 143.116L3.93756 141.751ZM3.93757 148.576L3.77849 149.941L3.77849 149.941L3.93757 148.576ZM65.0651 155.701L65.5721 156.978L65.2241 154.336L65.0651 155.701ZM7.83737 178.42L8.3444 179.697L8.34441 179.697L7.83737 178.42ZM9.60308 185.012L9.8028 186.372L9.8028 186.372L9.60308 185.012ZM70.5097 176.065L71.3301 177.167L70.3099 174.705L70.5097 176.065ZM21.1186 212.82L20.2983 211.718L20.2983 211.718L21.1186 212.82ZM24.53 218.731L23.9851 217.469L23.9851 217.469L24.53 218.731ZM130.059 173.148L130.973 172.123L130.319 171.539L129.514 171.887L130.059 173.148ZM133.034 173.953L134.204 173.232L133.7 172.413L132.758 172.607L133.034 173.953ZM136.925 175.446L137.897 174.475L137.32 173.898L136.537 174.128L136.925 175.446ZM140.907 176.083L141.837 175.071L141.135 174.426L140.285 174.858L140.907 176.083ZM145 176.495L145.709 175.318L145 174.891L144.291 175.318L145 176.495ZM149.093 176.083L149.715 174.858L148.865 174.426L148.163 175.071L149.093 176.083ZM153.076 175.446L153.463 174.128L152.68 173.898L152.103 174.475L153.076 175.446ZM156.966 173.953L157.243 172.607L156.301 172.413L155.796 173.232L156.966 173.953ZM159.942 173.148L160.487 171.887L159.681 171.539L159.027 172.123L159.942 173.148ZM265.47 218.731L266.015 217.469L266.015 217.469L265.47 218.731ZM268.882 212.82L269.702 211.718L269.702 211.718L268.882 212.82ZM219.491 176.065L219.69 174.705L218.67 177.167L219.491 176.065ZM280.397 185.012L280.597 183.652L280.597 183.652L280.397 185.012ZM282.163 178.42L281.656 179.697L281.656 179.697L282.163 178.42ZM224.935 155.701L224.776 154.336L224.428 156.978L224.935 155.701ZM286.063 148.576L286.222 149.941L286.222 149.941L286.063 148.576ZM286.063 141.751L285.904 143.116L285.904 143.116L286.063 141.751ZM224.927 134.626L224.42 133.348L224.768 135.991L224.927 134.626ZM282.151 111.908L281.644 110.631L281.644 110.631L282.151 111.908ZM280.385 105.316L280.585 106.675L280.585 106.675L280.385 105.316ZM219.5 114.26L218.679 113.158L219.7 115.62L219.5 114.26ZM268.886 77.5079L269.707 78.6103L269.707 78.6103L268.886 77.5079ZM265.475 71.5971L264.93 70.3356L264.93 70.3356L265.475 71.5971ZM208.936 96.0191L207.858 95.1666L209.481 97.2806L208.936 96.0191ZM247.141 47.7196L246.063 46.8671L246.063 46.8671L247.141 47.7196ZM242.316 42.893L243.169 43.9704L243.169 43.9704L242.316 42.893ZM194.066 81.0865L192.804 80.5419L194.919 82.1639L194.066 81.0865ZM218.459 24.5725L217.198 24.0279L217.198 24.0279L218.459 24.5725ZM212.55 21.1592L211.447 20.3392L211.447 20.3392L212.55 21.1592ZM175.806 70.5694L174.447 70.3698L176.909 71.3893L175.806 70.5694ZM184.75 9.64322L183.391 9.44364L183.391 9.44364L184.75 9.64322ZM178.158 7.87629L179.436 8.38301L179.436 8.38301L178.158 7.87629ZM147.134 4.1083L154.219 64.9391L156.949 64.6212L149.864 3.79035L147.134 4.1083ZM145.032 2.28618C146.063 2.26232 146.99 2.86763 147.134 4.10829L149.864 3.79036C149.528 0.906949 147.171 -0.512357 144.969 -0.461397L145.032 2.28618ZM145.032 -0.461392C142.83 -0.512696 140.472 0.906528 140.136 3.79033L142.866 4.10829C143.011 2.86754 143.937 2.26215 144.968 2.28617L145.032 -0.461392ZM140.136 3.79034L133.051 64.6212L135.781 64.9391L142.866 4.10829L140.136 3.79034ZM110.564 8.38302L133.139 65.2869L135.693 64.2734L113.119 7.36957L110.564 8.38302ZM106.609 9.44364C106.254 7.01996 109.663 6.11135 110.564 8.38302L113.119 7.36957C111.013 2.06024 103.061 4.19689 103.89 9.84281L106.609 9.44364ZM115.553 70.3698L106.609 9.44364L103.89 9.84281L112.834 70.7689L115.553 70.3698ZM76.3478 21.9792L113.091 71.3893L115.296 69.7494L78.5532 20.3393L76.3478 21.9792ZM72.8024 24.0279C71.8308 21.7769 74.8908 20.0199 76.3478 21.9792L78.5532 20.3393C75.1436 15.7543 68.0185 19.8798 70.2791 25.1171L72.8024 24.0279ZM97.1958 80.5419L72.8024 24.0279L70.2791 25.1171L94.6725 81.6311L97.1958 80.5419ZM46.8313 43.9704L95.0813 82.164L96.787 80.0091L48.5371 41.8156L46.8313 43.9704ZM43.9371 46.8671C42.4156 44.9436 44.9175 42.4555 46.8313 43.9704L48.5371 41.8156C44.0566 38.2689 38.2432 44.0988 41.7816 48.5721L43.9371 46.8671ZM82.1423 95.1666L43.9371 46.8671L41.7816 48.5721L79.9868 96.8716L82.1423 95.1666ZM23.9803 72.8586L80.5196 97.2806L81.6094 94.7576L25.0701 70.3356L23.9803 72.8586ZM21.9342 76.4056C19.9673 74.9419 21.7389 71.8905 23.9803 72.8586L25.0701 70.3356C19.8248 68.07 15.7175 75.205 20.2934 78.6104L21.9342 76.4056ZM71.3208 113.158L21.9342 76.4056L20.2934 78.6104L69.68 115.363L71.3208 113.158ZM9.41563 106.675L70.3007 115.62L70.7001 112.901L9.81508 103.956L9.41563 106.675ZM8.35663 110.631C6.08005 109.727 6.9978 106.32 9.41563 106.675L9.81508 103.956C4.16436 103.126 2.03911 111.08 7.34255 113.185L8.35663 110.631ZM65.5804 133.348L8.35663 110.631L7.34255 113.185L64.5664 135.903L65.5804 133.348ZM4.09665 143.116L65.2325 135.991L64.9143 133.261L3.77847 140.386L4.09665 143.116ZM4.09666 147.211C1.6665 146.928 1.66655 143.4 4.09665 143.116L3.77847 140.386C-1.89187 141.047 -1.89179 149.28 3.77849 149.941L4.09666 147.211ZM65.2241 154.336L4.09666 147.211L3.77849 149.941L64.906 157.066L65.2241 154.336ZM8.34441 179.697L65.5721 156.978L64.558 154.424L7.33033 177.143L8.34441 179.697ZM9.40335 183.652C6.98566 184.008 6.0677 180.601 8.3444 179.697L7.33033 177.143C2.02702 179.248 4.15194 187.202 9.8028 186.372L9.40335 183.652ZM70.3099 174.705L9.40335 183.652L9.8028 186.372L70.7094 177.424L70.3099 174.705ZM21.939 213.923L71.3301 177.167L69.6893 174.962L20.2983 211.718L21.939 213.923ZM23.9851 217.469C21.7436 218.438 19.9723 215.386 21.939 213.923L20.2983 211.718C15.7222 215.123 19.8299 222.258 25.075 219.992L23.9851 217.469ZM129.514 171.887L23.9851 217.469L25.0749 219.992L130.603 174.41L129.514 171.887ZM132.758 172.607C132.1 172.742 131.447 172.545 130.973 172.123L129.144 174.174C130.235 175.147 131.763 175.616 133.31 175.299L132.758 172.607ZM131.864 174.673C133.033 176.572 135.296 177.357 137.312 176.765L136.537 174.128C135.67 174.383 134.702 174.04 134.204 173.232L131.864 174.673ZM140.285 174.858C139.475 175.269 138.511 175.09 137.897 174.475L135.952 176.417C137.38 177.847 139.624 178.276 141.529 177.308L140.285 174.858ZM139.977 177.095C141.591 178.577 143.936 178.74 145.709 177.673L144.291 175.318C143.529 175.777 142.523 175.702 141.837 175.071L139.977 177.095ZM148.163 175.071C147.477 175.702 146.471 175.777 145.709 175.318L144.291 177.673C146.064 178.74 148.41 178.577 150.023 177.095L148.163 175.071ZM148.471 177.308C150.376 178.276 152.621 177.847 154.048 176.417L152.103 174.475C151.489 175.09 150.525 175.269 149.715 174.858L148.471 177.308ZM155.796 173.232C155.299 174.04 154.33 174.383 153.463 174.128L152.688 176.765C154.704 177.357 156.967 176.572 158.136 174.673L155.796 173.232ZM156.69 175.299C158.238 175.616 159.765 175.147 160.856 174.174L159.027 172.123C158.554 172.545 157.9 172.742 157.243 172.607L156.69 175.299ZM159.397 174.41L264.925 219.992L266.015 217.469L160.487 171.887L159.397 174.41ZM264.925 219.992C270.17 222.258 274.278 215.123 269.702 211.718L268.061 213.923C270.028 215.386 268.257 218.438 266.015 217.469L264.925 219.992ZM269.702 211.718L220.311 174.962L218.67 177.167L268.061 213.923L269.702 211.718ZM219.291 177.424L280.197 186.372L280.597 183.652L219.69 174.705L219.291 177.424ZM280.197 186.372C285.848 187.202 287.973 179.248 282.67 177.143L281.656 179.697C283.933 180.601 283.015 184.008 280.597 183.652L280.197 186.372ZM282.67 177.143L225.442 154.424L224.428 156.978L281.656 179.697L282.67 177.143ZM225.094 157.066L286.222 149.941L285.904 147.211L224.776 154.336L225.094 157.066ZM286.222 149.941C291.892 149.28 291.892 141.047 286.222 140.386L285.904 143.116C288.334 143.4 288.334 146.928 285.904 147.211L286.222 149.941ZM286.222 140.386L225.086 133.261L224.768 135.991L285.904 143.116L286.222 140.386ZM225.434 135.903L282.658 113.185L281.644 110.631L224.42 133.348L225.434 135.903ZM282.658 113.185C287.961 111.08 285.836 103.126 280.185 103.956L280.585 106.675C283.002 106.32 283.92 109.727 281.644 110.631L282.658 113.185ZM280.185 103.956L219.3 112.901L219.7 115.62L280.585 106.675L280.185 103.956ZM220.32 115.363L269.707 78.6103L268.066 76.4055L218.679 113.158L220.32 115.363ZM269.707 78.6103C274.283 75.205 270.175 68.07 264.93 70.3356L266.02 72.8586C268.261 71.8905 270.033 74.9419 268.066 76.4055L269.707 78.6103ZM264.93 70.3356L208.391 94.7576L209.481 97.2806L266.02 72.8586L264.93 70.3356ZM210.013 96.8716L248.219 48.5721L246.063 46.8671L207.858 95.1666L210.013 96.8716ZM248.219 48.5721C251.757 44.0988 245.944 38.2689 241.463 41.8155L243.169 43.9704C245.083 42.4555 247.585 44.9436 246.063 46.8671L248.219 48.5721ZM241.463 41.8155L193.213 80.009L194.919 82.1639L243.169 43.9704L241.463 41.8155ZM195.328 81.6311L219.721 25.117L217.198 24.0279L192.804 80.5419L195.328 81.6311ZM219.721 25.117C221.982 19.8798 214.857 15.7542 211.447 20.3392L213.652 21.9792C215.109 20.0199 218.169 21.7769 217.198 24.0279L219.721 25.117ZM211.447 20.3392L174.704 69.7494L176.909 71.3893L213.652 21.9792L211.447 20.3392ZM177.166 70.7689L186.11 9.8428L183.391 9.44364L174.447 70.3698L177.166 70.7689ZM186.11 9.8428C186.939 4.19689 178.987 2.06023 176.881 7.36956L179.436 8.38301C180.337 6.11135 183.747 7.01995 183.391 9.44364L186.11 9.8428ZM176.881 7.36956L154.307 64.2734L156.861 65.2869L179.436 8.38301L176.881 7.36956Z" fill="#E49E18" mask="url(#path-1-inside-1_214_12109)"/>
<mask id="path-3-inside-2_214_12109" fill="white">
<path fill-rule="evenodd" clip-rule="evenodd" d="M123.248 99.687C102.947 99.687 86.4893 116.144 86.4893 136.446V136.929V173.482V173.965C86.4893 194.267 102.947 210.724 123.248 210.724H180.721C201.022 210.724 217.48 194.267 217.48 173.965V163.038C217.48 148.819 206.113 137.255 191.971 136.936V129.231C191.971 112.914 178.744 99.687 162.427 99.687H123.248Z"/>
</mask>
<path fill-rule="evenodd" clip-rule="evenodd" d="M123.248 99.687C102.947 99.687 86.4893 116.144 86.4893 136.446V136.929V173.482V173.965C86.4893 194.267 102.947 210.724 123.248 210.724H180.721C201.022 210.724 217.48 194.267 217.48 173.965V163.038C217.48 148.819 206.113 137.255 191.971 136.936V129.231C191.971 112.914 178.744 99.687 162.427 99.687H123.248Z" fill="url(#paint1_linear_214_12109)"/>
<path d="M191.971 136.936H190.597V138.28L191.94 138.31L191.971 136.936ZM87.8634 136.446C87.8634 116.903 103.706 101.061 123.248 101.061V98.3129C102.188 98.3129 85.1151 115.385 85.1151 136.446H87.8634ZM87.8634 136.929V136.446H85.1151V136.929H87.8634ZM87.8634 173.482V136.929H85.1151V173.482H87.8634ZM87.8634 173.965V173.482H85.1151V173.965H87.8634ZM123.248 209.35C103.706 209.35 87.8634 193.508 87.8634 173.965H85.1151C85.1151 195.026 102.188 212.098 123.248 212.098V209.35ZM180.721 209.35H123.248V212.098H180.721V209.35ZM216.105 173.965C216.105 193.508 200.263 209.35 180.721 209.35V212.098C201.781 212.098 218.854 195.026 218.854 173.965H216.105ZM216.105 163.038V173.965H218.854V163.038H216.105ZM191.94 138.31C205.337 138.612 216.105 149.568 216.105 163.038H218.854C218.854 148.071 206.889 135.898 192.002 135.562L191.94 138.31ZM190.597 129.231V136.936H193.345V129.231H190.597ZM162.427 101.061C177.985 101.061 190.597 113.673 190.597 129.231H193.345C193.345 112.156 179.502 98.3129 162.427 98.3129V101.061ZM123.248 101.061H162.427V98.3129H123.248V101.061Z" fill="#A898C1" mask="url(#path-3-inside-2_214_12109)"/>
<mask id="mask0_214_12109" style="mask-type:alpha" maskUnits="userSpaceOnUse" x="104" y="107" width="42" height="70">
<rect x="104.413" y="107.209" width="41.3654" height="68.9671" rx="20.6827" fill="#D9D9D9"/>
</mask>
<g mask="url(#mask0_214_12109)">
<rect x="104.413" y="142.383" width="41.3654" height="33.7939" fill="#F8F8F8"/>
</g>
<mask id="mask1_214_12109" style="mask-type:alpha" maskUnits="userSpaceOnUse" x="104" y="142" width="42" height="35">
<mask id="mask2_214_12109" style="mask-type:alpha" maskUnits="userSpaceOnUse" x="104" y="107" width="42" height="70">
<rect x="104.413" y="107.209" width="41.3654" height="68.9671" rx="20.6827" fill="#D9D9D9"/>
</mask>
<g mask="url(#mask2_214_12109)">
<rect x="104.413" y="142.383" width="41.3654" height="33.7939" fill="#D9D9D9"/>
</g>
</mask>
<g mask="url(#mask1_214_12109)">
<ellipse cx="122.683" cy="152.038" rx="13.4437" ry="20.6901" fill="#191919"/>
</g>
<ellipse cx="128.543" cy="161.694" rx="3.44711" ry="3.44836" fill="#F8F8F8"/>
<rect x="104.413" y="141.693" width="41.3654" height="1.37934" fill="black"/>
<mask id="mask3_214_12109" style="mask-type:alpha" maskUnits="userSpaceOnUse" x="157" y="107" width="42" height="70">
<rect x="157.499" y="107.209" width="41.3654" height="68.9671" rx="20.6827" fill="#D9D9D9"/>
</mask>
<g mask="url(#mask3_214_12109)">
<rect x="157.499" y="142.383" width="41.3654" height="33.7939" fill="#F8F8F8"/>
</g>
<mask id="mask4_214_12109" style="mask-type:alpha" maskUnits="userSpaceOnUse" x="157" y="142" width="42" height="35">
<mask id="mask5_214_12109" style="mask-type:alpha" maskUnits="userSpaceOnUse" x="157" y="107" width="42" height="70">
<rect x="157.499" y="107.209" width="41.3654" height="68.9671" rx="20.6827" fill="#D9D9D9"/>
</mask>
<g mask="url(#mask5_214_12109)">
<rect x="157.499" y="142.383" width="41.3654" height="33.7939" fill="#D9D9D9"/>
</g>
</mask>
<g mask="url(#mask4_214_12109)">
<ellipse cx="175.079" cy="152.038" rx="13.4437" ry="20.6901" fill="#191919"/>
</g>
<ellipse cx="181.628" cy="161.694" rx="3.44711" ry="3.44836" fill="#F8F8F8"/>
<rect x="157.499" y="141.693" width="41.3654" height="1.37934" fill="black"/>
<path fill-rule="evenodd" clip-rule="evenodd" d="M255.407 94.2207C233.763 117.418 217.495 124.343 202.557 125.964L202.422 125.978L202.289 126.001C189.968 128.043 180.558 126.325 173.29 122.914C169.379 121.079 165.996 118.71 163.061 116.049C163.865 114.844 164.656 113.589 165.434 112.283C169.492 105.471 168.938 97.8044 166.057 92.14C163.296 86.7116 157.499 81.754 150.334 83.094C143.997 84.2791 141.261 89.9876 141.269 95.6014C141.276 101.198 143.748 107.788 148.602 114.335C149.199 115.141 149.825 115.947 150.479 116.749C143.073 125.414 135.515 128.806 129.168 129.134C120.878 129.562 113.198 124.859 108.683 116.815C107.378 114.49 104.436 113.664 102.112 114.969C99.788 116.275 98.9619 119.218 100.267 121.543C106.266 132.23 117.116 139.425 129.666 138.777C139.072 138.291 148.62 133.454 157.182 123.742C160.605 126.755 164.579 129.491 169.191 131.655C178.353 135.955 189.72 137.847 203.733 135.548C221.519 133.586 239.755 125.146 262.463 100.809C264.282 98.8598 264.176 95.8049 262.228 93.9856C260.28 92.1663 257.226 92.2716 255.407 94.2207ZM156.373 108.607C156.367 108.599 156.361 108.591 156.355 108.583C152.301 103.115 150.925 98.4968 150.921 95.5886C150.917 92.779 151.946 92.6113 152.097 92.5868C152.101 92.5861 152.105 92.5855 152.108 92.585C153.413 92.3408 155.75 93.1662 157.454 96.5183C159.039 99.6345 159.284 103.746 157.143 107.341C156.887 107.77 156.63 108.193 156.373 108.607Z" fill="url(#paint2_linear_214_12109)" stroke="#4C2D37" stroke-width="1.37415" stroke-linecap="round"/>
<defs>
<linearGradient id="paint0_linear_214_12109" x1="145" y1="0.911377" x2="145" y2="219.042" gradientUnits="userSpaceOnUse">
<stop stop-color="#FFBA33"/>
<stop offset="1" stop-color="#DDAB4C" stop-opacity="0.26"/>
</linearGradient>
<linearGradient id="paint1_linear_214_12109" x1="151.984" y1="99.687" x2="151.984" y2="210.724" gradientUnits="userSpaceOnUse">
<stop stop-color="#E8DEF8"/>
<stop offset="1" stop-color="#7EBCB9"/>
</linearGradient>
<linearGradient id="paint2_linear_214_12109" x1="187.397" y1="138.812" x2="176.078" y2="78.2797" gradientUnits="userSpaceOnUse">
<stop stop-color="#945E78"/>
<stop offset="1" stop-color="#431F2B"/>
</linearGradient>
</defs>
</svg>
