<svg width="290" height="220" viewBox="0 0 290 220" fill="none" xmlns="http://www.w3.org/2000/svg">
<mask id="path-1-inside-1_214_12117" fill="white">
<path fill-rule="evenodd" clip-rule="evenodd" d="M155.584 64.7802L148.499 3.94945C148.259 1.88741 146.617 0.875104 145 0.912512C143.384 0.87485 141.741 1.88716 141.501 3.94943L134.416 64.7802L111.842 7.87642C110.338 4.08592 104.658 5.60855 105.25 9.64335L114.194 70.5695L77.4505 21.1594C75.0172 17.8872 69.9246 20.8285 71.5407 24.5726L95.9341 81.0864L47.6842 42.893C44.487 40.3621 40.3294 44.5212 42.8593 47.7195L81.0647 96.0193L24.5252 71.5972C20.7819 69.9804 17.8424 75.0736 21.1138 77.5081L70.5003 114.26L9.61536 105.316C5.58108 104.723 4.05958 110.404 7.84959 111.908L65.0734 134.626L3.93756 141.751C-0.112659 142.224 -0.112647 148.104 3.93757 148.576L65.0651 155.701L7.83737 178.42C4.04736 179.925 5.5688 185.605 9.60308 185.012L70.5097 176.065L21.1186 212.82C17.8472 215.255 20.7867 220.348 24.53 218.731L130.058 173.148C130.841 173.846 131.931 174.179 133.034 173.953C133.867 175.306 135.483 175.87 136.925 175.446C137.945 176.469 139.55 176.772 140.907 176.083C142.057 177.139 143.732 177.259 145 176.495C146.268 177.259 147.943 177.139 149.093 176.083C150.451 176.772 152.055 176.469 153.076 175.447C154.517 175.87 156.133 175.306 156.966 173.953C158.069 174.179 159.16 173.846 159.942 173.148L265.47 218.731C269.213 220.348 272.153 215.255 268.882 212.82L219.491 176.065L280.397 185.012C284.431 185.605 285.953 179.924 282.163 178.42L224.935 155.701L286.063 148.576C290.113 148.104 290.113 142.224 286.063 141.751L224.927 134.626L282.151 111.908C285.941 110.404 284.419 104.723 280.385 105.316L219.5 114.26L268.886 77.5081C272.158 75.0736 269.218 69.9803 265.475 71.5972L208.935 96.0193L247.141 47.7195C249.671 44.5212 245.513 40.3621 242.316 42.8929L194.066 81.0864L218.459 24.5726C220.076 20.8285 214.983 17.8872 212.55 21.1594L175.806 70.5695L184.75 9.64334C185.343 5.60854 179.662 4.08591 178.158 7.87641L155.584 64.7802Z"/>
</mask>
<path fill-rule="evenodd" clip-rule="evenodd" d="M155.584 64.7802L148.499 3.94945C148.259 1.88741 146.617 0.875104 145 0.912512C143.384 0.87485 141.741 1.88716 141.501 3.94943L134.416 64.7802L111.842 7.87642C110.338 4.08592 104.658 5.60855 105.25 9.64335L114.194 70.5695L77.4505 21.1594C75.0172 17.8872 69.9246 20.8285 71.5407 24.5726L95.9341 81.0864L47.6842 42.893C44.487 40.3621 40.3294 44.5212 42.8593 47.7195L81.0647 96.0193L24.5252 71.5972C20.7819 69.9804 17.8424 75.0736 21.1138 77.5081L70.5003 114.26L9.61536 105.316C5.58108 104.723 4.05958 110.404 7.84959 111.908L65.0734 134.626L3.93756 141.751C-0.112659 142.224 -0.112647 148.104 3.93757 148.576L65.0651 155.701L7.83737 178.42C4.04736 179.925 5.5688 185.605 9.60308 185.012L70.5097 176.065L21.1186 212.82C17.8472 215.255 20.7867 220.348 24.53 218.731L130.058 173.148C130.841 173.846 131.931 174.179 133.034 173.953C133.867 175.306 135.483 175.87 136.925 175.446C137.945 176.469 139.55 176.772 140.907 176.083C142.057 177.139 143.732 177.259 145 176.495C146.268 177.259 147.943 177.139 149.093 176.083C150.451 176.772 152.055 176.469 153.076 175.447C154.517 175.87 156.133 175.306 156.966 173.953C158.069 174.179 159.16 173.846 159.942 173.148L265.47 218.731C269.213 220.348 272.153 215.255 268.882 212.82L219.491 176.065L280.397 185.012C284.431 185.605 285.953 179.924 282.163 178.42L224.935 155.701L286.063 148.576C290.113 148.104 290.113 142.224 286.063 141.751L224.927 134.626L282.151 111.908C285.941 110.404 284.419 104.723 280.385 105.316L219.5 114.26L268.886 77.5081C272.158 75.0736 269.218 69.9803 265.475 71.5972L208.935 96.0193L247.141 47.7195C249.671 44.5212 245.513 40.3621 242.316 42.8929L194.066 81.0864L218.459 24.5726C220.076 20.8285 214.983 17.8872 212.55 21.1594L175.806 70.5695L184.75 9.64334C185.343 5.60854 179.662 4.08591 178.158 7.87641L155.584 64.7802Z" fill="url(#paint0_linear_214_12117)"/>
<path d="M148.499 3.94945L147.134 4.10842L147.134 4.10842L148.499 3.94945ZM155.584 64.7802L154.219 64.9392L156.861 65.287L155.584 64.7802ZM145 0.912512L144.968 2.28629L145 2.28704L145.032 2.2863L145 0.912512ZM141.501 3.94943L140.136 3.79045L140.136 3.79046L141.501 3.94943ZM134.416 64.7802L133.139 65.287L135.781 64.9392L134.416 64.7802ZM111.842 7.87642L110.564 8.38314L110.564 8.38314L111.842 7.87642ZM105.25 9.64335L103.89 9.84293L103.89 9.84293L105.25 9.64335ZM114.194 70.5695L113.091 71.3895L115.553 70.3699L114.194 70.5695ZM77.4505 21.1594L76.3478 21.9794L76.3478 21.9794L77.4505 21.1594ZM71.5407 24.5726L72.8024 24.028L72.8024 24.028L71.5407 24.5726ZM95.9341 81.0864L95.0812 82.1638L97.1957 80.5418L95.9341 81.0864ZM47.6842 42.893L46.8313 43.9704L46.8313 43.9704L47.6842 42.893ZM42.8593 47.7195L41.7816 48.572L41.7816 48.572L42.8593 47.7195ZM81.0647 96.0193L80.5198 97.2808L82.1425 95.1668L81.0647 96.0193ZM24.5252 71.5972L25.0701 70.3357L25.0701 70.3357L24.5252 71.5972ZM21.1138 77.5081L21.9342 76.4057L21.9342 76.4057L21.1138 77.5081ZM70.5003 114.26L70.3005 115.62L71.3206 113.158L70.5003 114.26ZM9.61536 105.316L9.81508 103.956L9.81508 103.956L9.61536 105.316ZM7.84959 111.908L7.34255 113.185L7.84959 111.908ZM65.0734 134.626L65.2325 135.991L65.5805 133.349L65.0734 134.626ZM3.93756 141.751L3.77847 140.387L3.93756 141.751ZM3.93757 148.576L3.77849 149.941L3.77849 149.941L3.93757 148.576ZM65.0651 155.701L65.5721 156.978L65.2242 154.336L65.0651 155.701ZM7.83737 178.42L8.3444 179.697L8.34441 179.697L7.83737 178.42ZM9.60308 185.012L9.8028 186.372L9.8028 186.372L9.60308 185.012ZM70.5097 176.065L71.3301 177.167L70.3099 174.705L70.5097 176.065ZM21.1186 212.82L20.2983 211.718L20.2983 211.718L21.1186 212.82ZM24.53 218.731L23.9851 217.469L23.9851 217.469L24.53 218.731ZM130.058 173.148L130.973 172.123L130.319 171.539L129.514 171.887L130.058 173.148ZM133.034 173.953L134.204 173.232L133.7 172.414L132.758 172.607L133.034 173.953ZM136.925 175.446L137.897 174.475L137.32 173.898L136.537 174.128L136.925 175.446ZM140.907 176.083L141.837 175.071L141.135 174.426L140.285 174.858L140.907 176.083ZM145 176.495L145.709 175.318L145 174.891L144.291 175.318L145 176.495ZM149.093 176.083L149.715 174.858L148.865 174.426L148.163 175.071L149.093 176.083ZM153.076 175.447L153.463 174.128L152.68 173.898L152.103 174.475L153.076 175.447ZM156.966 173.953L157.243 172.607L156.301 172.414L155.796 173.232L156.966 173.953ZM159.942 173.148L160.487 171.887L159.682 171.539L159.027 172.123L159.942 173.148ZM265.47 218.731L266.015 217.469L266.015 217.469L265.47 218.731ZM268.882 212.82L269.702 211.718L269.702 211.718L268.882 212.82ZM219.491 176.065L219.69 174.705L218.67 177.167L219.491 176.065ZM280.397 185.012L280.597 183.653L280.597 183.653L280.397 185.012ZM282.163 178.42L281.656 179.697L281.656 179.697L282.163 178.42ZM224.935 155.701L224.776 154.336L224.428 156.978L224.935 155.701ZM286.063 148.576L286.222 149.941L286.222 149.941L286.063 148.576ZM286.063 141.751L285.904 143.116L285.904 143.116L286.063 141.751ZM224.927 134.626L224.42 133.349L224.768 135.991L224.927 134.626ZM282.151 111.908L281.644 110.631L281.644 110.631L282.151 111.908ZM280.385 105.316L280.585 106.675L280.585 106.675L280.385 105.316ZM219.5 114.26L218.68 113.158L219.7 115.62L219.5 114.26ZM268.886 77.5081L269.707 78.6105L269.707 78.6105L268.886 77.5081ZM265.475 71.5972L264.93 70.3357L264.93 70.3357L265.475 71.5972ZM208.935 96.0193L207.858 95.1668L209.48 97.2808L208.935 96.0193ZM247.141 47.7195L246.063 46.867L246.063 46.867L247.141 47.7195ZM242.316 42.8929L243.169 43.9704L243.169 43.9704L242.316 42.8929ZM194.066 81.0864L192.804 80.5418L194.919 82.1638L194.066 81.0864ZM218.459 24.5726L217.198 24.028L217.198 24.028L218.459 24.5726ZM212.55 21.1594L211.447 20.3394L211.447 20.3394L212.55 21.1594ZM175.806 70.5695L174.447 70.3699L176.909 71.3895L175.806 70.5695ZM184.75 9.64334L183.391 9.44376L183.391 9.44376L184.75 9.64334ZM178.158 7.87641L179.436 8.38313L179.436 8.38313L178.158 7.87641ZM147.134 4.10842L154.219 64.9392L156.949 64.6213L149.864 3.79047L147.134 4.10842ZM145.032 2.2863C146.063 2.26244 146.99 2.86776 147.134 4.10842L149.864 3.79048C149.528 0.907071 147.171 -0.512235 144.969 -0.461275L145.032 2.2863ZM145.032 -0.46127C142.83 -0.512574 140.472 0.90665 140.136 3.79045L142.866 4.10841C143.011 2.86766 143.937 2.26227 144.968 2.28629L145.032 -0.46127ZM140.136 3.79046L133.051 64.6213L135.781 64.9392L142.866 4.10841L140.136 3.79046ZM110.564 8.38314L133.139 65.287L135.693 64.2735L113.119 7.3697L110.564 8.38314ZM106.609 9.44377C106.254 7.02008 109.663 6.11148 110.564 8.38314L113.119 7.3697C111.013 2.06037 103.061 4.19702 103.89 9.84293L106.609 9.44377ZM115.553 70.3699L106.609 9.44377L103.89 9.84293L112.834 70.7691L115.553 70.3699ZM76.3478 21.9794L113.091 71.3895L115.296 69.7495L78.5532 20.3394L76.3478 21.9794ZM72.8024 24.028C71.8308 21.777 74.8908 20.02 76.3478 21.9794L78.5532 20.3394C75.1436 15.7544 68.0185 19.8799 70.2791 25.1172L72.8024 24.028ZM97.1957 80.5418L72.8024 24.028L70.2791 25.1172L94.6724 81.6309L97.1957 80.5418ZM46.8313 43.9704L95.0812 82.1638L96.7869 80.0089L48.5371 41.8155L46.8313 43.9704ZM43.9371 46.867C42.4156 44.9436 44.9175 42.4554 46.8313 43.9704L48.5371 41.8155C44.0566 38.2688 38.2432 44.0988 41.7816 48.572L43.9371 46.867ZM82.1425 95.1668L43.9371 46.867L41.7816 48.572L79.987 96.8718L82.1425 95.1668ZM23.9803 72.8587L80.5198 97.2808L81.6096 94.7578L25.0701 70.3357L23.9803 72.8587ZM21.9342 76.4057C19.9673 74.942 21.7389 71.8906 23.9803 72.8588L25.0701 70.3357C19.8248 68.0701 15.7175 75.2052 20.2934 78.6105L21.9342 76.4057ZM71.3206 113.158L21.9342 76.4057L20.2934 78.6105L69.6799 115.363L71.3206 113.158ZM9.41563 106.676L70.3005 115.62L70.7 112.901L9.81508 103.956L9.41563 106.676ZM8.35663 110.631C6.08005 109.727 6.9978 106.32 9.41563 106.676L9.81508 103.956C4.16436 103.126 2.03911 111.08 7.34255 113.185L8.35663 110.631ZM65.5805 133.349L8.35663 110.631L7.34255 113.185L64.5664 135.903L65.5805 133.349ZM4.09665 143.116L65.2325 135.991L64.9143 133.261L3.77847 140.387L4.09665 143.116ZM4.09666 147.211C1.6665 146.928 1.66655 143.4 4.09665 143.116L3.77847 140.387C-1.89187 141.047 -1.89179 149.28 3.77849 149.941L4.09666 147.211ZM65.2242 154.336L4.09666 147.211L3.77849 149.941L64.906 157.066L65.2242 154.336ZM8.34441 179.697L65.5721 156.978L64.558 154.424L7.33033 177.143L8.34441 179.697ZM9.40335 183.653C6.98566 184.008 6.0677 180.601 8.3444 179.697L7.33033 177.143C2.02702 179.248 4.15194 187.202 9.8028 186.372L9.40335 183.653ZM70.3099 174.705L9.40335 183.653L9.8028 186.372L70.7094 177.424L70.3099 174.705ZM21.939 213.923L71.3301 177.167L69.6893 174.962L20.2983 211.718L21.939 213.923ZM23.9851 217.469C21.7436 218.438 19.9723 215.386 21.939 213.923L20.2983 211.718C15.7222 215.123 19.8299 222.258 25.075 219.992L23.9851 217.469ZM129.514 171.887L23.9851 217.469L25.0749 219.992L130.603 174.41L129.514 171.887ZM132.758 172.607C132.1 172.742 131.447 172.545 130.973 172.123L129.144 174.174C130.235 175.147 131.763 175.617 133.31 175.299L132.758 172.607ZM131.864 174.674C133.033 176.572 135.296 177.357 137.312 176.765L136.537 174.128C135.67 174.383 134.702 174.041 134.204 173.232L131.864 174.674ZM140.285 174.858C139.475 175.269 138.511 175.091 137.897 174.475L135.952 176.418C137.38 177.847 139.624 178.276 141.529 177.308L140.285 174.858ZM139.978 177.095C141.591 178.577 143.936 178.74 145.709 177.672L144.291 175.318C143.529 175.777 142.523 175.701 141.837 175.071L139.978 177.095ZM148.163 175.071C147.477 175.701 146.471 175.777 145.709 175.318L144.291 177.672C146.064 178.74 148.409 178.577 150.023 177.095L148.163 175.071ZM148.471 177.308C150.376 178.276 152.621 177.847 154.048 176.418L152.103 174.475C151.489 175.091 150.525 175.269 149.715 174.858L148.471 177.308ZM155.796 173.232C155.299 174.041 154.33 174.383 153.463 174.128L152.688 176.765C154.704 177.357 156.967 176.572 158.136 174.674L155.796 173.232ZM156.69 175.299C158.238 175.617 159.765 175.147 160.856 174.174L159.027 172.123C158.554 172.545 157.9 172.742 157.243 172.607L156.69 175.299ZM159.397 174.41L264.925 219.992L266.015 217.469L160.487 171.887L159.397 174.41ZM264.925 219.992C270.17 222.258 274.278 215.123 269.702 211.718L268.061 213.923C270.028 215.386 268.257 218.438 266.015 217.469L264.925 219.992ZM269.702 211.718L220.311 174.962L218.67 177.167L268.061 213.923L269.702 211.718ZM219.291 177.424L280.197 186.372L280.597 183.653L219.69 174.705L219.291 177.424ZM280.197 186.372C285.848 187.202 287.973 179.248 282.67 177.143L281.656 179.697C283.933 180.601 283.015 184.008 280.597 183.653L280.197 186.372ZM282.67 177.143L225.442 154.424L224.428 156.978L281.656 179.697L282.67 177.143ZM225.094 157.066L286.222 149.941L285.904 147.211L224.776 154.336L225.094 157.066ZM286.222 149.941C291.892 149.28 291.892 141.047 286.222 140.387L285.904 143.116C288.334 143.4 288.334 146.928 285.904 147.211L286.222 149.941ZM286.222 140.387L225.086 133.261L224.768 135.991L285.904 143.116L286.222 140.387ZM225.434 135.903L282.658 113.185L281.644 110.631L224.42 133.349L225.434 135.903ZM282.658 113.185C287.961 111.08 285.836 103.126 280.185 103.956L280.585 106.675C283.002 106.32 283.92 109.727 281.644 110.631L282.658 113.185ZM280.185 103.956L219.3 112.901L219.7 115.62L280.585 106.675L280.185 103.956ZM220.32 115.363L269.707 78.6105L268.066 76.4057L218.68 113.158L220.32 115.363ZM269.707 78.6105C274.283 75.2051 270.175 68.0701 264.93 70.3357L266.02 72.8587C268.261 71.8906 270.033 74.942 268.066 76.4057L269.707 78.6105ZM264.93 70.3357L208.391 94.7578L209.48 97.2808L266.02 72.8587L264.93 70.3357ZM210.013 96.8718L248.219 48.572L246.063 46.867L207.858 95.1668L210.013 96.8718ZM248.219 48.572C251.757 44.0988 245.944 38.2688 241.463 41.8155L243.169 43.9704C245.083 42.4554 247.585 44.9436 246.063 46.867L248.219 48.572ZM241.463 41.8155L193.213 80.0089L194.919 82.1638L243.169 43.9704L241.463 41.8155ZM195.328 81.6309L219.721 25.1172L217.198 24.028L192.804 80.5418L195.328 81.6309ZM219.721 25.1172C221.982 19.8799 214.857 15.7544 211.447 20.3394L213.652 21.9794C215.109 20.02 218.169 21.777 217.198 24.028L219.721 25.1172ZM211.447 20.3394L174.704 69.7495L176.909 71.3895L213.652 21.9794L211.447 20.3394ZM177.166 70.7691L186.11 9.84293L183.391 9.44376L174.447 70.3699L177.166 70.7691ZM186.11 9.84293C186.939 4.19702 178.987 2.06035 176.881 7.36969L179.436 8.38313C180.337 6.11147 183.747 7.02007 183.391 9.44376L186.11 9.84293ZM176.881 7.36969L154.307 64.2735L156.861 65.287L179.436 8.38313L176.881 7.36969Z" fill="#E49E18" mask="url(#path-1-inside-1_214_12117)"/>
<mask id="path-3-inside-2_214_12117" fill="white">
<path fill-rule="evenodd" clip-rule="evenodd" d="M123.248 105.204C102.947 105.204 86.4893 121.662 86.4893 141.963V142.447V178.999V179.483C86.4893 199.784 102.947 216.242 123.248 216.242H180.721C201.022 216.242 217.48 199.784 217.48 179.483V168.556C217.48 154.337 206.113 142.773 191.971 142.453V134.749C191.971 118.432 178.744 105.204 162.427 105.204H123.248Z"/>
</mask>
<path fill-rule="evenodd" clip-rule="evenodd" d="M123.248 105.204C102.947 105.204 86.4893 121.662 86.4893 141.963V142.447V178.999V179.483C86.4893 199.784 102.947 216.242 123.248 216.242H180.721C201.022 216.242 217.48 199.784 217.48 179.483V168.556C217.48 154.337 206.113 142.773 191.971 142.453V134.749C191.971 118.432 178.744 105.204 162.427 105.204H123.248Z" fill="url(#paint1_linear_214_12117)"/>
<path d="M191.971 142.453H190.597V143.797L191.94 143.827L191.971 142.453ZM87.8634 141.963C87.8634 122.421 103.706 106.579 123.248 106.579V103.83C102.188 103.83 85.1151 120.903 85.1151 141.963H87.8634ZM87.8634 142.447V141.963H85.1151V142.447H87.8634ZM87.8634 178.999V142.447H85.1151V178.999H87.8634ZM87.8634 179.483V178.999H85.1151V179.483H87.8634ZM123.248 214.867C103.706 214.867 87.8634 199.025 87.8634 179.483H85.1151C85.1151 200.543 102.188 217.616 123.248 217.616V214.867ZM180.721 214.867H123.248V217.616H180.721V214.867ZM216.105 179.483C216.105 199.025 200.263 214.867 180.721 214.867V217.616C201.781 217.616 218.854 200.543 218.854 179.483H216.105ZM216.105 168.556V179.483H218.854V168.556H216.105ZM191.94 143.827C205.337 144.13 216.105 155.085 216.105 168.556H218.854C218.854 153.588 206.889 141.416 192.002 141.08L191.94 143.827ZM190.597 134.749V142.453H193.345V134.749H190.597ZM162.427 106.579C177.985 106.579 190.597 119.191 190.597 134.749H193.345C193.345 117.673 179.502 103.83 162.427 103.83V106.579ZM123.248 106.579H162.427V103.83H123.248V106.579Z" fill="#A898C1" mask="url(#path-3-inside-2_214_12117)"/>
<rect x="96.1392" y="134.104" width="39.9912" height="53.1099" rx="19.9956" fill="#F8F8F8" stroke="#C6C6C6" stroke-width="1.37415"/>
<rect x="149.225" y="134.104" width="39.9912" height="53.1099" rx="19.9956" fill="#F8F8F8" stroke="#C6C6C6" stroke-width="1.37415"/>
<rect x="105.793" y="144.452" width="26.8875" height="37.2423" rx="13.4437" fill="#191919"/>
<rect x="158.879" y="144.452" width="26.8875" height="37.2423" rx="13.4437" fill="#191919"/>
<ellipse cx="114.067" cy="154.797" rx="3.44711" ry="3.44836" fill="#F8F8F8"/>
<ellipse cx="167.152" cy="154.797" rx="3.44711" ry="3.44836" fill="#F8F8F8"/>
<path fill-rule="evenodd" clip-rule="evenodd" d="M246.443 87.3242C224.799 110.521 208.531 117.447 193.593 119.067L193.458 119.082L193.325 119.104C181.004 121.146 171.595 119.428 164.326 116.017C160.415 114.182 157.033 111.814 154.097 109.152C154.901 107.947 155.693 106.692 156.47 105.387C160.528 98.5742 159.974 90.9079 157.093 85.2435C154.332 79.8151 148.535 74.8576 141.37 76.1975C135.033 77.3827 132.297 83.0911 132.305 88.705C132.312 94.3018 134.784 100.891 139.638 107.439C140.236 108.244 140.861 109.05 141.515 109.853C134.109 118.518 126.551 121.91 120.204 122.238C111.914 122.666 104.234 117.963 99.7189 109.919C98.414 107.594 95.4721 106.768 93.1481 108.073C90.8241 109.378 89.998 112.321 91.303 114.646C97.3019 125.334 108.152 132.528 120.702 131.88C130.108 131.395 139.657 126.558 148.218 116.845C151.642 119.859 155.615 122.595 160.227 124.759C169.389 129.058 180.756 130.95 194.769 128.652C212.555 126.689 230.791 118.249 253.499 93.9125C255.318 91.9634 255.213 88.9084 253.264 87.0891C251.316 85.2698 248.262 85.3751 246.443 87.3242ZM147.409 101.711C147.403 101.703 147.397 101.695 147.391 101.687C143.337 96.219 141.961 91.6003 141.957 88.6921C141.953 85.8825 142.982 85.7148 143.133 85.6903C143.137 85.6896 143.141 85.689 143.144 85.6885C144.449 85.4443 146.786 86.2697 148.491 89.6219C150.075 92.738 150.32 96.8499 148.179 100.444C147.923 100.874 147.666 101.296 147.409 101.711Z" fill="url(#paint2_linear_214_12117)" stroke="#4C2D37" stroke-width="1.37415" stroke-linecap="round"/>
<defs>
<linearGradient id="paint0_linear_214_12117" x1="145" y1="0.911499" x2="145" y2="219.042" gradientUnits="userSpaceOnUse">
<stop stop-color="#FFBA33"/>
<stop offset="1" stop-color="#DDAB4C" stop-opacity="0.26"/>
</linearGradient>
<linearGradient id="paint1_linear_214_12117" x1="151.984" y1="105.204" x2="151.984" y2="216.242" gradientUnits="userSpaceOnUse">
<stop stop-color="#E8DEF8"/>
<stop offset="1" stop-color="#7EBCB9"/>
</linearGradient>
<linearGradient id="paint2_linear_214_12117" x1="178.434" y1="131.915" x2="167.114" y2="71.3833" gradientUnits="userSpaceOnUse">
<stop stop-color="#945E78"/>
<stop offset="1" stop-color="#431F2B"/>
</linearGradient>
</defs>
</svg>
