<svg width="24" height="24" viewBox="0 0 24 24" fill="none" xmlns="http://www.w3.org/2000/svg">
<g id="icon-pluscancel">
<path id="Union" fill-rule="evenodd" clip-rule="evenodd" d="M5.63606 5.63604C5.24553 6.02656 5.24553 6.65973 5.63606 7.05025L10.5858 12L5.63606 16.9497C5.24553 17.3403 5.24553 17.9734 5.63606 18.364C6.02658 18.7545 6.65975 18.7545 7.05027 18.364L12 13.4142L16.9498 18.364C17.3403 18.7545 17.9735 18.7545 18.364 18.364C18.7545 17.9734 18.7545 17.3403 18.364 16.9497L13.4142 12L18.364 7.05025C18.7545 6.65973 18.7545 6.02656 18.364 5.63604C17.9735 5.24551 17.3403 5.24551 16.9498 5.63604L12 10.5858L7.05027 5.63604C6.65974 5.24551 6.02658 5.24551 5.63606 5.63604Z" fill="#7D8189"/>
</g>
</svg>
