<svg width="244" height="190" viewBox="0 0 244 190" fill="none" xmlns="http://www.w3.org/2000/svg">
<path fill-rule="evenodd" clip-rule="evenodd" d="M122 115.452C119.126 118.383 115.986 121.063 112.62 123.456C97.3922 136.843 82.6663 147.312 69.9073 156.382L69.9068 156.383C52.2667 168.923 38.3867 178.791 32.1392 190C-2.69086 151.409 -3.08427 83.9407 2.93648 55.7552C8.93703 24.0296 37.393 0 71.5915 0C91.4055 0 109.292 8.06631 122 21.0222C134.708 8.06631 152.594 0 172.408 0C206.606 0 235.061 24.0278 241.063 55.7516C247.084 83.9349 246.692 151.407 211.861 190C205.613 178.791 191.733 168.923 174.093 156.383C161.334 147.312 146.608 136.843 131.381 123.457C128.014 121.063 124.874 118.383 122 115.452Z" fill="url(#paint0_linear_214_12114)"/>
<mask id="path-2-inside-1_214_12114" fill="white">
<path fill-rule="evenodd" clip-rule="evenodd" d="M95.5018 69.7817C75.2006 69.7817 58.7432 86.2392 58.7432 106.54V107.091V143.709V144.259C58.7432 164.561 75.2006 181.018 95.5018 181.018H153.291C173.593 181.018 190.05 164.561 190.05 144.259V133.2C190.05 118.96 178.651 107.383 164.48 107.096V99.3261C164.48 83.0092 151.252 69.7817 134.935 69.7817H95.5018Z"/>
</mask>
<path fill-rule="evenodd" clip-rule="evenodd" d="M95.5018 69.7817C75.2006 69.7817 58.7432 86.2392 58.7432 106.54V107.091V143.709V144.259C58.7432 164.561 75.2006 181.018 95.5018 181.018H153.291C173.593 181.018 190.05 164.561 190.05 144.259V133.2C190.05 118.96 178.651 107.383 164.48 107.096V99.3261C164.48 83.0092 151.252 69.7817 134.935 69.7817H95.5018Z" fill="url(#paint1_linear_214_12114)"/>
<path d="M164.48 107.096H163.106V108.443L164.452 108.47L164.48 107.096ZM60.1173 106.54C60.1173 86.9981 75.9595 71.1559 95.5018 71.1559V68.4076C74.4416 68.4076 57.369 85.4802 57.369 106.54H60.1173ZM60.1173 107.091V106.54H57.369V107.091H60.1173ZM60.1173 143.709V107.091H57.369V143.709H60.1173ZM60.1173 144.259V143.709H57.369V144.259H60.1173ZM95.5018 179.644C75.9595 179.644 60.1173 163.802 60.1173 144.259H57.369C57.369 165.32 74.4417 182.392 95.5018 182.392V179.644ZM153.291 179.644H95.5018V182.392H153.291V179.644ZM188.676 144.259C188.676 163.802 172.834 179.644 153.291 179.644V182.392C174.352 182.392 191.424 165.32 191.424 144.259H188.676ZM188.676 133.2V144.259H191.424V133.2H188.676ZM164.452 108.47C177.877 108.742 188.676 119.71 188.676 133.2H191.424C191.424 118.211 179.425 106.024 164.508 105.722L164.452 108.47ZM163.106 99.3261V107.096H165.854V99.3261H163.106ZM134.935 71.1559C150.493 71.1559 163.106 83.7681 163.106 99.3261H165.854C165.854 82.2503 152.011 68.4076 134.935 68.4076V71.1559ZM95.5018 71.1559H134.935V68.4076H95.5018V71.1559Z" fill="#A898C1" mask="url(#path-2-inside-1_214_12114)"/>
<rect x="71.1783" y="101.56" width="40.0912" height="53.2077" rx="20.0456" fill="#F8F8F8" stroke="#C6C6C6" stroke-width="1.37415"/>
<rect x="124.392" y="101.56" width="40.0912" height="53.2077" rx="20.0456" fill="#F8F8F8" stroke="#C6C6C6" stroke-width="1.37415"/>
<rect x="80.8574" y="111.927" width="26.9525" height="37.3091" rx="13.4762" fill="#191919"/>
<rect x="134.071" y="111.927" width="26.9525" height="37.3091" rx="13.4762" fill="#191919"/>
<ellipse cx="89.1508" cy="122.291" rx="3.45545" ry="3.45455" fill="#F8F8F8"/>
<ellipse cx="142.365" cy="122.291" rx="3.45545" ry="3.45455" fill="#F8F8F8"/>
<path fill-rule="evenodd" clip-rule="evenodd" d="M223.231 58.8427C201.534 82.0815 185.227 89.0191 170.253 90.6428L170.118 90.6574L169.984 90.6796C157.633 92.7254 148.201 91.0043 140.915 87.5874C136.995 85.7491 133.604 83.3762 130.662 80.7098C131.468 79.5027 132.261 78.2455 133.04 76.9375C137.108 70.113 136.553 62.4329 133.665 56.7583C130.897 51.3201 125.086 46.3537 117.904 47.6961C111.551 48.8834 108.809 54.602 108.817 60.226C108.824 65.8329 111.302 72.434 116.168 78.9934C116.767 79.8002 117.393 80.6078 118.049 81.4116C110.625 90.092 103.049 93.4906 96.6868 93.8189C88.3767 94.2476 80.678 89.5362 76.152 81.4778C74.8439 79.1488 71.8949 78.3209 69.5653 79.6287C67.2357 80.9364 66.4076 83.8846 67.7157 86.2136C73.7291 96.9204 84.6053 104.128 97.1855 103.479C106.615 102.992 116.186 98.1465 124.769 88.4166C128.2 91.4356 132.183 94.1764 136.806 96.3445C145.991 100.652 157.385 102.547 171.432 100.244C189.261 98.2786 207.541 89.8234 230.304 65.4429C232.127 63.4902 232.021 60.4298 230.068 58.6073C228.115 56.7847 225.054 56.8901 223.231 58.8427ZM123.957 73.2553C123.951 73.2473 123.945 73.2393 123.939 73.2313C119.875 67.7535 118.496 63.1265 118.492 60.2131C118.488 57.3984 119.52 57.2305 119.671 57.2059C119.675 57.2052 119.679 57.2046 119.682 57.2041C120.991 56.9595 123.333 57.7864 125.042 61.1445C126.63 64.2663 126.875 68.3856 124.729 71.9862C124.472 72.4167 124.215 72.8397 123.957 73.2553Z" fill="url(#paint2_linear_214_12114)" stroke="#4C2D37" stroke-width="1.37415" stroke-linecap="round"/>
<defs>
<linearGradient id="paint0_linear_214_12114" x1="122" y1="0" x2="122" y2="190" gradientUnits="userSpaceOnUse">
<stop stop-color="#A0AAFF"/>
<stop offset="1" stop-color="#444D9D" stop-opacity="0.41"/>
</linearGradient>
<linearGradient id="paint1_linear_214_12114" x1="124.397" y1="69.7817" x2="124.397" y2="181.018" gradientUnits="userSpaceOnUse">
<stop stop-color="#E8DEF8"/>
<stop offset="1" stop-color="#7EBCB9"/>
</linearGradient>
<linearGradient id="paint2_linear_214_12114" x1="155.057" y1="103.514" x2="143.723" y2="42.8707" gradientUnits="userSpaceOnUse">
<stop stop-color="#945E78"/>
<stop offset="1" stop-color="#431F2B"/>
</linearGradient>
</defs>
</svg>
