<svg width="24" height="24" viewBox="0 0 24 24" fill="none" xmlns="http://www.w3.org/2000/svg">
<g id="icon-refresh">
<mask id="mask0_222_18571" style="mask-type:alpha" maskUnits="userSpaceOnUse" x="0" y="0" width="24" height="24">
<rect id="Bounding box" width="24" height="24" fill="#D9D9D9"/>
</mask>
<g mask="url(#mask0_222_18571)">
<path id="refresh" d="M12.0385 19.5C9.94474 19.5 8.1713 18.7735 6.71819 17.3207C5.26507 15.8679 4.53851 14.0948 4.53851 12.0015C4.53851 9.90818 5.26507 8.13461 6.71819 6.68078C8.1713 5.22693 9.94474 4.5 12.0385 4.5C13.2077 4.5 14.3141 4.75994 15.3577 5.27982C16.4013 5.79969 17.2692 6.53335 17.9615 7.4808V5.25C17.9615 5.0375 18.0334 4.85938 18.1773 4.71563C18.3211 4.57188 18.4993 4.5 18.7119 4.5C18.9245 4.5 19.1026 4.57188 19.2461 4.71563C19.3897 4.85938 19.4615 5.0375 19.4615 5.25V9.7115C19.4615 9.96758 19.3749 10.1822 19.2017 10.3555C19.0284 10.5287 18.8138 10.6153 18.5577 10.6153H14.0962C13.8837 10.6153 13.7056 10.5434 13.5618 10.3996C13.4181 10.2558 13.3462 10.0776 13.3462 9.86503C13.3462 9.65243 13.4181 9.47433 13.5618 9.33075C13.7056 9.18717 13.8837 9.11538 14.0962 9.11538H17.2962C16.7692 8.14999 16.0385 7.38941 15.1039 6.83363C14.1692 6.27786 13.1475 5.99998 12.0385 5.99998C10.3718 5.99998 8.95516 6.58331 7.78849 7.74998C6.62182 8.91664 6.03849 10.3333 6.03849 12C6.03849 13.6666 6.62182 15.0833 7.78849 16.25C8.95516 17.4166 10.3718 18 12.0385 18C13.2007 18 14.2647 17.6948 15.2304 17.0846C16.196 16.4743 16.9276 15.6602 17.425 14.6423C17.5199 14.4602 17.6593 14.333 17.8433 14.2606C18.0273 14.1881 18.2148 14.184 18.4058 14.2481C18.6096 14.3122 18.7522 14.4455 18.8336 14.648C18.9151 14.8506 18.9083 15.0429 18.8134 15.225C18.1942 16.5198 17.2801 17.556 16.0711 18.3336C14.8621 19.1112 13.5179 19.5 12.0385 19.5Z" fill="#9B9B9B"/>
</g>
</g>
</svg>
