<svg width="290" height="229" viewBox="0 0 290 229" fill="none" xmlns="http://www.w3.org/2000/svg">
<mask id="path-1-inside-1_214_12106" fill="white">
<path fill-rule="evenodd" clip-rule="evenodd" d="M155.584 65.2659L148.5 3.97477C148.261 1.91071 146.618 0.897396 145 0.934848C143.383 0.897226 141.74 1.91053 141.501 3.97476L134.416 65.266L111.837 7.91685C110.343 4.12124 104.66 5.65625 105.248 9.6965L114.194 71.0994L77.418 21.2686C74.9973 17.9886 69.9115 20.9484 71.5192 24.7015L95.9342 81.6965L47.5964 43.1419C44.4114 40.6015 40.2696 44.7763 42.7899 47.9868L81.0646 96.7428L24.37 72.0672C20.6357 70.4419 17.7146 75.5417 20.9782 77.9889L70.5006 115.123L9.40704 106.08C5.37826 105.483 3.86911 111.161 7.65395 112.675L65.0736 135.644L3.71338 142.85C-0.332857 143.325 -0.332839 149.199 3.7134 149.674L65.0651 156.879L7.64167 179.85C3.85683 181.364 5.36604 187.041 9.39481 186.445L70.5098 177.398L20.9831 214.535C17.7195 216.983 20.6405 222.082 24.3748 220.457L130.05 174.464C130.832 175.167 131.926 175.502 133.034 175.271C133.859 176.638 135.476 177.207 136.92 176.779C137.937 177.813 139.546 178.118 140.907 177.417C142.054 178.488 143.733 178.61 145 177.837C146.268 178.61 147.946 178.488 149.093 177.417C150.454 178.118 152.063 177.813 153.081 176.779C154.525 177.207 156.141 176.638 156.967 175.271C158.074 175.502 159.169 175.167 159.951 174.464L265.626 220.457C269.36 222.082 272.281 216.983 269.017 214.535L219.491 177.398L280.606 186.445C284.634 187.041 286.144 181.364 282.359 179.85L224.935 156.879L286.287 149.674C290.333 149.199 290.333 143.325 286.287 142.85L224.927 135.644L282.346 112.675C286.131 111.161 284.622 105.483 280.593 106.08L219.5 115.123L269.022 77.9889C272.286 75.5417 269.365 70.4419 265.63 72.0672L208.936 96.7428L247.211 47.9868C249.731 44.7763 245.589 40.6015 242.404 43.1419L194.066 81.6965L218.481 24.7015C220.089 20.9484 215.003 17.9886 212.582 21.2686L175.807 71.0994L184.752 9.69649C185.341 5.65624 179.658 4.12123 178.163 7.91685L155.584 65.2659Z"/>
</mask>
<path fill-rule="evenodd" clip-rule="evenodd" d="M155.584 65.2659L148.5 3.97477C148.261 1.91071 146.618 0.897396 145 0.934848C143.383 0.897226 141.74 1.91053 141.501 3.97476L134.416 65.266L111.837 7.91685C110.343 4.12124 104.66 5.65625 105.248 9.6965L114.194 71.0994L77.418 21.2686C74.9973 17.9886 69.9115 20.9484 71.5192 24.7015L95.9342 81.6965L47.5964 43.1419C44.4114 40.6015 40.2696 44.7763 42.7899 47.9868L81.0646 96.7428L24.37 72.0672C20.6357 70.4419 17.7146 75.5417 20.9782 77.9889L70.5006 115.123L9.40704 106.08C5.37826 105.483 3.86911 111.161 7.65395 112.675L65.0736 135.644L3.71338 142.85C-0.332857 143.325 -0.332839 149.199 3.7134 149.674L65.0651 156.879L7.64167 179.85C3.85683 181.364 5.36604 187.041 9.39481 186.445L70.5098 177.398L20.9831 214.535C17.7195 216.983 20.6405 222.082 24.3748 220.457L130.05 174.464C130.832 175.167 131.926 175.502 133.034 175.271C133.859 176.638 135.476 177.207 136.92 176.779C137.937 177.813 139.546 178.118 140.907 177.417C142.054 178.488 143.733 178.61 145 177.837C146.268 178.61 147.946 178.488 149.093 177.417C150.454 178.118 152.063 177.813 153.081 176.779C154.525 177.207 156.141 176.638 156.967 175.271C158.074 175.502 159.169 175.167 159.951 174.464L265.626 220.457C269.36 222.082 272.281 216.983 269.017 214.535L219.491 177.398L280.606 186.445C284.634 187.041 286.144 181.364 282.359 179.85L224.935 156.879L286.287 149.674C290.333 149.199 290.333 143.325 286.287 142.85L224.927 135.644L282.346 112.675C286.131 111.161 284.622 105.483 280.593 106.08L219.5 115.123L269.022 77.9889C272.286 75.5417 269.365 70.4419 265.63 72.0672L208.936 96.7428L247.211 47.9868C249.731 44.7763 245.589 40.6015 242.404 43.1419L194.066 81.6965L218.481 24.7015C220.089 20.9484 215.003 17.9886 212.582 21.2686L175.807 71.0994L184.752 9.69649C185.341 5.65624 179.658 4.12123 178.163 7.91685L155.584 65.2659Z" fill="url(#paint0_linear_214_12106)"/>
<path d="M148.5 3.97477L147.134 4.13256L147.134 4.13256L148.5 3.97477ZM155.584 65.2659L154.219 65.4237L156.863 65.7693L155.584 65.2659ZM145 0.934848L144.969 2.30863L145 2.30937L145.032 2.30863L145 0.934848ZM141.501 3.97476L142.866 4.13255L142.866 4.13255L141.501 3.97476ZM134.416 65.266L133.138 65.7694L135.781 65.4237L134.416 65.266ZM111.837 7.91685L110.559 8.42026L110.559 8.42026L111.837 7.91685ZM105.248 9.6965L103.888 9.89461L103.888 9.89461L105.248 9.6965ZM114.194 71.0994L113.088 71.9154L115.554 70.9013L114.194 71.0994ZM77.418 21.2686L76.3123 22.0846L76.3123 22.0846L77.418 21.2686ZM71.5192 24.7015L72.7823 24.1604L72.7823 24.1604L71.5192 24.7015ZM95.9342 81.6965L95.0774 82.7708L97.1974 81.1554L95.9342 81.6965ZM47.5964 43.1419L46.7396 44.2162L46.7396 44.2162L47.5964 43.1419ZM42.7899 47.9868L41.709 48.8353L41.709 48.8353L42.7899 47.9868ZM81.0646 96.7428L80.5162 98.0028L82.1455 95.8943L81.0646 96.7428ZM24.37 72.0672L24.9184 70.8072L24.9184 70.8072L24.37 72.0672ZM20.9782 77.9889L20.1538 79.0883L20.1538 79.0883L20.9782 77.9889ZM70.5006 115.123L70.2993 116.482L71.3249 114.023L70.5006 115.123ZM9.40704 106.08L9.60825 104.72L9.60825 104.72L9.40704 106.08ZM7.65395 112.675L8.16432 111.399L8.16432 111.399L7.65395 112.675ZM65.0736 135.644L65.2339 137.008L65.584 134.368L65.0736 135.644ZM3.71338 142.85L3.5531 141.485L3.5531 141.485L3.71338 142.85ZM3.7134 149.674L3.55311 151.039L3.55311 151.039L3.7134 149.674ZM65.0651 156.879L65.5755 158.155L65.2254 155.514L65.0651 156.879ZM7.64167 179.85L7.1313 178.574L7.13129 178.574L7.64167 179.85ZM9.39481 186.445L9.59603 187.804L9.59603 187.804L9.39481 186.445ZM70.5098 177.398L71.3342 178.498L70.3086 176.039L70.5098 177.398ZM20.9831 214.535L20.1587 213.436L20.1587 213.436L20.9831 214.535ZM24.3748 220.457L23.8264 219.197L23.8264 219.197L24.3748 220.457ZM130.05 174.464L130.968 173.442L130.311 172.851L129.501 173.204L130.05 174.464ZM133.034 175.271L134.21 174.56L133.707 173.727L132.753 173.925L133.034 175.271ZM136.92 176.779L137.899 175.815L137.32 175.227L136.529 175.462L136.92 176.779ZM140.907 177.417L141.845 176.413L141.138 175.753L140.278 176.196L140.907 177.417ZM145 177.837L145.715 176.664L145 176.228L144.285 176.664L145 177.837ZM149.093 177.417L149.722 176.196L148.863 175.753L148.156 176.413L149.093 177.417ZM153.081 176.779L153.471 175.462L152.68 175.227L152.102 175.815L153.081 176.779ZM156.967 175.271L157.247 173.925L156.294 173.727L155.79 174.56L156.967 175.271ZM159.951 174.464L160.499 173.204L159.689 172.851L159.032 173.442L159.951 174.464ZM265.626 220.457L265.077 221.717L265.077 221.717L265.626 220.457ZM269.017 214.535L269.842 213.436L269.842 213.436L269.017 214.535ZM219.491 177.398L219.692 176.039L218.666 178.498L219.491 177.398ZM280.606 186.445L280.404 187.804L280.404 187.804L280.606 186.445ZM282.359 179.85L282.869 178.574L282.869 178.574L282.359 179.85ZM224.935 156.879L224.775 155.514L224.425 158.155L224.935 156.879ZM286.287 149.674L286.447 151.039L286.447 151.039L286.287 149.674ZM286.287 142.85L286.447 141.485L286.447 141.485L286.287 142.85ZM224.927 135.644L224.416 134.368L224.767 137.008L224.927 135.644ZM282.346 112.675L282.857 113.95L282.857 113.95L282.346 112.675ZM280.593 106.08L280.795 107.439L280.795 107.439L280.593 106.08ZM219.5 115.123L218.675 114.023L219.701 116.482L219.5 115.123ZM269.022 77.9889L269.847 79.0883L269.847 79.0883L269.022 77.9889ZM265.63 72.0672L266.179 73.3272L266.179 73.3272L265.63 72.0672ZM208.936 96.7428L207.855 95.8943L209.484 98.0028L208.936 96.7428ZM247.211 47.9868L246.13 47.1383L246.13 47.1383L247.211 47.9868ZM242.404 43.1419L241.547 42.0676L241.547 42.0676L242.404 43.1419ZM194.066 81.6965L192.803 81.1554L194.923 82.7707L194.066 81.6965ZM218.481 24.7015L219.744 25.2425L219.744 25.2425L218.481 24.7015ZM212.582 21.2686L213.688 22.0846L213.688 22.0846L212.582 21.2686ZM175.807 71.0994L174.447 70.9013L176.912 71.9154L175.807 71.0994ZM184.752 9.69649L186.112 9.8946L186.112 9.8946L184.752 9.69649ZM178.163 7.91685L176.884 7.41344L176.884 7.41344L178.163 7.91685ZM147.134 4.13256L154.219 65.4237L156.949 65.1081L149.865 3.81698L147.134 4.13256ZM145.032 2.30863C146.064 2.28475 146.991 2.89066 147.134 4.13256L149.865 3.81698C149.531 0.930748 147.172 -0.489955 144.969 -0.438939L145.032 2.30863ZM145.032 -0.438935C142.829 -0.490182 140.469 0.930446 140.136 3.81697L142.866 4.13255C143.01 2.89062 143.937 2.28463 144.969 2.30863L145.032 -0.438935ZM140.136 3.81697L133.051 65.1082L135.781 65.4237L142.866 4.13255L140.136 3.81697ZM110.559 8.42026L133.138 65.7694L135.695 64.7625L113.116 7.41345L110.559 8.42026ZM106.608 9.4984C106.246 7.01161 109.685 6.20176 110.559 8.42026L113.116 7.41345C111.001 2.04072 103.073 4.30089 103.888 9.89461L106.608 9.4984ZM115.554 70.9013L106.608 9.4984L103.888 9.89461L112.834 71.2975L115.554 70.9013ZM76.3123 22.0846L113.088 71.9154L115.3 70.2834L78.5236 20.4526L76.3123 22.0846ZM72.7823 24.1604C72.2949 23.0225 72.7763 22.0433 73.6491 21.5353C74.5194 21.0289 75.5857 21.1 76.3123 22.0846L78.5236 20.4526C76.8296 18.1573 74.1427 18.0683 72.2668 19.16C70.3935 20.2502 69.1358 22.6274 70.2561 25.2426L72.7823 24.1604ZM97.1974 81.1554L72.7823 24.1604L70.2561 25.2426L94.6711 82.2376L97.1974 81.1554ZM46.7396 44.2162L95.0774 82.7708L96.7911 80.6222L48.4533 42.0676L46.7396 44.2162ZM43.8708 47.1383C43.1061 46.1642 43.318 45.0924 44.0292 44.3756C44.7379 43.6612 45.7842 43.4542 46.7396 44.2162L48.4533 42.0676C46.2236 40.2892 43.6065 40.8994 42.0781 42.44C40.5522 43.9781 39.9534 46.599 41.709 48.8353L43.8708 47.1383ZM82.1455 95.8943L43.8708 47.1383L41.709 48.8353L79.9837 97.5913L82.1455 95.8943ZM23.8216 73.3272L80.5162 98.0028L81.613 95.4828L24.9184 70.8072L23.8216 73.3272ZM21.8026 76.8895C20.8131 76.1475 20.7407 75.0595 21.2423 74.1838C21.7424 73.3108 22.7006 72.8393 23.8216 73.3272L24.9184 70.8072C22.3051 69.6698 19.9356 70.9356 18.8575 72.8179C17.7808 74.6976 17.8797 77.3831 20.1538 79.0883L21.8026 76.8895ZM71.3249 114.023L21.8026 76.8895L20.1538 79.0883L69.6762 116.222L71.3249 114.023ZM9.20582 107.439L70.2993 116.482L70.7018 113.764L9.60825 104.72L9.20582 107.439ZM8.16432 111.399C5.8354 110.467 6.85035 107.09 9.20582 107.439L9.60825 104.72C3.90616 103.876 1.90283 111.854 7.14359 113.95L8.16432 111.399ZM65.584 134.368L8.16432 111.399L7.14358 113.95L64.5632 136.919L65.584 134.368ZM3.87366 144.215L65.2339 137.008L64.9133 134.279L3.5531 141.485L3.87366 144.215ZM3.87368 148.309C1.4459 148.024 1.44596 144.5 3.87366 144.215L3.5531 141.485C-2.11168 142.15 -2.11157 150.373 3.55311 151.039L3.87368 148.309ZM65.2254 155.514L3.87368 148.309L3.55311 151.039L64.9048 158.244L65.2254 155.514ZM8.15204 181.126L65.5755 158.155L64.5548 155.603L7.1313 178.574L8.15204 181.126ZM9.1936 185.085C6.83798 185.434 5.82325 182.057 8.15204 181.126L7.13129 178.574C1.8904 180.67 3.8941 188.648 9.59603 187.804L9.1936 185.085ZM70.3086 176.039L9.1936 185.085L9.59603 187.804L70.711 178.758L70.3086 176.039ZM21.8074 215.635L71.3342 178.498L69.6854 176.299L20.1587 213.436L21.8074 215.635ZM23.8264 219.197C22.7055 219.685 21.7472 219.214 21.2471 218.341C20.7456 217.465 20.818 216.377 21.8074 215.635L20.1587 213.436C17.8846 215.141 17.7857 217.827 18.8623 219.706C19.9405 221.589 22.3099 222.855 24.9232 221.717L23.8264 219.197ZM129.501 173.204L23.8264 219.197L24.9232 221.717L130.598 175.724L129.501 173.204ZM132.753 173.925C132.093 174.063 131.44 173.866 130.968 173.442L129.131 175.485C130.223 176.468 131.759 176.94 133.314 176.616L132.753 173.925ZM131.857 175.981C133.016 177.901 135.286 178.697 137.31 178.097L136.529 175.462C135.666 175.718 134.702 175.375 134.21 174.56L131.857 175.981ZM140.278 176.196C139.468 176.612 138.508 176.433 137.899 175.815L135.94 177.743C137.367 179.192 139.624 179.624 141.536 178.639L140.278 176.196ZM139.97 178.422C141.581 179.926 143.938 180.094 145.715 179.011L144.285 176.664C143.528 177.125 142.528 177.05 141.845 176.413L139.97 178.422ZM148.156 176.413C147.473 177.05 146.473 177.125 145.715 176.664L144.285 179.011C146.063 180.094 148.419 179.926 150.031 178.422L148.156 176.413ZM148.464 178.639C150.376 179.624 152.634 179.192 154.06 177.743L152.102 175.815C151.493 176.433 150.532 176.612 149.722 176.196L148.464 178.639ZM155.79 174.56C155.298 175.375 154.335 175.718 153.471 175.462L152.69 178.097C154.714 178.697 156.984 177.901 158.143 175.981L155.79 174.56ZM156.686 176.616C158.241 176.94 159.777 176.468 160.87 175.485L159.032 173.442C158.561 173.866 157.907 174.063 157.247 173.925L156.686 176.616ZM159.402 175.724L265.077 221.717L266.174 219.197L160.499 173.204L159.402 175.724ZM265.077 221.717C267.691 222.855 270.06 221.589 271.138 219.706C272.215 217.827 272.116 215.141 269.842 213.436L268.193 215.635C269.182 216.377 269.255 217.465 268.753 218.341C268.253 219.214 267.295 219.685 266.174 219.197L265.077 221.717ZM269.842 213.436L220.315 176.299L218.666 178.498L268.193 215.635L269.842 213.436ZM219.289 178.758L280.404 187.804L280.807 185.085L219.692 176.039L219.289 178.758ZM280.404 187.804C286.106 188.648 288.11 180.67 282.869 178.574L281.848 181.126C284.177 182.057 283.162 185.434 280.807 185.085L280.404 187.804ZM282.869 178.574L225.446 155.603L224.425 158.155L281.848 181.126L282.869 178.574ZM225.096 158.244L286.447 151.039L286.127 148.309L224.775 155.514L225.096 158.244ZM286.447 151.039C292.112 150.373 292.112 142.15 286.447 141.485L286.127 144.215C288.554 144.5 288.555 148.024 286.127 148.309L286.447 151.039ZM286.447 141.485L225.087 134.279L224.767 137.008L286.127 144.215L286.447 141.485ZM225.437 136.919L282.857 113.95L281.836 111.399L224.416 134.368L225.437 136.919ZM282.857 113.95C288.098 111.854 286.094 103.876 280.392 104.72L280.795 107.439C283.15 107.09 284.165 110.467 281.836 111.399L282.857 113.95ZM280.392 104.72L219.299 113.764L219.701 116.482L280.795 107.439L280.392 104.72ZM220.324 116.222L269.847 79.0883L268.198 76.8895L218.675 114.023L220.324 116.222ZM269.847 79.0883C272.121 77.3831 272.22 74.6976 271.143 72.8179C270.065 70.9356 267.695 69.6698 265.082 70.8072L266.179 73.3272C267.3 72.8393 268.258 73.3108 268.758 74.1838C269.26 75.0595 269.187 76.1475 268.198 76.8895L269.847 79.0883ZM265.082 70.8072L208.387 95.4828L209.484 98.0028L266.179 73.3272L265.082 70.8072ZM210.017 97.5913L248.291 48.8353L246.13 47.1383L207.855 95.8943L210.017 97.5913ZM248.291 48.8353C250.047 46.599 249.448 43.9781 247.922 42.44C246.394 40.8994 243.777 40.2892 241.547 42.0676L243.261 44.2162C244.216 43.4542 245.263 43.6612 245.971 44.3756C246.682 45.0924 246.894 46.1642 246.13 47.1383L248.291 48.8353ZM241.547 42.0676L193.209 80.6222L194.923 82.7707L243.261 44.2162L241.547 42.0676ZM195.329 82.2376L219.744 25.2425L217.218 24.1604L192.803 81.1554L195.329 82.2376ZM219.744 25.2425C220.865 22.6274 219.607 20.2502 217.734 19.16C215.858 18.0683 213.171 18.1572 211.477 20.4526L213.688 22.0846C214.415 21.1 215.481 21.0289 216.351 21.5353C217.224 22.0433 217.706 23.0225 217.218 24.1604L219.744 25.2425ZM211.477 20.4526L174.701 70.2834L176.912 71.9154L213.688 22.0846L211.477 20.4526ZM177.166 71.2975L186.112 9.8946L183.392 9.49838L174.447 70.9013L177.166 71.2975ZM186.112 9.8946C186.927 4.30086 179 2.04073 176.884 7.41344L179.442 8.42026C180.315 6.20173 183.755 7.01163 183.392 9.49839L186.112 9.8946ZM176.884 7.41344L154.306 64.7625L156.863 65.7693L179.442 8.42025L176.884 7.41344Z" fill="#E49E18" mask="url(#path-1-inside-1_214_12106)"/>
<mask id="path-3-inside-2_214_12106" fill="white">
<path fill-rule="evenodd" clip-rule="evenodd" d="M200.933 173.406C200.933 204.11 168.986 229 129.578 229C90.1695 229 58.2227 204.11 58.2227 173.406C58.2227 152.242 73.4015 133.84 95.7401 124.448C97.7555 110.094 110.086 99.0488 124.996 99.0488H164.175C184.476 99.0488 200.933 115.506 200.933 135.807V173.406L200.933 173.406Z"/>
</mask>
<path fill-rule="evenodd" clip-rule="evenodd" d="M200.933 173.406C200.933 204.11 168.986 229 129.578 229C90.1695 229 58.2227 204.11 58.2227 173.406C58.2227 152.242 73.4015 133.84 95.7401 124.448C97.7555 110.094 110.086 99.0488 124.996 99.0488H164.175C184.476 99.0488 200.933 115.506 200.933 135.807V173.406L200.933 173.406Z" fill="url(#paint1_linear_214_12106)"/>
<path d="M200.933 173.406L201.179 172.054L199.559 171.759V173.406H200.933ZM95.7401 124.448L96.2727 125.715L96.9924 125.412L97.1009 124.639L95.7401 124.448ZM200.933 173.406L200.688 174.758L202.308 175.052V173.406H200.933ZM199.559 173.406C199.559 203.051 168.566 227.626 129.578 227.626V230.374C169.406 230.374 202.307 205.168 202.307 173.406H199.559ZM129.578 227.626C90.5894 227.626 59.5968 203.051 59.5968 173.406H56.8485C56.8485 205.168 89.7496 230.374 129.578 230.374V227.626ZM59.5968 173.406C59.5968 152.955 74.2779 134.962 96.2727 125.715L95.2075 123.181C72.5251 132.718 56.8485 151.528 56.8485 173.406H59.5968ZM97.1009 124.639C99.0224 110.954 110.781 100.423 124.996 100.423V97.6747C109.391 97.6747 96.4886 109.234 94.3793 124.257L97.1009 124.639ZM124.996 100.423H164.175V97.6747H124.996V100.423ZM164.175 100.423C183.717 100.423 199.559 116.265 199.559 135.807H202.308C202.308 114.747 185.235 97.6747 164.175 97.6747V100.423ZM199.559 135.807V173.406H202.308V135.807H199.559ZM201.179 172.054L201.179 172.054L200.687 174.758L200.688 174.758L201.179 172.054Z" fill="#D3ACA9" mask="url(#path-3-inside-2_214_12106)"/>
<mask id="mask0_214_12106" style="mask-type:alpha" maskUnits="userSpaceOnUse" x="82" y="110" width="42" height="71">
<rect x="82.3516" y="110.798" width="41.3654" height="69.4925" rx="20.6827" fill="#D9D9D9"/>
</mask>
<g mask="url(#mask0_214_12106)">
<rect x="82.3516" y="146.24" width="41.3654" height="34.0513" fill="#F8F8F8"/>
</g>
<mask id="mask1_214_12106" style="mask-type:alpha" maskUnits="userSpaceOnUse" x="82" y="146" width="42" height="35">
<mask id="mask2_214_12106" style="mask-type:alpha" maskUnits="userSpaceOnUse" x="82" y="110" width="42" height="71">
<rect x="82.3516" y="110.798" width="41.3654" height="69.4925" rx="20.6827" fill="#D9D9D9"/>
</mask>
<g mask="url(#mask2_214_12106)">
<rect x="82.3516" y="146.24" width="41.3654" height="34.0513" fill="#D9D9D9"/>
</g>
</mask>
<g mask="url(#mask1_214_12106)">
<ellipse cx="100.621" cy="155.968" rx="13.4437" ry="20.8478" fill="#191919"/>
</g>
<ellipse cx="106.481" cy="165.697" rx="3.44711" ry="3.47463" fill="#F8F8F8"/>
<rect x="82.3516" y="145.545" width="41.3654" height="1.38985" fill="black"/>
<mask id="mask3_214_12106" style="mask-type:alpha" maskUnits="userSpaceOnUse" x="135" y="110" width="42" height="71">
<rect x="135.437" y="110.798" width="41.3654" height="69.4925" rx="20.6827" fill="#D9D9D9"/>
</mask>
<g mask="url(#mask3_214_12106)">
<rect x="135.437" y="146.24" width="41.3654" height="34.0513" fill="#F8F8F8"/>
</g>
<mask id="mask4_214_12106" style="mask-type:alpha" maskUnits="userSpaceOnUse" x="135" y="146" width="42" height="35">
<mask id="mask5_214_12106" style="mask-type:alpha" maskUnits="userSpaceOnUse" x="135" y="110" width="42" height="71">
<rect x="135.437" y="110.798" width="41.3654" height="69.4925" rx="20.6827" fill="#D9D9D9"/>
</mask>
<g mask="url(#mask5_214_12106)">
<rect x="135.437" y="146.24" width="41.3654" height="34.0513" fill="#D9D9D9"/>
</g>
</mask>
<g mask="url(#mask4_214_12106)">
<ellipse cx="153.017" cy="155.968" rx="13.4437" ry="20.8478" fill="#191919"/>
</g>
<ellipse cx="159.567" cy="165.697" rx="3.44711" ry="3.47463" fill="#F8F8F8"/>
<rect x="135.437" y="145.545" width="41.3654" height="1.38985" fill="black"/>
<path fill-rule="evenodd" clip-rule="evenodd" d="M218.867 94.9309C197.223 118.305 180.955 125.283 166.017 126.916L165.882 126.931L165.749 126.953C153.428 129.011 144.018 127.279 136.75 123.843C132.839 121.994 129.456 119.607 126.521 116.925C127.325 115.711 128.116 114.446 128.894 113.131C132.952 106.267 132.398 98.5419 129.517 92.8344C126.756 87.3646 120.959 82.3693 113.794 83.7195C107.457 84.9136 104.721 90.6656 104.729 96.3222C104.736 101.962 107.208 108.601 112.062 115.199C112.659 116.01 113.284 116.822 113.939 117.631C106.533 126.362 98.9752 129.78 92.6281 130.11C84.3379 130.542 76.6578 125.803 72.1427 117.698C70.8378 115.355 67.8959 114.522 65.572 115.838C63.248 117.153 62.4218 120.118 63.7268 122.461C69.7257 133.23 80.5757 140.479 93.1255 139.826C102.532 139.337 112.08 134.463 120.642 124.677C124.065 127.713 128.039 130.47 132.651 132.651C141.813 136.983 153.179 138.889 167.193 136.573C184.979 134.596 203.215 126.092 225.923 101.569C227.742 99.6054 227.636 96.5272 225.688 94.694C223.74 92.8609 220.686 92.9669 218.867 94.9309ZM119.832 109.427C119.827 109.419 119.821 109.411 119.815 109.403C115.761 103.893 114.385 99.2396 114.381 96.3093C114.377 93.4782 115.406 93.3093 115.557 93.2846C115.561 93.2839 115.565 93.2833 115.568 93.2828C116.873 93.0367 119.21 93.8684 120.914 97.2461C122.499 100.386 122.744 104.529 120.603 108.151C120.347 108.584 120.09 109.009 119.832 109.427Z" fill="url(#paint2_linear_214_12106)" stroke="#4C2D37" stroke-width="1.37415" stroke-linecap="round"/>
<defs>
<linearGradient id="paint0_linear_214_12106" x1="145" y1="0.933838" x2="145" y2="220.771" gradientUnits="userSpaceOnUse">
<stop stop-color="#FFBA33"/>
<stop offset="1" stop-color="#DDAB4C" stop-opacity="0.26"/>
</linearGradient>
<linearGradient id="paint1_linear_214_12106" x1="129.578" y1="99.0488" x2="129.578" y2="229" gradientUnits="userSpaceOnUse">
<stop stop-color="#F9DEDC"/>
<stop offset="1" stop-color="#99578A"/>
</linearGradient>
<linearGradient id="paint2_linear_214_12106" x1="150.857" y1="139.862" x2="139.37" y2="78.9" gradientUnits="userSpaceOnUse">
<stop stop-color="#945E78"/>
<stop offset="1" stop-color="#431F2B"/>
</linearGradient>
</defs>
</svg>
