<svg width="288" height="229" viewBox="0 0 288 229" fill="none" xmlns="http://www.w3.org/2000/svg">
<mask id="path-1-inside-1_214_12115" fill="white">
<path fill-rule="evenodd" clip-rule="evenodd" d="M154.584 62.9984L147.498 3.85592C147.252 1.80146 145.614 0.792894 144.001 0.830238C142.388 0.792629 140.749 1.80118 140.503 3.85591L133.416 62.9985L110.859 7.72466C109.32 3.95366 103.65 5.43079 104.257 9.44484L113.194 68.6259L76.5699 20.7519C74.0893 17.5092 68.9726 20.3819 70.6201 24.0922L94.9343 78.8491L47.0097 41.9729C43.7675 39.4782 39.5515 43.5779 42.117 46.7307L80.0649 93.3648L24.1077 69.8695C20.3315 68.284 17.3227 73.3515 20.6229 75.7388L69.5004 111.096L9.40494 102.514C5.35053 101.935 3.7825 107.626 7.59141 109.096L64.0738 130.893L3.79031 137.723C-0.274533 138.183 -0.274492 144.089 3.79035 144.55L64.0653 151.379L7.57916 173.177C3.77024 174.647 5.33828 180.338 9.39269 179.759L69.5099 171.174L20.6278 206.535C17.3276 208.922 20.3363 213.989 24.1125 212.404L129.092 168.325C129.876 169.003 130.951 169.33 132.036 169.12C132.898 170.422 134.51 170.966 135.944 170.559C136.976 171.54 138.563 171.838 139.908 171.189C141.067 172.194 142.731 172.305 144 171.574C145.27 172.306 146.934 172.194 148.092 171.189C149.438 171.838 151.024 171.54 152.057 170.559C153.49 170.966 155.102 170.422 155.964 169.12C157.05 169.329 158.125 169.003 158.908 168.325L263.888 212.404C267.664 213.989 270.673 208.922 267.373 206.535L218.491 171.174L278.608 179.759C282.662 180.338 284.23 174.647 280.422 173.177L223.935 151.379L284.21 144.55C288.275 144.089 288.275 138.183 284.21 137.723L223.927 130.893L280.409 109.096C284.218 107.626 282.65 101.935 278.596 102.514L218.5 111.096L267.378 75.7388C270.678 73.3515 267.669 68.2839 263.893 69.8695L207.936 93.3648L245.884 46.7307C248.449 43.5779 244.233 39.4781 240.991 41.9729L193.066 78.8491L217.381 24.0922C219.028 20.3819 213.911 17.5092 211.431 20.7518L174.807 68.6259L183.744 9.44483C184.35 5.43079 178.681 3.95366 177.142 7.72465L154.584 62.9984Z"/>
</mask>
<path fill-rule="evenodd" clip-rule="evenodd" d="M154.584 62.9984L147.498 3.85592C147.252 1.80146 145.614 0.792894 144.001 0.830238C142.388 0.792629 140.749 1.80118 140.503 3.85591L133.416 62.9985L110.859 7.72466C109.32 3.95366 103.65 5.43079 104.257 9.44484L113.194 68.6259L76.5699 20.7519C74.0893 17.5092 68.9726 20.3819 70.6201 24.0922L94.9343 78.8491L47.0097 41.9729C43.7675 39.4782 39.5515 43.5779 42.117 46.7307L80.0649 93.3648L24.1077 69.8695C20.3315 68.284 17.3227 73.3515 20.6229 75.7388L69.5004 111.096L9.40494 102.514C5.35053 101.935 3.7825 107.626 7.59141 109.096L64.0738 130.893L3.79031 137.723C-0.274533 138.183 -0.274492 144.089 3.79035 144.55L64.0653 151.379L7.57916 173.177C3.77024 174.647 5.33828 180.338 9.39269 179.759L69.5099 171.174L20.6278 206.535C17.3276 208.922 20.3363 213.989 24.1125 212.404L129.092 168.325C129.876 169.003 130.951 169.33 132.036 169.12C132.898 170.422 134.51 170.966 135.944 170.559C136.976 171.54 138.563 171.838 139.908 171.189C141.067 172.194 142.731 172.305 144 171.574C145.27 172.306 146.934 172.194 148.092 171.189C149.438 171.838 151.024 171.54 152.057 170.559C153.49 170.966 155.102 170.422 155.964 169.12C157.05 169.329 158.125 169.003 158.908 168.325L263.888 212.404C267.664 213.989 270.673 208.922 267.373 206.535L218.491 171.174L278.608 179.759C282.662 180.338 284.23 174.647 280.422 173.177L223.935 151.379L284.21 144.55C288.275 144.089 288.275 138.183 284.21 137.723L223.927 130.893L280.409 109.096C284.218 107.626 282.65 101.935 278.596 102.514L218.5 111.096L267.378 75.7388C270.678 73.3515 267.669 68.2839 263.893 69.8695L207.936 93.3648L245.884 46.7307C248.449 43.5779 244.233 39.4781 240.991 41.9729L193.066 78.8491L217.381 24.0922C219.028 20.3819 213.911 17.5092 211.431 20.7518L174.807 68.6259L183.744 9.44483C184.35 5.43079 178.681 3.95366 177.142 7.72465L154.584 62.9984Z" fill="url(#paint0_linear_214_12115)"/>
<path d="M147.498 3.85592L148.862 3.69244L148.862 3.69244L147.498 3.85592ZM154.584 62.9984L153.22 63.1619L153.851 68.4313L155.857 63.5177L154.584 62.9984ZM144.001 0.830238L143.969 2.20402L144.001 2.20476L144.033 2.20402L144.001 0.830238ZM140.503 3.85591L139.138 3.69242L139.138 3.69243L140.503 3.85591ZM133.416 62.9985L132.144 63.5177L134.149 68.4313L134.781 63.1619L133.416 62.9985ZM110.859 7.72466L112.131 7.20543L112.131 7.20543L110.859 7.72466ZM104.257 9.44484L105.615 9.23965L105.615 9.23964L104.257 9.44484ZM113.194 68.6259L112.103 69.4609L114.553 68.4207L113.194 68.6259ZM76.5699 20.7519L75.4785 21.5868L75.4785 21.5868L76.5699 20.7519ZM70.6201 24.0922L69.3642 24.6499L69.3642 24.6499L70.6201 24.0922ZM94.9343 78.8491L94.0963 79.9381L96.1902 78.2914L94.9343 78.8491ZM47.0097 41.9729L47.8477 40.8838L47.8477 40.8838L47.0097 41.9729ZM42.117 46.7307L43.1829 45.8634L43.1829 45.8634L42.117 46.7307ZM80.0649 93.3648L79.533 94.6318L81.1308 92.4975L80.0649 93.3648ZM24.1077 69.8695L24.6397 68.6025L24.6397 68.6025L24.1077 69.8695ZM20.6229 75.7388L19.8175 76.8522L19.8175 76.8522L20.6229 75.7388ZM69.5004 111.096L69.3062 112.456L70.3058 109.983L69.5004 111.096ZM9.40494 102.514L9.21068 103.875L9.21068 103.875L9.40494 102.514ZM7.59141 109.096L8.08615 107.814L8.08615 107.814L7.59141 109.096ZM64.0738 130.893L64.2285 132.258L64.5685 129.611L64.0738 130.893ZM3.79031 137.723L3.94501 139.088L3.94501 139.088L3.79031 137.723ZM3.79035 144.55L3.94505 143.184L3.94505 143.184L3.79035 144.55ZM64.0653 151.379L64.56 152.661L64.22 150.014L64.0653 151.379ZM7.57916 173.177L8.07389 174.459L8.07389 174.459L7.57916 173.177ZM9.39269 179.759L9.58694 181.119L9.58694 181.119L9.39269 179.759ZM69.5099 171.174L70.3153 172.287L69.3156 169.814L69.5099 171.174ZM20.6278 206.535L21.4332 207.648L21.4332 207.648L20.6278 206.535ZM24.1125 212.404L23.5806 211.137L23.5806 211.137L24.1125 212.404ZM129.092 168.325L129.992 167.286L129.347 166.728L128.561 167.058L129.092 168.325ZM132.036 169.12L133.182 168.361L132.676 167.596L131.775 167.77L132.036 169.12ZM135.944 170.559L136.891 169.563L136.323 169.023L135.569 169.237L135.944 170.559ZM139.908 171.189L140.809 170.151L140.126 169.559L139.312 169.951L139.908 171.189ZM144 171.574L144.686 170.384L144 169.988L143.314 170.384L144 171.574ZM148.092 171.189L148.689 169.951L147.875 169.559L147.192 170.151L148.092 171.189ZM152.057 170.559L152.432 169.237L151.678 169.023L151.11 169.563L152.057 170.559ZM155.964 169.12L156.225 167.77L155.325 167.596L154.819 168.361L155.964 169.12ZM158.908 168.325L159.44 167.058L158.654 166.728L158.009 167.286L158.908 168.325ZM263.888 212.404L264.42 211.137L264.42 211.137L263.888 212.404ZM267.373 206.535L266.567 207.648L266.567 207.648L267.373 206.535ZM218.491 171.174L218.685 169.814L217.685 172.287L218.491 171.174ZM278.608 179.759L278.414 181.119L278.414 181.119L278.608 179.759ZM280.422 173.177L279.927 174.459L279.927 174.459L280.422 173.177ZM223.935 151.379L223.781 150.014L223.441 152.661L223.935 151.379ZM284.21 144.55L284.056 143.184L284.056 143.184L284.21 144.55ZM284.21 137.723L284.056 139.088L284.056 139.088L284.21 137.723ZM223.927 130.893L223.432 129.611L223.772 132.258L223.927 130.893ZM280.409 109.096L280.904 110.378L280.904 110.378L280.409 109.096ZM278.596 102.514L278.79 103.875L278.79 103.875L278.596 102.514ZM218.5 111.096L217.695 109.983L218.695 112.456L218.5 111.096ZM267.378 75.7388L266.572 74.6254L266.572 74.6254L267.378 75.7388ZM263.893 69.8695L263.361 68.6025L263.361 68.6025L263.893 69.8695ZM207.936 93.3648L206.87 92.4975L208.468 94.6318L207.936 93.3648ZM245.884 46.7307L246.95 47.598L246.95 47.598L245.884 46.7307ZM240.991 41.9729L240.153 40.8838L240.153 40.8838L240.991 41.9729ZM193.066 78.8491L191.81 78.2914L193.904 79.9381L193.066 78.8491ZM217.381 24.0922L216.125 23.5345L216.125 23.5345L217.381 24.0922ZM211.431 20.7518L212.522 21.5868L212.522 21.5868L211.431 20.7518ZM174.807 68.6259L173.448 68.4207L175.898 69.4609L174.807 68.6259ZM183.744 9.44483L182.385 9.23963L182.385 9.23964L183.744 9.44483ZM177.142 7.72465L175.87 7.20542L175.87 7.20542L177.142 7.72465ZM146.134 4.0194L153.22 63.1619L155.949 62.835L148.862 3.69244L146.134 4.0194ZM144.033 2.20402C145.061 2.18022 145.985 2.7833 146.134 4.01941L148.862 3.69244C148.518 0.819614 146.167 -0.594436 143.969 -0.543549L144.033 2.20402ZM144.033 -0.543544C141.835 -0.59479 139.483 0.819172 139.138 3.69242L141.867 4.01939C142.015 2.7832 142.94 2.18005 143.969 2.20402L144.033 -0.543544ZM139.138 3.69243L132.052 62.835L134.781 63.1619L141.867 4.01939L139.138 3.69243ZM109.586 8.24389L132.144 63.5177L134.689 62.4792L112.131 7.20543L109.586 8.24389ZM105.615 9.23964C105.434 8.04106 106.129 7.24791 107.1 6.99512C108.076 6.7408 109.117 7.09479 109.586 8.24389L112.131 7.20543C111.061 4.58354 108.498 3.7906 106.407 4.3356C104.309 4.88214 102.473 6.83457 102.898 9.65003L105.615 9.23964ZM114.553 68.4207L105.615 9.23965L102.898 9.65003L111.835 68.8311L114.553 68.4207ZM75.4785 21.5868L112.103 69.4609L114.285 67.791L77.6613 19.9169L75.4785 21.5868ZM71.876 23.5345C71.3878 22.4351 71.8464 21.5032 72.7197 21.0129C73.6021 20.5175 74.7172 20.5916 75.4785 21.5868L77.6613 19.9169C75.942 17.6695 73.2584 17.5586 71.3742 18.6164C69.4809 19.6794 68.2049 22.039 69.3642 24.6499L71.876 23.5345ZM96.1902 78.2914L71.876 23.5345L69.3642 24.6499L93.6784 79.4067L96.1902 78.2914ZM46.1717 43.062L94.0963 79.9381L95.7723 77.76L47.8477 40.8838L46.1717 43.062ZM43.1829 45.8634C42.4247 44.9317 42.625 43.9178 43.3435 43.2191C44.0707 42.512 45.1742 42.2944 46.1717 43.062L47.8477 40.8838C45.6031 39.1567 42.9775 39.7416 41.4275 41.2488C39.8687 42.7646 39.2438 45.3769 41.0512 47.598L43.1829 45.8634ZM81.1308 92.4975L43.1829 45.8634L41.0512 47.598L78.9991 94.2321L81.1308 92.4975ZM23.5757 71.1365L79.533 94.6318L80.5969 92.0978L24.6397 68.6025L23.5757 71.1365ZM21.4283 74.6254C20.4503 73.9179 20.3806 72.8794 20.8933 72.0159C21.4114 71.1432 22.4169 70.6499 23.5757 71.1365L24.6397 68.6025C22.0224 67.5035 19.6354 68.7512 18.5301 70.6128C17.4194 72.4835 17.4954 75.1724 19.8175 76.8522L21.4283 74.6254ZM70.3058 109.983L21.4283 74.6254L19.8175 76.8522L68.695 112.209L70.3058 109.983ZM9.21068 103.875L69.3062 112.456L69.6947 109.736L9.5992 101.154L9.21068 103.875ZM8.08615 107.814C6.94862 107.375 6.6066 106.373 6.87421 105.402C7.14345 104.425 7.97528 103.698 9.21068 103.875L9.5992 101.154C6.7802 100.751 4.8008 102.581 4.22465 104.672C3.64687 106.769 4.42529 109.347 7.09668 110.378L8.08615 107.814ZM64.5685 129.611L8.08615 107.814L7.09668 110.378L63.5791 132.175L64.5685 129.611ZM3.94501 139.088L64.2285 132.258L63.9191 129.527L3.63561 136.357L3.94501 139.088ZM3.94505 143.184C1.50604 142.908 1.50621 139.365 3.94501 139.088L3.63561 136.357C-2.05528 137.002 -2.05503 145.271 3.63565 145.915L3.94505 143.184ZM64.22 150.014L3.94505 143.184L3.63565 145.915L63.9106 152.744L64.22 150.014ZM8.07389 174.459L64.56 152.661L63.5705 150.097L7.08442 171.895L8.07389 174.459ZM9.19843 178.398C7.96302 178.575 7.1312 177.848 6.86195 176.871C6.59435 175.9 6.93636 174.898 8.07389 174.459L7.08442 171.895C4.41303 172.926 3.63461 175.505 4.21239 177.601C4.78854 179.692 6.76794 181.522 9.58694 181.119L9.19843 178.398ZM69.3156 169.814L9.19843 178.398L9.58694 181.119L69.7042 172.534L69.3156 169.814ZM21.4332 207.648L70.3153 172.287L68.7045 170.061L19.8224 205.421L21.4332 207.648ZM23.5806 211.137C22.4217 211.623 21.4162 211.13 20.8981 210.258C20.3854 209.394 20.4551 208.355 21.4332 207.648L19.8224 205.421C17.5003 207.101 17.4243 209.79 18.5349 211.661C19.6402 213.522 22.0272 214.77 24.6445 213.671L23.5806 211.137ZM128.561 167.058L23.5806 211.137L24.6445 213.671L129.624 169.592L128.561 167.058ZM131.775 167.77C131.125 167.896 130.473 167.703 129.992 167.286L128.193 169.364C129.278 170.303 130.776 170.763 132.297 170.469L131.775 167.77ZM130.891 169.878C132.095 171.697 134.331 172.445 136.319 171.881L135.569 169.237C134.689 169.487 133.702 169.146 133.182 168.361L130.891 169.878ZM139.312 169.951C138.501 170.342 137.526 170.166 136.891 169.563L134.997 171.554C136.427 172.914 138.624 173.334 140.505 172.427L139.312 169.951ZM139.008 172.227C140.625 173.63 142.929 173.777 144.686 172.765L143.314 170.384C142.533 170.834 141.508 170.758 140.809 170.151L139.008 172.227ZM147.192 170.151C146.493 170.758 145.468 170.834 144.686 170.384L143.314 172.765C145.072 173.777 147.376 173.63 148.993 172.227L147.192 170.151ZM147.495 172.427C149.376 173.334 151.574 172.914 153.004 171.554L151.11 169.563C150.475 170.166 149.5 170.342 148.689 169.951L147.495 172.427ZM154.819 168.361C154.299 169.146 153.312 169.487 152.432 169.237L151.681 171.881C153.669 172.445 155.906 171.697 157.11 169.878L154.819 168.361ZM155.703 170.469C157.224 170.763 158.723 170.303 159.807 169.364L158.009 167.286C157.528 167.703 156.875 167.896 156.225 167.77L155.703 170.469ZM158.376 169.592L263.356 213.671L264.42 211.137L159.44 167.058L158.376 169.592ZM263.356 213.671C265.974 214.77 268.36 213.522 269.466 211.661C270.576 209.79 270.5 207.101 268.178 205.421L266.567 207.648C267.546 208.355 267.615 209.394 267.103 210.257C266.584 211.13 265.579 211.623 264.42 211.137L263.356 213.671ZM268.178 205.421L219.296 170.061L217.685 172.287L266.567 207.648L268.178 205.421ZM218.297 172.534L278.414 181.119L278.802 178.398L218.685 169.814L218.297 172.534ZM278.414 181.119C281.233 181.522 283.212 179.692 283.788 177.601C284.366 175.505 283.588 172.926 280.916 171.895L279.927 174.459C281.064 174.898 281.406 175.9 281.139 176.871C280.869 177.848 280.038 178.575 278.802 178.398L278.414 181.119ZM280.916 171.895L224.43 150.097L223.441 152.661L279.927 174.459L280.916 171.895ZM224.09 152.744L284.365 145.915L284.056 143.184L223.781 150.014L224.09 152.744ZM284.365 145.915C290.056 145.271 290.056 137.002 284.365 136.357L284.056 139.088C286.495 139.365 286.495 142.908 284.056 143.184L284.365 145.915ZM284.365 136.357L224.082 129.527L223.772 132.258L284.056 139.088L284.365 136.357ZM224.422 132.175L280.904 110.378L279.915 107.814L223.432 129.611L224.422 132.175ZM280.904 110.378C283.575 109.347 284.354 106.769 283.776 104.672C283.2 102.581 281.221 100.751 278.401 101.154L278.79 103.875C280.025 103.698 280.857 104.425 281.126 105.402C281.394 106.373 281.052 107.375 279.915 107.814L280.904 110.378ZM278.401 101.154L218.306 109.736L218.695 112.456L278.79 103.875L278.401 101.154ZM219.306 112.209L268.183 76.8522L266.572 74.6254L217.695 109.983L219.306 112.209ZM268.183 76.8522C270.505 75.1724 270.581 72.4835 269.471 70.6128C268.365 68.7512 265.978 67.5035 263.361 68.6025L264.425 71.1365C265.584 70.6499 266.589 71.1432 267.107 72.0159C267.62 72.8794 267.55 73.9179 266.572 74.6254L268.183 76.8522ZM263.361 68.6025L207.404 92.0978L208.468 94.6318L264.425 71.1365L263.361 68.6025ZM209.002 94.2321L246.95 47.598L244.818 45.8633L206.87 92.4975L209.002 94.2321ZM246.95 47.598C248.757 45.3769 248.132 42.7646 246.573 41.2488C245.023 39.7416 242.398 39.1567 240.153 40.8838L241.829 43.0619C242.827 42.2944 243.93 42.512 244.657 43.2191C245.376 43.9178 245.576 44.9317 244.818 45.8633L246.95 47.598ZM240.153 40.8838L192.228 77.76L193.904 79.9381L241.829 43.0619L240.153 40.8838ZM194.322 79.4067L218.636 24.6499L216.125 23.5345L191.81 78.2914L194.322 79.4067ZM218.636 24.6499C219.796 22.039 218.52 19.6794 216.626 18.6164C214.742 17.5586 212.059 17.6695 210.339 19.9169L212.522 21.5868C213.284 20.5916 214.399 20.5175 215.281 21.0129C216.154 21.5032 216.613 22.4351 216.125 23.5345L218.636 24.6499ZM210.339 19.9169L173.715 67.791L175.898 69.4609L212.522 21.5868L210.339 19.9169ZM176.165 68.8311L185.103 9.65002L182.385 9.23964L173.448 68.4207L176.165 68.8311ZM185.103 9.65003C185.528 6.83456 183.692 4.88213 181.594 4.33559C179.502 3.79059 176.94 4.58353 175.87 7.20542L178.414 8.24388C178.883 7.09478 179.925 6.74079 180.901 6.99511C181.871 7.2479 182.566 8.04105 182.385 9.23963L185.103 9.65003ZM175.87 7.20542L153.312 62.4792L155.857 63.5177L178.414 8.24388L175.87 7.20542Z" fill="#E49E18" mask="url(#path-1-inside-1_214_12115)"/>
<mask id="path-3-inside-2_214_12115" fill="white">
<path fill-rule="evenodd" clip-rule="evenodd" d="M199.933 175.368C199.933 204.988 167.986 229 128.578 229C89.1695 229 57.2227 204.988 57.2227 175.368C57.2227 154.905 72.4696 137.118 94.8906 128.077C97.3077 114.191 109.419 103.634 123.996 103.634H163.175C183.476 103.634 199.933 120.092 199.933 140.393V175.368L199.933 175.368Z"/>
</mask>
<path fill-rule="evenodd" clip-rule="evenodd" d="M199.933 175.368C199.933 204.988 167.986 229 128.578 229C89.1695 229 57.2227 204.988 57.2227 175.368C57.2227 154.905 72.4696 137.118 94.8906 128.077C97.3077 114.191 109.419 103.634 123.996 103.634H163.175C183.476 103.634 199.933 120.092 199.933 140.393V175.368L199.933 175.368Z" fill="url(#paint1_linear_214_12115)"/>
<path d="M199.933 175.368L199.687 174.016L198.559 174.221V175.368H199.933ZM94.8906 128.077L95.4045 129.351L96.1133 129.065L96.2444 128.312L94.8906 128.077ZM199.933 175.368L200.179 176.72L201.308 176.514V175.368H199.933ZM198.559 175.368C198.559 189.65 190.86 202.683 178.208 212.193C165.555 221.703 148.013 227.626 128.578 227.626V230.374C148.551 230.374 166.687 224.291 179.859 214.39C193.033 204.489 201.307 190.706 201.307 175.368H198.559ZM128.578 227.626C109.143 227.626 91.6006 221.703 78.9478 212.193C66.2954 202.683 58.5968 189.65 58.5968 175.368H55.8485C55.8485 190.706 64.1233 204.489 77.2965 214.39C90.4692 224.291 108.604 230.374 128.578 230.374V227.626ZM58.5968 175.368C58.5968 155.649 73.3093 138.261 95.4045 129.351L94.3766 126.802C71.63 135.975 55.8485 154.161 55.8485 175.368H58.5968ZM96.2444 128.312C98.5489 115.074 110.098 105.008 123.996 105.008V102.26C108.74 102.26 96.0665 113.309 93.5368 127.841L96.2444 128.312ZM123.996 105.008H163.175V102.26H123.996V105.008ZM163.175 105.008C182.717 105.008 198.559 120.851 198.559 140.393H201.308C201.308 119.333 184.235 102.26 163.175 102.26V105.008ZM198.559 140.393V175.368H201.308V140.393H198.559ZM199.688 174.016L199.687 174.016L200.179 176.72L200.179 176.72L199.688 174.016Z" fill="#D3ACA9" mask="url(#path-3-inside-2_214_12115)"/>
<rect x="88.2427" y="133.086" width="39.9912" height="51.5878" rx="19.9956" fill="#F8F8F8" stroke="#C6C6C6" stroke-width="1.37415"/>
<rect x="141.328" y="133.086" width="39.9912" height="51.5878" rx="19.9956" fill="#F8F8F8" stroke="#C6C6C6" stroke-width="1.37415"/>
<rect x="97.897" y="143.126" width="26.8875" height="36.2019" rx="13.4437" fill="#191919"/>
<rect x="150.982" y="143.126" width="26.8875" height="36.2019" rx="13.4437" fill="#191919"/>
<ellipse cx="106.17" cy="153.182" rx="3.44711" ry="3.35202" fill="#F8F8F8"/>
<ellipse cx="159.256" cy="153.182" rx="3.44711" ry="3.35202" fill="#F8F8F8"/>
<path fill-rule="evenodd" clip-rule="evenodd" d="M245.056 93.5238C172.088 92.9943 141.325 119.341 135.265 130.566C134.491 132.001 133.011 132.945 131.349 133.065C129.688 133.185 128.081 132.463 127.097 131.156C125.51 129.046 122.807 126.74 119.142 124.371C115.528 122.034 111.233 119.797 106.716 117.746C97.6775 113.641 88.097 110.438 82.0905 108.761C79.5286 108.046 78.0479 105.447 78.7833 102.956C79.5186 100.465 82.1915 99.0247 84.7534 99.7398C91.1565 101.527 101.225 104.893 110.8 109.242C115.591 111.417 120.344 113.877 124.486 116.555C126.561 117.896 128.551 119.336 130.341 120.871C143.087 105.162 178.267 83.6532 245.128 84.1384C247.793 84.1578 249.937 86.2745 249.917 88.8662C249.898 91.4579 247.721 93.5432 245.056 93.5238Z" fill="url(#paint2_linear_214_12115)" stroke="#3E374B" stroke-width="1.37415" stroke-linecap="round" stroke-linejoin="round"/>
<defs>
<linearGradient id="paint0_linear_214_12115" x1="144" y1="0.829224" x2="144" y2="212.705" gradientUnits="userSpaceOnUse">
<stop stop-color="#FFBA33"/>
<stop offset="1" stop-color="#DDAB4C" stop-opacity="0.26"/>
</linearGradient>
<linearGradient id="paint1_linear_214_12115" x1="128.578" y1="103.634" x2="128.578" y2="229" gradientUnits="userSpaceOnUse">
<stop stop-color="#F9DEDC"/>
<stop offset="1" stop-color="#99578A"/>
</linearGradient>
<linearGradient id="paint2_linear_214_12115" x1="164.256" y1="84.1304" x2="164.256" y2="133.078" gradientUnits="userSpaceOnUse">
<stop stop-color="#76659A"/>
<stop offset="1" stop-color="#230F4F"/>
</linearGradient>
</defs>
</svg>
